<svg width="240" height="182" viewBox="0 0 240 182" version="1.1" xmlns="http://www.w3.org/2000/svg" xmlns:xlink="http://www.w3.org/1999/xlink">
<title>business-market-research-experiment-chemistry-vial</title>
<desc>Created using Figma</desc>
<g id="Canvas" transform="translate(-3893 16)">
<g id="business-market-research-experiment-chemistry-vial">
<g id="Landing Page">
<g id="Business, Market, Research, Experiment, Chemistry, Vial">
<g id="svg6016">
<g id="layer1">
<g id="g9487">
<g id="path9166">
<use xlink:href="#path0_fill" transform="translate(3893 -16)" fill="#0020B2"/>
</g>
</g>
</g>
</g>
</g>
</g>
</g>
</g>
<defs>
<path id="path0_fill" d="M 93.7439 0.000743771C 92.9458 0.00410354 92.2288 0.489037 91.929 1.22829C 91.6291 1.96755 91.8057 2.81464 92.3761 3.37261L 93.7669 4.76285L 92.3761 6.15309C 91.6089 6.92143 91.6087 8.16544 92.3755 8.93407C 93.1424 9.70269 94.387 9.70588 95.1578 8.9412L 96.5487 7.55096L 97.9395 8.9412C 98.7103 9.70588 99.9549 9.70269 100.722 8.93407C 101.489 8.16544 101.488 6.92143 100.721 6.15309L 99.3304 4.76285L 100.721 3.37261C 101.3 2.80688 101.473 1.94444 101.157 1.19932C 100.842 0.454204 100.101 -0.0214376 99.292 0.000743771C 98.7815 0.0149478 98.2965 0.227033 97.9395 0.592163L 96.5487 1.9824L 95.1578 0.592163C 94.7859 0.212078 94.2758 -0.00127337 93.7439 0.000743771ZM 134.763 5.60005C 131.527 5.60005 128.861 8.26437 128.861 11.4989C 128.861 14.7335 131.527 17.3978 134.763 17.3978C 137.999 17.3978 140.664 14.7335 140.664 11.4989C 140.664 8.26437 137.999 5.60005 134.763 5.60005ZM 134.763 9.53262C 135.873 9.53262 136.73 10.3899 136.73 11.4989C 136.73 12.6083 135.873 13.4652 134.763 13.4652C 133.653 13.4652 132.796 12.6083 132.796 11.4989C 132.796 10.3899 133.653 9.53262 134.763 9.53262ZM 164.563 17.3978C 163.761 17.3979 163.04 17.8841 162.739 18.6268C 162.439 19.3695 162.619 20.2203 163.195 20.7774L 164.586 22.1676L 163.195 23.5578C 162.68 24.0508 162.473 24.7835 162.652 25.4731C 162.832 26.1627 163.371 26.7013 164.061 26.8808C 164.75 27.0603 165.484 26.8526 165.977 26.3381L 167.368 24.9479L 168.758 26.3381C 169.252 26.8526 169.985 27.0603 170.675 26.8808C 171.365 26.7013 171.903 26.1627 172.083 25.4731C 172.263 24.7835 172.055 24.0508 171.54 23.5578L 170.149 22.1676L 171.54 20.7774C 172.125 20.2126 172.302 19.3463 171.985 18.5976C 171.669 17.8489 170.924 17.3721 170.111 17.3978C 169.599 17.414 169.114 17.6288 168.758 17.9967L 167.368 19.3873L 165.977 17.9967C 165.606 17.6139 165.096 17.3977 164.563 17.3978ZM 100.329 28.3583C 97.0939 28.3583 94.4278 31.0234 94.4278 34.2571C 94.4278 37.4912 97.0939 40.156 100.329 40.156L 102.297 40.156L 102.297 77.1775C 81.3273 84.0068 66.901 103.379 66.8871 125.543C 66.8871 153.755 89.8097 176.667 118.034 176.667C 127.873 176.667 137.033 173.831 144.837 169.009C 145.506 171.064 146.884 173.022 148.633 174.647C 150.503 176.384 152.795 177.796 155.411 177.796L 165.247 177.796L 165.247 181.728L 169.181 181.728L 169.181 177.796L 220.328 177.796L 220.328 181.728L 224.262 181.728L 224.262 177.796L 230.164 177.796C 235.579 177.796 240 173.377 240 167.964L 240 116.841C 240 111.429 235.579 107.01 230.164 107.01L 224.262 107.01L 224.262 103.077L 225.899 103.077C 227.171 103.077 228.197 102.2 228.197 101.111C 228.197 100.021 227.171 99.1445 225.899 99.1445L 202.954 99.1445C 201.682 99.1445 200.656 100.021 200.656 101.111C 200.656 102.2 201.682 103.077 202.954 103.077L 204.591 103.077L 204.591 107.01L 192.787 107.01L 192.787 103.077L 194.424 103.077C 195.696 103.077 196.722 102.2 196.722 101.111C 196.722 100.021 195.696 99.1445 194.424 99.1445L 171.479 99.1445C 170.207 99.1445 169.181 100.021 169.181 101.111C 169.181 102.2 170.207 103.077 171.479 103.077L 173.115 103.077L 173.115 107.01L 165.616 107.01C 160.109 93.0985 148.589 82.0032 133.772 77.1775L 133.772 40.156L 135.739 40.156C 138.974 40.156 141.64 37.4912 141.64 34.2571C 141.64 31.0234 138.974 28.3583 135.739 28.3583L 100.329 28.3583ZM 100.329 32.2908L 135.739 32.2908C 136.863 32.2908 137.706 33.134 137.706 34.2571C 137.706 35.3806 136.863 36.2234 135.739 36.2234L 100.329 36.2234C 99.2055 36.2234 98.3622 35.3806 98.3622 34.2571C 98.3622 33.134 99.2055 32.2908 100.329 32.2908ZM 106.231 40.156L 129.837 40.156L 129.837 78.3833C 129.836 79.2572 130.412 80.027 131.251 80.2729C 147.883 85.1213 160.201 98.5385 164.002 114.875L 72.074 114.875C 75.8776 98.5428 88.1877 85.128 104.817 80.2803C 105.659 80.0337 106.235 79.26 106.231 78.3833L 106.231 40.156ZM 87.5196 47.9672C 86.9978 47.9754 86.5007 48.1903 86.1376 48.5648C 85.7744 48.9393 85.575 49.4427 85.5831 49.9642L 85.5831 51.9305L 83.6159 51.9305C 82.9065 51.9204 82.2466 52.293 81.8889 52.9055C 81.5313 53.518 81.5313 54.2755 81.8889 54.888C 82.2466 55.5005 82.9065 55.8731 83.6159 55.863L 85.5754 55.863L 85.5754 57.8293C 85.5654 58.5384 85.9381 59.198 86.5509 59.5555C 87.1637 59.913 87.9216 59.913 88.5343 59.5555C 89.1471 59.198 89.5198 58.5384 89.5098 57.8293L 89.5098 55.863L 91.477 55.863C 92.1864 55.8731 92.8463 55.5005 93.204 54.888C 93.5616 54.2755 93.5616 53.518 93.204 52.9055C 92.8463 52.293 92.1864 51.9204 91.477 51.9305L 89.5175 51.9305L 89.5175 49.9642C 89.5258 49.432 89.318 48.9193 88.9415 48.5429C 88.565 48.1666 88.0519 47.9589 87.5196 47.9672ZM 150.493 48.8583C 149.691 48.8585 148.97 49.3446 148.669 50.0874C 148.369 50.8301 148.549 51.6808 149.125 52.238L 153.021 56.132C 153.519 56.6288 154.245 56.8221 154.924 56.6391C 155.604 56.4562 156.134 55.9247 156.315 55.2449C 156.496 54.5652 156.301 53.8405 155.803 53.3438L 151.907 49.4573C 151.536 49.0744 151.026 48.8583 150.493 48.8583ZM 166.177 48.8583C 165.665 48.8745 165.18 49.0894 164.824 49.4573L 160.928 53.3438C 160.43 53.8405 160.234 54.5652 160.415 55.2449C 160.597 55.9247 161.127 56.4562 161.806 56.6391C 162.486 56.8221 163.212 56.6288 163.71 56.132L 167.606 52.238C 168.191 51.6732 168.367 50.8069 168.051 50.0582C 167.734 49.3095 166.989 48.8326 166.177 48.8583ZM 45.248 56.7235C 42.0119 56.7235 39.3464 59.3878 39.3464 62.6223C 39.3464 65.8569 42.0119 68.5212 45.248 68.5212C 48.484 68.5212 51.1496 65.8569 51.1496 62.6223C 51.1496 59.3878 48.484 56.7235 45.248 56.7235ZM 122.814 56.7235C 121.785 56.8 120.99 57.6583 120.993 58.6898C 120.993 59.7757 121.873 60.656 122.96 60.656C 124.046 60.656 124.927 59.7757 124.927 58.6898C 124.927 57.6038 124.046 56.7235 122.96 56.7235C 122.911 56.7217 122.862 56.7217 122.814 56.7235ZM 45.248 60.656C 46.3577 60.656 47.2152 61.5133 47.2152 62.6223C 47.2152 63.7317 46.3577 64.5886 45.248 64.5886C 44.1382 64.5886 43.2808 63.7317 43.2808 62.6223C 43.2808 61.5133 44.1382 60.656 45.248 60.656ZM 154.373 60.656C 153.862 60.6722 153.377 60.8871 153.021 61.255L 149.125 65.1415C 148.627 65.6382 148.431 66.3629 148.612 67.0426C 148.793 67.7224 149.324 68.2539 150.003 68.4369C 150.683 68.6198 151.408 68.4265 151.907 67.9297L 155.803 64.0357C 156.387 63.4709 156.564 62.6046 156.248 61.8559C 155.931 61.1072 155.186 60.6303 154.373 60.656ZM 162.296 60.656C 161.494 60.6562 160.773 61.1423 160.472 61.8851C 160.172 62.6278 160.352 63.4785 160.928 64.0357L 164.824 67.9297C 165.322 68.4265 166.048 68.6198 166.727 68.4369C 167.407 68.2539 167.937 67.7224 168.118 67.0426C 168.3 66.3629 168.104 65.6382 167.606 65.1415L 163.71 61.255C 163.339 60.8721 162.829 60.656 162.296 60.656ZM 114.945 68.5212C 113.916 68.5977 113.121 69.456 113.124 70.4875C 113.124 71.5734 114.005 72.4537 115.091 72.4537C 116.177 72.4537 117.058 71.5734 117.058 70.4875C 117.058 69.4015 116.177 68.5212 115.091 68.5212C 115.042 68.5194 114.994 68.5194 114.945 68.5212ZM 29.5105 75.5491C 26.275 75.5491 23.6089 78.2142 23.6089 81.4479C 23.6089 83.9915 25.2653 86.158 27.5433 86.9783L 27.5433 116.334L 1.88523 162.066L 1.31659 163.049C -0.438863 166.088 -0.438863 169.841 1.31659 172.88C 3.07204 175.919 6.32763 177.796 9.83853 177.796L 64.9199 177.796C 68.4308 177.796 71.6787 175.919 73.4342 172.88C 75.1854 169.848 75.1846 166.107 73.442 163.072L 73.4342 163.072L 73.3727 162.966C 73.2807 162.799 57.6906 134.698 47.2152 116.357L 47.2152 86.9783C 49.4931 86.158 51.1496 83.9915 51.1496 81.4479C 51.1496 78.2142 48.4834 75.5491 45.248 75.5491L 29.5105 75.5491ZM 66.2032 78.6523C 65.4052 78.6557 64.6882 79.1406 64.3884 79.8798C 64.0885 80.619 64.2651 81.4661 64.8354 82.024L 66.2262 83.4142L 64.8354 84.8044C 64.337 85.301 64.1415 86.0257 64.3227 86.7055C 64.5039 87.3852 65.0341 87.9167 65.7137 88.0997C 66.3932 88.2827 67.1188 88.0893 67.6171 87.5926L 69.008 86.2024L 70.3988 87.5926C 70.8971 88.0893 71.6227 88.2827 72.3023 88.0997C 72.9818 87.9167 73.5121 87.3852 73.6932 86.7055C 73.8744 86.0257 73.679 85.301 73.1806 84.8044L 71.7897 83.4142L 73.1806 82.024C 73.7594 81.4583 73.9325 80.5959 73.6166 79.8508C 73.3008 79.1057 72.5606 78.6301 71.7513 78.6523C 71.2408 78.6665 70.7558 78.8786 70.3988 79.2437L 69.008 80.6339L 67.6171 79.2437C 67.2452 78.8636 66.7351 78.6503 66.2032 78.6523ZM 29.5105 79.4816L 45.248 79.4816C 46.3718 79.4816 47.2152 80.3248 47.2152 81.4479C 47.2152 82.5715 46.372 83.4142 45.248 83.4142L 29.5105 83.4142C 28.3864 83.4142 27.5433 82.5715 27.5433 81.4479C 27.5433 80.3248 28.3867 79.4816 29.5105 79.4816ZM 31.4776 87.3468L 43.2808 87.3468L 43.2808 117.363L 43.5421 117.816C 46.4016 122.819 49.6661 128.669 52.9093 134.438C 50.5665 135.455 44.7223 137.298 38.309 133.839C 35.7799 132.477 33.2905 131.802 30.9782 131.55C 27.9032 131.215 25.245 131.664 23.1248 132.233L 31.4776 117.356L 31.4776 87.3468ZM 127.87 91.2793C 124.634 91.2793 121.968 93.9437 121.968 97.1782C 121.968 100.413 124.634 103.077 127.87 103.077C 131.106 103.077 133.772 100.413 133.772 97.1782C 133.772 93.9437 131.106 91.2793 127.87 91.2793ZM 127.87 95.2119C 128.98 95.2119 129.837 96.0692 129.837 97.1782C 129.837 98.2876 128.98 99.1445 127.87 99.1445C 126.76 99.1445 125.903 98.2876 125.903 97.1782C 125.903 96.0692 126.76 95.2119 127.87 95.2119ZM 100.329 103.077C 99.2429 103.077 98.3622 103.957 98.3622 105.043C 98.3622 106.129 99.2429 107.01 100.329 107.01C 101.416 107.01 102.297 106.129 102.297 105.043C 102.297 103.957 101.416 103.077 100.329 103.077ZM 177.05 103.077L 188.853 103.077L 188.853 158.97C 188.853 162.272 186.255 164.869 182.951 164.869C 179.648 164.869 177.05 162.272 177.05 158.97L 177.05 158.133L 180.008 158.133L 180.008 154.2L 177.05 154.2L 177.05 150.268L 182.951 150.268L 182.951 146.335L 177.05 146.335L 177.05 142.403L 180.008 142.403L 180.008 138.47L 177.05 138.47L 177.05 134.538L 182.951 134.538L 182.951 130.605L 177.05 130.605L 177.05 126.672L 180.008 126.672L 180.008 122.74L 177.05 122.74L 177.05 118.807L 182.951 118.807L 182.951 114.875L 177.05 114.875L 177.05 103.077ZM 208.525 103.077L 220.328 103.077L 220.328 158.97C 220.328 162.272 217.73 164.869 214.426 164.869C 211.123 164.869 208.525 162.272 208.525 158.97L 208.525 158.133L 211.483 158.133L 211.483 154.2L 208.525 154.2L 208.525 150.268L 214.426 150.268L 214.426 146.335L 208.525 146.335L 208.525 142.403L 211.483 142.403L 211.483 138.47L 208.525 138.47L 208.525 134.538L 214.426 134.538L 214.426 130.605L 208.525 130.605L 208.525 126.672L 211.483 126.672L 211.483 122.74L 208.525 122.74L 208.525 118.807L 214.426 118.807L 214.426 114.875L 208.525 114.875L 208.525 103.077ZM 166.983 110.942L 173.115 110.942L 173.115 158.97C 173.115 164.383 177.536 168.802 182.951 168.802C 188.367 168.802 192.787 164.383 192.787 158.97L 192.787 110.942L 204.591 110.942L 204.591 158.97C 204.591 164.383 209.011 168.802 214.426 168.802C 219.842 168.802 224.262 164.383 224.262 158.97L 224.262 110.942L 230.164 110.942C 233.468 110.942 236.066 113.539 236.066 116.841L 236.066 167.964C 236.066 171.267 233.468 173.863 230.164 173.863L 155.411 173.863C 154.392 173.863 152.724 173.076 151.315 171.766C 149.906 170.457 148.787 168.683 148.479 167.557C 148.414 167.284 148.291 167.027 148.118 166.805C 160.86 157.502 169.181 142.505 169.181 125.543C 169.178 120.49 168.392 115.59 166.983 110.942ZM 71.3363 118.807L 164.732 118.807C 165.051 121.016 165.245 123.262 165.247 125.543C 165.247 151.63 144.132 172.734 118.034 172.734C 91.9386 172.734 70.8257 151.633 70.8215 125.551C 70.8233 123.267 71.0162 121.018 71.3363 118.807ZM 182.951 122.74C 181.865 122.74 180.984 123.62 180.984 124.706C 180.984 125.792 181.865 126.672 182.951 126.672C 184.038 126.672 184.919 125.792 184.919 124.706C 184.919 123.62 184.038 122.74 182.951 122.74ZM 214.426 122.74C 213.34 122.74 212.459 123.62 212.459 124.706C 212.459 125.792 213.34 126.672 214.426 126.672C 215.513 126.672 216.394 125.792 216.394 124.706C 216.394 123.62 215.513 122.74 214.426 122.74ZM 114.945 123.577C 113.916 123.654 113.121 124.512 113.124 125.543C 113.124 126.629 114.005 127.51 115.091 127.51C 116.177 127.51 117.058 126.629 117.058 125.543C 117.058 124.457 116.177 123.577 115.091 123.577C 115.042 123.575 114.994 123.575 114.945 123.577ZM 152.468 129.476C 149.232 129.476 146.566 132.14 146.566 135.375C 146.566 138.609 149.232 141.274 152.468 141.274C 155.704 141.274 158.369 138.609 158.369 135.375C 158.369 132.14 155.704 129.476 152.468 129.476ZM 89.5175 133.409C 86.2814 133.409 83.6159 136.073 83.6159 139.307C 83.6159 142.542 86.2814 145.206 89.5175 145.206C 92.7535 145.206 95.4191 142.542 95.4191 139.307C 95.4191 136.073 92.7535 133.409 89.5175 133.409ZM 152.468 133.409C 153.577 133.409 154.435 134.266 154.435 135.375C 154.435 136.484 153.577 137.341 152.468 137.341C 151.358 137.341 150.5 136.484 150.5 135.375C 150.5 134.266 151.358 133.409 152.468 133.409ZM 27.8276 135.352C 30.356 135.23 33.3438 135.654 36.4417 137.326C 44.6804 141.761 52.209 139.053 54.8304 137.856C 62.7323 151.94 70.0069 164.992 70.0069 164.992L 70.0302 165.031C 71.0777 166.857 71.0832 169.091 70.0302 170.915C 68.9744 172.742 67.0316 173.864 64.9201 173.864L 9.83869 173.864C 7.72711 173.864 5.78439 172.742 4.7286 170.915C 3.67694 169.094 3.68515 166.863 4.7286 165.039L 20.1818 137.488C 20.3567 137.444 20.5248 137.377 20.6813 137.287C 20.6813 137.287 23.6136 135.558 27.8276 135.352ZM 122.814 135.391C 121.785 135.467 120.99 136.326 120.993 137.357C 120.993 138.443 121.873 139.324 122.96 139.324C 124.046 139.324 124.927 138.443 124.927 137.357C 124.927 136.271 124.046 135.391 122.96 135.391C 122.911 135.389 122.862 135.389 122.814 135.391ZM 89.5175 137.357C 90.6272 137.357 91.4847 138.215 91.4847 139.324C 91.4847 140.433 90.6272 141.29 89.5175 141.29C 88.4077 141.29 87.5503 140.433 87.5503 139.324C 87.5503 138.215 88.4077 137.357 89.5175 137.357ZM 184.919 138.47C 183.832 138.47 182.951 139.35 182.951 140.436C 182.951 141.522 183.832 142.403 184.919 142.403C 186.005 142.403 186.886 141.522 186.886 140.436C 186.886 139.35 186.005 138.47 184.919 138.47ZM 216.394 138.47C 215.307 138.47 214.426 139.35 214.426 140.436C 214.426 141.522 215.307 142.403 216.394 142.403C 217.48 142.403 218.361 141.522 218.361 140.436C 218.361 139.35 217.48 138.47 216.394 138.47ZM 41.3136 142.403C 40.2272 142.403 39.3464 143.283 39.3464 144.369C 39.3464 145.455 40.2272 146.335 41.3136 146.335C 42.4001 146.335 43.2808 145.455 43.2808 144.369C 43.2808 143.283 42.4001 142.403 41.3136 142.403ZM 103.142 143.24C 102.113 143.317 101.318 144.175 101.321 145.206C 101.321 146.292 102.201 147.173 103.288 147.173C 104.374 147.173 105.255 146.292 105.255 145.206C 105.255 144.12 104.374 143.24 103.288 143.24C 103.239 143.238 103.19 143.238 103.142 143.24ZM 142.486 143.24C 141.457 143.317 140.662 144.175 140.664 145.206C 140.664 146.292 141.545 147.173 142.632 147.173C 143.718 147.173 144.599 146.292 144.599 145.206C 144.599 144.12 143.718 143.24 142.632 143.24C 142.583 143.238 142.534 143.238 142.486 143.24ZM 26.552 146.335C 23.3159 146.335 20.6504 149 20.6504 152.234C 20.6504 155.469 23.3159 158.133 26.552 158.133C 29.788 158.133 32.4536 155.469 32.4536 152.234C 32.4536 149 29.788 146.335 26.552 146.335ZM 26.552 150.268C 27.6617 150.268 28.5192 151.125 28.5192 152.234C 28.5192 153.344 27.6617 154.2 26.552 154.2C 25.4422 154.2 24.5848 153.344 24.5848 152.234C 24.5848 151.125 25.4422 150.268 26.552 150.268ZM 44.2721 150.268C 43.1856 150.268 42.3049 151.148 42.3049 152.234C 42.3049 153.32 43.1856 154.2 44.2721 154.2C 45.3585 154.2 46.2393 153.32 46.2393 152.234C 46.2393 151.148 45.3585 150.268 44.2721 150.268ZM 53.1168 154.2C 49.8807 154.2 47.2152 156.865 47.2152 160.099C 47.2152 163.334 49.8807 165.998 53.1168 165.998C 56.3528 165.998 59.0183 163.334 59.0183 160.099C 59.0183 156.865 56.3528 154.2 53.1168 154.2ZM 123.936 154.2C 120.7 154.2 118.034 156.865 118.034 160.099C 118.034 163.334 120.7 165.998 123.936 165.998C 127.172 165.998 129.837 163.334 129.837 160.099C 129.837 156.865 127.172 154.2 123.936 154.2ZM 53.1168 158.133C 54.2265 158.133 55.0839 158.99 55.0839 160.099C 55.0839 161.209 54.2265 162.066 53.1168 162.066C 52.007 162.066 51.1496 161.209 51.1496 160.099C 51.1496 158.99 52.007 158.133 53.1168 158.133ZM 123.936 158.133C 125.045 158.133 125.903 158.99 125.903 160.099C 125.903 161.209 125.045 162.066 123.936 162.066C 122.826 162.066 121.968 161.209 121.968 160.099C 121.968 158.99 122.826 158.133 123.936 158.133ZM 182.951 158.133C 181.865 158.133 180.984 159.013 180.984 160.099C 180.984 161.185 181.865 162.066 182.951 162.066C 184.038 162.066 184.919 161.185 184.919 160.099C 184.919 159.013 184.038 158.133 182.951 158.133ZM 214.426 158.133C 213.34 158.133 212.459 159.013 212.459 160.099C 212.459 161.185 213.34 162.066 214.426 162.066C 215.513 162.066 216.394 161.185 216.394 160.099C 216.394 159.013 215.513 158.133 214.426 158.133ZM 111.011 158.97C 109.982 159.047 109.187 159.905 109.189 160.937C 109.189 162.022 110.07 162.903 111.157 162.903C 112.243 162.903 113.124 162.022 113.124 160.937C 113.124 159.851 112.243 158.97 111.157 158.97C 111.108 158.968 111.059 158.968 111.011 158.97ZM 21.6417 162.066C 20.5552 162.066 19.6745 162.946 19.6745 164.032C 19.6745 165.118 20.5552 165.998 21.6417 165.998C 22.7281 165.998 23.6089 165.118 23.6089 164.032C 23.6089 162.946 22.7281 162.066 21.6417 162.066ZM 40.3377 165.998C 39.2512 165.998 38.3705 166.878 38.3705 167.964C 38.3705 169.05 39.2512 169.931 40.3377 169.931C 41.4241 169.931 42.3049 169.05 42.3049 167.964C 42.3049 166.878 41.4241 165.998 40.3377 165.998Z"/>
</defs>
</svg>
