<svg width="56" height="80" viewBox="0 0 56 80" version="1.1" xmlns="http://www.w3.org/2000/svg" xmlns:xlink="http://www.w3.org/1999/xlink">
<title>Group 3</title>
<desc>Created using Figma</desc>
<g id="Canvas" transform="translate(-124 -371)">
<g id="Group 3">
<g id="Ellipse 2.1">
<use xlink:href="#path0_fill" transform="matrix(1 0 0 -1 126 411)" fill="#2EA2F8"/>
</g>
<g id="Mask Group">
<mask id="mask0_alpha" mask-type="alpha">
<g id="Rectangle 6.1">
<use xlink:href="#path1_fill" transform="translate(0 271)" fill="#FFFFFF"/>
</g>
</mask>
<g id="Ellipse 2" mask="url(#mask0_alpha)">
<use xlink:href="#path2_fill" transform="translate(124 394)" fill="#1E1E1E"/>
</g>
</g>
</g>
</g>
<defs>
<path id="path0_fill" d="M 40 20C 40 31.0457 31.0457 40 20 40C 8.95431 40 0 31.0457 0 20C 0 8.95431 8.95431 0 20 0C 31.0457 0 40 8.95431 40 20Z"/>
<path id="path1_fill" d="M 0 3C 0 1.34314 1.34315 0 3 0L 177 0C 178.657 0 180 1.34315 180 3L 180 177C 180 178.657 178.657 180 177 180L 3 180C 1.34314 180 0 178.657 0 177L 0 3Z"/>
<path id="path2_fill" d="M 66 33C 66 51.2254 51.2254 66 33 66C 14.7746 66 0 51.2254 0 33C 0 14.7746 14.7746 0 33 0C 51.2254 0 66 14.7746 66 33Z"/>
</defs>
</svg>
