<svg xmlns="http://www.w3.org/2000/svg" width="121" height="127" viewBox="0 0 121 127">
    <path fill="#000" fill-rule="nonzero" d="M3.68.453A3.699 3.699 0 0 0 0 4.133 3.699 3.699 0 0 0 3.68 7.81h1.336v71.132h-.11a3.699 3.699 0 0 0-3.68 3.68 3.699 3.699 0 0 0 3.68 3.679h14.899l-8.135 39.01a1.227 1.227 0 0 0 1.203 1.476h9.81c.583 0 1.085-.408 1.203-.977l8.236-39.509h18.161v31.901c0 .677.55 1.226 1.226 1.226h9.812c.677 0 1.226-.549 1.226-1.226V86.302H80.71l8.235 39.509c.118.568.617.975 1.198.977h9.81a1.227 1.227 0 0 0 1.203-1.475l-8.13-39.011h14.9a3.699 3.699 0 0 0 3.679-3.68c0-1.979-1.603-3.609-3.57-3.669v-34.35h2.9l2.203 3.23a1.227 1.227 0 1 0 2.026-1.38l-1.26-1.85h1.93l2.205 3.23a1.227 1.227 0 1 0 2.026-1.38l-1.48-2.175a1.227 1.227 0 0 0 0-1.801l1.48-2.17a1.227 1.227 0 1 0-2.026-1.38l-2.2 3.224h-1.93l1.255-1.844a1.227 1.227 0 1 0-2.026-1.38l-2.2 3.224h-2.902V7.811h1.111a3.699 3.699 0 0 0 3.68-3.679 3.699 3.699 0 0 0-3.68-3.68H3.68zm0 2.453h105.466c.7 0 1.227.525 1.227 1.226 0 .7-.526 1.226-1.227 1.226H3.68c-.7 0-1.226-.525-1.226-1.226 0-.7.526-1.226 1.226-1.226zM7.468 7.81h98.113v34.34h-2.625c-.647-14.315-12.446-25.755-26.92-25.755-14.886 0-26.98 12.095-26.98 26.981 0 14.887 12.094 26.982 26.98 26.982 14.473 0 26.272-11.441 26.92-25.755h2.625v34.34H7.469V7.81zm13.38 6.132c-.677 0-1.226.55-1.226 1.227v4.906c0 .677.549 1.226 1.226 1.226h19.618c.677 0 1.226-.55 1.226-1.226V15.17c0-.677-.549-1.227-1.226-1.227H20.849zm1.226 2.453H39.24v2.453H22.075v-2.453zm53.963 2.453c13.146 0 23.824 10.317 24.466 23.302h-4.906c-.637-10.25-9.151-18.392-19.56-18.392-10.823 0-19.623 8.796-19.623 19.618C56.415 54.2 65.215 63 76.038 63c10.408 0 18.922-8.146 19.56-18.396h4.906c-.642 12.985-11.32 23.302-24.466 23.302-13.561 0-24.529-10.968-24.529-24.529 0-13.56 10.968-24.528 24.529-24.528zm-60.095 7.359c-.679 0-1.226.547-1.226 1.226 0 .68.547 1.226 1.226 1.226h29.434c.68 0 1.227-.547 1.227-1.226 0-.68-.547-1.226-1.227-1.226H15.943zm60.095 0c9.083 0 16.478 7.019 17.107 15.938H88.24c-.617-6.187-5.857-11.037-12.202-11.037-6.759 0-12.264 5.506-12.264 12.264 0 6.758 5.505 12.264 12.264 12.264 6.344 0 11.583-4.853 12.202-11.038h4.905c-.63 8.919-8.026 15.944-17.107 15.944-9.497 0-17.17-7.673-17.17-17.17 0-9.497 7.673-17.165 17.17-17.165zm-60.095 4.9c-.679 0-1.226.548-1.226 1.227 0 .68.547 1.226 1.226 1.226h29.434c.68 0 1.227-.547 1.227-1.226 0-.68-.547-1.226-1.227-1.226H15.943zm60.095 2.453c5.013 0 9.085 3.741 9.691 8.585h-4.963c-.55-2.105-2.459-3.679-4.728-3.679-2.695 0-4.906 2.211-4.906 4.906 0 2.694 2.211 4.905 4.906 4.905 2.268 0 4.176-1.576 4.728-3.679h4.963c-.607 4.843-4.68 8.585-9.691 8.585a9.793 9.793 0 0 1-9.812-9.811 9.794 9.794 0 0 1 9.812-9.812zm-60.095 2.453c-.679 0-1.226.547-1.226 1.227s.547 1.226 1.226 1.226h29.434c.68 0 1.227-.547 1.227-1.226 0-.68-.547-1.227-1.227-1.227H15.943zm0 4.906c-.679 0-1.226.547-1.226 1.226 0 .68.547 1.227 1.226 1.227h29.434c.68 0 1.227-.547 1.227-1.227s-.547-1.226-1.227-1.226H15.943zm60.095 0c.91 0 1.66.502 2.084 1.226h-2.084a1.227 1.227 0 1 0 0 2.453h2.084c-.424.723-1.175 1.227-2.084 1.227a2.435 2.435 0 0 1-2.453-2.453 2.435 2.435 0 0 1 2.453-2.453zm-60.095 4.906c-.679 0-1.226.547-1.226 1.226 0 .68.547 1.226 1.226 1.226h29.434c.68 0 1.227-.547 1.227-1.226 0-.68-.547-1.226-1.227-1.226H15.943zm0 4.905c-.679 0-1.226.547-1.226 1.227s.547 1.226 1.226 1.226h29.434c.68 0 1.227-.547 1.227-1.226 0-.68-.547-1.227-1.227-1.227H15.943zm0 4.906c-.679 0-1.226.547-1.226 1.226 0 .68.547 1.227 1.226 1.227h29.434c.68 0 1.227-.547 1.227-1.227s-.547-1.226-1.227-1.226H15.943zm0 4.906c-.679 0-1.226.547-1.226 1.226 0 .68.547 1.226 1.226 1.226h29.434c.68 0 1.227-.547 1.227-1.226 0-.68-.547-1.226-1.227-1.226H15.943zM4.906 81.392h103.019c.7 0 1.226.526 1.226 1.226s-.526 1.226-1.226 1.226h-25.98a1.227 1.227 0 0 0-.489 0h-19.91a1.227 1.227 0 0 0-.426 0H51.7a1.227 1.227 0 0 0-.21-.024 1.227 1.227 0 0 0-.183.024l-46.402.005c-.701 0-1.227-.526-1.227-1.226s.526-1.227 1.227-1.227v-.004zm17.404 4.905h7.301l-7.924 38.033h-7.305l7.928-38.033zm30.426 0h7.358v30.675h-7.358V86.297zm30.478 0h7.306l7.929 38.033h-7.306l-7.929-38.033z"/>
</svg>
