<svg xmlns="http://www.w3.org/2000/svg" viewBox="0 0 34.02 24.02"><defs><style>.cls-1{fill:#e8e8e8;}.cls-2{fill:#4e4e4e;}.cls-3{fill:#4f4f4f;}</style></defs><title>Copy</title><g id="Layer_2" data-name="Layer 2"><g id="Layer_1-2" data-name="Layer 1"><path class="cls-1" d="M16.88,24c-4.41,0-8.82,0-13.23,0C.66,24,0,23.41,0,20.55,0,14.81.05,9.07,0,3.33,0,1,1,0,3.29,0Q17,.06,30.75,0C33.09,0,34,1.05,34,3.35,34,9.09,34,14.83,34,20.57c0,2.79-.63,3.4-3.39,3.43C26,24,21.45,24,16.88,24Z"/><path class="cls-2" d="M21,13.79c0,6.65.61,6.24-6.16,6.22-.75,0-1.5,0-2.25,0-1.75,0-2.62-.74-2.6-2.54,0-2.66,0-5.32,0-8A2.13,2.13,0,0,1,12.43,7h1.75C21.83,7,21,6.29,21,13.79Z"/><path class="cls-3" d="M14.12,4.13a43.13,43.13,0,0,1,8.48.09,1.5,1.5,0,0,1,1.27,1.39c.06,3.43,0,6.85,0,10.28l-.89,0q0-2,0-3.94c0-1.33-.11-2.67,0-4,.23-2.26-.6-3.21-2.94-3-2,.17-4,0-5.95,0Z"/><path class="cls-1" d="M11,13.52c.08-6.29-.82-5.44,5.61-5.5C20,8,20,8,20,11.51c0,1.58-.12,3.17,0,4.73.21,2.25-.79,3-2.9,2.77a4.35,4.35,0,0,0-.5,0C10.2,18.93,11.09,19.8,11,13.52Z"/></g></g></svg>