<svg width="288" height="308" viewBox="0 0 288 308" version="1.1" xmlns="http://www.w3.org/2000/svg" xmlns:xlink="http://www.w3.org/1999/xlink">
<title>events</title>
<desc>Created using Figma</desc>
<g id="Canvas" transform="translate(-619 75)">
<g id="events">
<g id="group-9" filter="url(#filter0_dd)">
<g id="Landing Page">
<g id="Group 9">
<g id="Oval 3 Copy 3">
<use xlink:href="#path0_fill" transform="translate(783 105)" fill="#1E1E1E"/>
<mask id="mask0_outline_ins">
<use xlink:href="#path0_fill" fill="white" transform="translate(783 105)"/>
</mask>
<g mask="url(#mask0_outline_ins)">
<use xlink:href="#path1_stroke_2x" transform="translate(783 105)" fill="#FFFFFF"/>
</g>
</g>
<g id="Business">
<g id="svg6016">
<g id="layer1">
<g id="path5099">
<use xlink:href="#path2_fill" transform="translate(804.818 121.636)" fill="#FFFFFF"/>
</g>
</g>
</g>
</g>
</g>
</g>
</g>
<g id="group-6" filter="url(#filter1_dd)">
<g id="Landing Page">
<g id="Group 6">
<g id="Oval 3">
<use xlink:href="#path0_fill" transform="translate(623 -75)" fill="#1E1E1E"/>
<mask id="mask1_outline_ins">
<use xlink:href="#path0_fill" fill="white" transform="translate(623 -75)"/>
</mask>
<g mask="url(#mask1_outline_ins)">
<use xlink:href="#path1_stroke_2x" transform="translate(623 -75)" fill="#FFFFFF"/>
</g>
</g>
<g id="Startup, Idea, Innovation, Business, Bulb, Big, Thing">
<g id="svg6016">
<g id="layer1">
<g id="g9487">
<g id="rect9670">
<use xlink:href="#path3_fill" transform="translate(644.275 -54.391)" fill="#FFFFFF"/>
</g>
</g>
</g>
</g>
</g>
</g>
</g>
</g>
<g id="group-7" filter="url(#filter2_dd)">
<g id="Landing Page">
<g id="Group 7">
<g id="Oval 3 Copy">
<use xlink:href="#path0_fill" transform="translate(783 -75)" fill="#1E1E1E"/>
<mask id="mask2_outline_ins">
<use xlink:href="#path0_fill" fill="white" transform="translate(783 -75)"/>
</mask>
<g mask="url(#mask2_outline_ins)">
<use xlink:href="#path1_stroke_2x" transform="translate(783 -75)" fill="#FFFFFF"/>
</g>
</g>
<g id="Campaign, Launch, Startup, Boostup, Rocket, Launching, Mission">
<g id="svg6016">
<g id="layer1">
<g id="circle8816">
<use xlink:href="#path4_fill" transform="translate(804.818 -52.4633)" fill="#FFFFFF"/>
</g>
</g>
</g>
</g>
</g>
</g>
</g>
<g id="group-8" filter="url(#filter3_dd)">
<g id="Landing Page">
<g id="Group 8">
<g id="Oval 3 Copy 2">
<use xlink:href="#path0_fill" transform="translate(623 105)" fill="#1E1E1E"/>
<mask id="mask3_outline_ins">
<use xlink:href="#path0_fill" fill="white" transform="translate(623 105)"/>
</mask>
<g mask="url(#mask3_outline_ins)">
<use xlink:href="#path1_stroke_2x" transform="translate(623 105)" fill="#FFFFFF"/>
</g>
</g>
<g id="Personal">
<g id="svg6016">
<g id="layer1">
<g id="path8336">
<use xlink:href="#path5_fill" transform="translate(645.364 138.431)" fill="#FFFFFF"/>
</g>
</g>
</g>
</g>
</g>
</g>
</g>
</g>
</g>
<defs>
<filter id="filter0_dd" filterUnits="userSpaceOnUse" x="779" y="105" width="128" height="128" color-interpolation-filters="sRGB">
<feFlood flood-opacity="0" result="BackgroundImageFix"/>
<feColorMatrix in="SourceAlpha" type="matrix" values="0 0 0 0 0 0 0 0 0 0 0 0 0 0 0 0 0 0 255 0"/>
<feOffset dx="0" dy="4"/>
<feGaussianBlur stdDeviation="2"/>
<feColorMatrix type="matrix" values="0 0 0 0 0 0 0 0 0 0 0 0 0 0 0 0 0 0 0.25 0"/>
<feBlend mode="normal" in2="BackgroundImageFix" result="effect1_dropShadow"/>
<feColorMatrix in="SourceAlpha" type="matrix" values="0 0 0 0 0 0 0 0 0 0 0 0 0 0 0 0 0 0 255 0"/>
<feOffset dx="0" dy="4"/>
<feGaussianBlur stdDeviation="2"/>
<feColorMatrix type="matrix" values="0 0 0 0 0 0 0 0 0 0 0 0 0 0 0 0 0 0 0.25 0"/>
<feBlend mode="normal" in2="effect1_dropShadow" result="effect2_dropShadow"/>
<feBlend mode="normal" in="SourceGraphic" in2="effect2_dropShadow" result="shape"/>
</filter>
<filter id="filter1_dd" filterUnits="userSpaceOnUse" x="619" y="-75" width="128" height="128" color-interpolation-filters="sRGB">
<feFlood flood-opacity="0" result="BackgroundImageFix"/>
<feColorMatrix in="SourceAlpha" type="matrix" values="0 0 0 0 0 0 0 0 0 0 0 0 0 0 0 0 0 0 255 0"/>
<feOffset dx="0" dy="4"/>
<feGaussianBlur stdDeviation="2"/>
<feColorMatrix type="matrix" values="0 0 0 0 0 0 0 0 0 0 0 0 0 0 0 0 0 0 0.25 0"/>
<feBlend mode="normal" in2="BackgroundImageFix" result="effect1_dropShadow"/>
<feColorMatrix in="SourceAlpha" type="matrix" values="0 0 0 0 0 0 0 0 0 0 0 0 0 0 0 0 0 0 255 0"/>
<feOffset dx="0" dy="4"/>
<feGaussianBlur stdDeviation="2"/>
<feColorMatrix type="matrix" values="0 0 0 0 0 0 0 0 0 0 0 0 0 0 0 0 0 0 0.25 0"/>
<feBlend mode="normal" in2="effect1_dropShadow" result="effect2_dropShadow"/>
<feBlend mode="normal" in="SourceGraphic" in2="effect2_dropShadow" result="shape"/>
</filter>
<filter id="filter2_dd" filterUnits="userSpaceOnUse" x="779" y="-75" width="128" height="128" color-interpolation-filters="sRGB">
<feFlood flood-opacity="0" result="BackgroundImageFix"/>
<feColorMatrix in="SourceAlpha" type="matrix" values="0 0 0 0 0 0 0 0 0 0 0 0 0 0 0 0 0 0 255 0"/>
<feOffset dx="0" dy="4"/>
<feGaussianBlur stdDeviation="2"/>
<feColorMatrix type="matrix" values="0 0 0 0 0 0 0 0 0 0 0 0 0 0 0 0 0 0 0.25 0"/>
<feBlend mode="normal" in2="BackgroundImageFix" result="effect1_dropShadow"/>
<feColorMatrix in="SourceAlpha" type="matrix" values="0 0 0 0 0 0 0 0 0 0 0 0 0 0 0 0 0 0 255 0"/>
<feOffset dx="0" dy="4"/>
<feGaussianBlur stdDeviation="2"/>
<feColorMatrix type="matrix" values="0 0 0 0 0 0 0 0 0 0 0 0 0 0 0 0 0 0 0.25 0"/>
<feBlend mode="normal" in2="effect1_dropShadow" result="effect2_dropShadow"/>
<feBlend mode="normal" in="SourceGraphic" in2="effect2_dropShadow" result="shape"/>
</filter>
<filter id="filter3_dd" filterUnits="userSpaceOnUse" x="619" y="105" width="128" height="128" color-interpolation-filters="sRGB">
<feFlood flood-opacity="0" result="BackgroundImageFix"/>
<feColorMatrix in="SourceAlpha" type="matrix" values="0 0 0 0 0 0 0 0 0 0 0 0 0 0 0 0 0 0 255 0"/>
<feOffset dx="0" dy="4"/>
<feGaussianBlur stdDeviation="2"/>
<feColorMatrix type="matrix" values="0 0 0 0 0 0 0 0 0 0 0 0 0 0 0 0 0 0 0.25 0"/>
<feBlend mode="normal" in2="BackgroundImageFix" result="effect1_dropShadow"/>
<feColorMatrix in="SourceAlpha" type="matrix" values="0 0 0 0 0 0 0 0 0 0 0 0 0 0 0 0 0 0 255 0"/>
<feOffset dx="0" dy="4"/>
<feGaussianBlur stdDeviation="2"/>
<feColorMatrix type="matrix" values="0 0 0 0 0 0 0 0 0 0 0 0 0 0 0 0 0 0 0.25 0"/>
<feBlend mode="normal" in2="effect1_dropShadow" result="effect2_dropShadow"/>
<feBlend mode="normal" in="SourceGraphic" in2="effect2_dropShadow" result="shape"/>
</filter>
<path id="path0_fill" d="M 60 120C 93.1371 120 120 93.1371 120 60C 120 26.8629 93.1371 0 60 0C 26.8629 0 0 26.8629 0 60C 0 93.1371 26.8629 120 60 120Z"/>
<path id="path1_stroke_2x" d="M 119 60C 119 92.5848 92.5848 119 60 119L 60 121C 93.6894 121 121 93.6894 121 60L 119 60ZM 60 119C 27.4152 119 1 92.5848 1 60L -1 60C -1 93.6894 26.3106 121 60 121L 60 119ZM 1 60C 1 27.4152 27.4152 1 60 1L 60 -1C 26.3106 -1 -1 26.3106 -1 60L 1 60ZM 60 1C 92.5848 1 119 27.4152 119 60L 121 60C 121 26.3106 93.6894 -1 60 -1L 60 1Z"/>
<path id="path2_fill" fill-rule="evenodd" d="M 38.1818 -1.19123e-08C 36.6837 -1.19123e-08 35.4545 1.22911 35.4545 2.72727C 35.4545 3.98906 36.3298 5.04948 37.5 5.35599L 37.5 6.13636L 38.8636 6.13636L 38.8636 5.35599C 39.3209 5.23627 39.7329 5.00652 40.0648 4.6875L 40.6401 5.04173L 41.3565 3.8805L 40.7759 3.52361C 40.8549 3.26959 40.9091 3.00612 40.9091 2.72727C 40.9091 1.22911 39.68 -1.19123e-08 38.1818 -1.19123e-08ZM 38.1818 1.36364C 38.943 1.36364 39.5455 1.96608 39.5455 2.72727C 39.5455 3.48847 38.943 4.09091 38.1818 4.09091C 37.4206 4.09091 36.8182 3.48847 36.8182 2.72727C 36.8182 1.96608 37.4206 1.36364 38.1818 1.36364ZM 35.4838 3.58754L 34.3226 4.30132L 35.0391 5.46254L 36.2003 4.74875L 35.4838 3.58754ZM 42.5178 4.59428L 41.8013 5.75817L 42.9625 6.47194L 43.679 5.31072L 42.5178 4.59428ZM 33.1614 5.01776L 32.0002 5.73154L 32.7166 6.89276L 33.8778 6.17898L 33.1614 5.01776ZM 44.8402 6.0245L 44.1238 7.18572L 45.285 7.90216L 46.0014 6.73829L 44.8402 6.0245ZM 30.839 6.44531L 29.6777 7.16175L 30.3915 8.32298L 31.5527 7.60654L 30.839 6.44531ZM 38.1818 6.81818C 34.8009 6.81818 32.0455 9.5736 32.0455 12.9545C 32.0455 12.9555 32.0455 12.9564 32.0455 12.9573C 32.0463 13.1865 32.107 13.4092 32.1333 13.6364L 28.6364 13.6364C 27.515 13.6364 26.5909 14.5605 26.5909 15.6819L 26.5909 16.3557L 17.7273 16.3557C 17.5675 16.3557 17.4137 16.3775 17.2612 16.4034L 17.6181 16.1823L 16.9043 15.0211L 15.7404 15.7375L 16.3583 16.739C 15.545 17.2145 14.9893 18.0862 14.9893 19.0908L 14.9893 30.3754L 14.4087 30.0611L 13.7615 31.2622L 14.5898 31.707L 14.9893 30.9639L 14.9893 55.9381L 14.7443 55.4828L 13.5431 56.13L 14.1903 57.3311L 14.9893 56.8996L 14.9893 69.4707L 14.0785 68.9113L 13.362 70.0726L 14.5233 70.7863L 14.9893 70.0299L 14.9893 76.3635C 14.9893 77.8681 16.2227 79.1014 17.7273 79.1014L 28.0344 79.1014L 29.0758 79.7433L 29.47 79.1014L 37.5 79.1014L 37.5 79.3197L 38.8636 79.3197L 38.8636 79.1014L 46.9203 79.1014L 47.3065 79.7273L 48.3239 79.1014L 58.6364 79.1014C 60.1409 79.1014 61.3743 77.8681 61.3743 76.3635L 61.3743 70.2297L 61.7498 70.8397L 62.911 70.1232L 62.1946 68.9619L 61.3743 69.468L 61.3743 56.8996L 62.2985 57.3978L 62.9457 56.1965L 61.7445 55.5493L 61.3743 56.2365L 61.3743 31.6164L 61.5021 31.8534L 62.5914 31.2675L 61.9469 30.0664L 61.3743 30.3754L 61.3743 19.0908C 61.3743 18.4798 61.1653 17.9173 60.823 17.4607L 61.5447 17.9055L 62.2585 16.7443L 61.0973 16.0305L 60.4608 17.0666C 60.122 16.7613 59.7094 16.5394 59.2516 16.4326L 59.9361 15.3167L 58.7749 14.6003L 58.0611 15.7615L 59.0998 16.4034C 58.9481 16.3775 58.7952 16.3557 58.6364 16.3557L 49.7727 16.3557L 49.7727 15.6819C 49.7727 14.5605 48.8487 13.6364 47.7273 13.6364L 44.2276 13.6364C 44.2543 13.41 44.3169 13.1883 44.3182 12.9599C 44.3182 12.9581 44.3182 12.9563 44.3182 12.9545C 44.3182 9.57355 41.5628 6.81813 38.1818 6.81813L 38.1818 6.81818ZM 47.1626 7.45473L 46.4462 8.61594L 47.6074 9.32973L 48.3239 8.16849L 47.1626 7.45473ZM 28.5165 7.87553L 27.3553 8.58931L 28.0691 9.75053L 29.2303 9.03675L 28.5165 7.87553ZM 38.1818 8.18182C 40.8258 8.18182 42.9545 10.3106 42.9545 12.9545C 42.9521 13.3565 42.9002 13.7565 42.7974 14.1451C 42.7438 14.3492 42.7878 14.5667 42.9166 14.734C 43.0453 14.9012 43.2442 14.9995 43.4553 15L 47.7273 15C 48.1168 15 48.4091 15.2923 48.4091 15.6818L 48.4091 21.1364C 48.4091 21.526 48.1168 21.8182 47.7273 21.8182L 28.6364 21.8182C 28.2468 21.8182 27.9545 21.526 27.9545 21.1364L 27.9545 15.6818C 27.9545 15.2923 28.2468 15 28.6364 15L 32.9057 15C 33.1173 15.0003 33.3169 14.9024 33.4463 14.735C 33.5756 14.5676 33.6199 14.3497 33.5662 14.1451C 33.4641 13.7555 33.4106 13.3546 33.4091 12.9519C 33.4106 10.3092 35.5387 8.18182 38.1818 8.18182ZM 49.4851 8.88228L 48.7713 10.0462L 49.9325 10.7599L 50.6463 9.59872L 49.4851 8.88228ZM 26.1941 9.30575L 25.0328 10.0195L 25.7466 11.1808L 26.9078 10.467L 26.1941 9.30575ZM 38.1818 9.54545C 36.3071 9.54545 34.7727 11.0798 34.7727 12.9545C 34.7727 14.8293 36.3071 16.3637 38.1818 16.3637C 40.0565 16.3637 41.5909 14.8293 41.5909 12.9545C 41.5909 11.0798 40.0565 9.54545 38.1818 9.54545ZM 51.8075 10.3125L 51.0938 11.4737L 52.255 12.1902L 52.9688 11.0289L 51.8075 10.3125ZM 23.8716 10.7333L 22.7104 11.4497L 23.4242 12.611L 24.5854 11.8945L 23.8716 10.7333ZM 38.1818 10.9091C 39.3196 10.9091 40.2273 11.8168 40.2273 12.9545C 40.2273 14.0923 39.3196 15 38.1818 15C 37.0441 15 36.1364 14.0923 36.1364 12.9545C 36.1364 11.8168 37.0441 10.9091 38.1818 10.9091ZM 54.13 11.7427L 53.4162 12.9039L 54.5774 13.6177L 55.2912 12.4565L 54.13 11.7427ZM 21.5492 12.1635L 20.388 12.8773L 21.1017 14.0385L 22.263 13.3247L 21.5492 12.1635ZM 56.4524 13.1729L 55.7386 14.3342L 56.8999 15.0479L 57.6136 13.8867L 56.4524 13.1729ZM 19.2267 13.5937L 18.0655 14.3075L 18.7793 15.4687L 19.9405 14.755L 19.2267 13.5937ZM 14.5792 16.4489L 13.418 17.1626L 14.1344 18.3265L 15.2956 17.6101L 14.5792 16.4489ZM 63.4197 17.4583L 62.706 18.6196L 63.8672 19.3333L 64.5836 18.172L 63.4197 17.4583ZM 17.7273 17.7193L 26.5909 17.7193L 26.5909 19.0802L 19.7621 19.0802C 19.3855 19.0802 19.0803 19.3855 19.0803 19.762L 19.0803 74.3315C 19.0803 74.708 19.3855 75.0132 19.7621 75.0133L 50.0231 75.0133C 50.2087 75.014 50.3867 74.939 50.5158 74.8056L 57.0943 67.9847C 57.2163 67.8571 57.2841 67.6872 57.2834 67.5107L 57.2834 19.762C 57.2833 19.3855 56.9781 19.0802 56.6016 19.0802L 49.7727 19.0802L 49.7727 17.7193L 58.6364 17.7193C 59.409 17.7193 60.0107 18.3183 60.0107 19.091L 60.0107 76.3637C 60.0107 77.1365 59.409 77.738 58.6364 77.738L 17.7273 77.738C 16.9546 77.738 16.353 77.1365 16.353 76.3637L 16.353 19.091C 16.353 18.3183 16.9546 17.7193 17.7273 17.7193ZM 12.2567 17.8791L 11.0955 18.5928L 11.812 19.7541L 12.9732 19.0404L 12.2567 17.8791ZM 65.7449 18.8859L 65.0284 20.047L 66.1896 20.7635L 66.9061 19.6023L 65.7449 18.8859ZM 9.9343 19.3067L 8.77308 20.0231L 9.48952 21.1843L 10.6507 20.4706L 9.9343 19.3067ZM 68.0673 20.3161L 67.3509 21.4773L 68.5121 22.1911L 69.2285 21.0298L 68.0673 20.3161ZM 20.4439 20.4442L 26.5909 20.4442L 26.5909 21.1368C 26.5909 22.2583 27.515 23.1823 28.6364 23.1823L 47.7273 23.1823C 48.8487 23.1823 49.7727 22.2583 49.7727 21.1368L 49.7727 20.4442L 55.9197 20.4442L 55.9197 66.8186L 49.7727 66.8186C 49.3962 66.8187 49.091 67.1239 49.0909 67.5005L 49.0909 73.65L 20.4439 73.65L 20.4439 20.4442ZM 7.61186 20.7373L 6.45064 21.451L 7.16442 22.6149L 8.32564 21.8986L 7.61186 20.7373ZM 70.3897 21.7466L 69.6733 22.9079L 70.8345 23.6216L 71.551 22.4605L 70.3897 21.7466ZM 2.72727 21.8182C 1.22912 21.8182 0 23.0474 0 24.5455C 0 25.8073 0.875305 26.8676 2.04545 27.1742L 2.04545 27.9519L 3.40909 27.9519L 3.40909 27.1742C 3.91778 27.0406 4.36797 26.7689 4.7168 26.3938L 5.356 26.7374L 6.0032 25.5362L 5.36665 25.1927C 5.41857 24.9835 5.45455 24.7698 5.45455 24.5455C 5.45455 24.2675 5.39987 24.0024 5.32138 23.7491L 6.0032 23.3309L 5.28942 22.1698L 4.61293 22.5853C 4.1217 22.1124 3.45753 21.8182 2.72727 21.8182ZM 73.6364 21.8182C 72.1382 21.8182 70.9091 23.0474 70.9091 24.5455C 70.9091 24.7698 70.9451 24.9835 70.997 25.1927L 70.3498 25.5415L 70.997 26.7427L 71.6468 26.3938C 71.9957 26.7689 72.4458 27.041 72.9545 27.1742L 72.9545 27.9119L 74.3182 27.9119L 74.3182 27.1742C 75.4883 26.8676 76.3636 25.8073 76.3636 24.5455C 76.3636 23.0474 75.1345 21.8182 73.6364 21.8182L 73.6364 21.8182ZM 2.72727 23.1819C 3.48846 23.1819 4.09091 23.7843 4.09091 24.5455C 4.09091 25.3067 3.48846 25.9091 2.72727 25.9091C 1.96608 25.9091 1.36364 25.3067 1.36364 24.5455C 1.36364 23.7843 1.96608 23.1819 2.72727 23.1819ZM 73.6364 23.1819C 74.3976 23.1819 75 23.7843 75 24.5455C 75 25.3067 74.3976 25.9091 73.6364 25.9091C 72.8752 25.9091 72.2727 25.3067 72.2727 24.5455C 72.2727 23.7843 72.8752 23.1819 73.6364 23.1819ZM 7.20437 26.1834L 6.55717 27.3846L 7.75835 28.0291L 8.40554 26.8306L 7.20437 26.1834ZM 69.1486 26.1834L 67.9501 26.8306L 68.5946 28.0292L 69.7958 27.3846L 69.1486 26.1834ZM 9.60405 27.4698L 8.95952 28.6711L 10.1607 29.3182L 10.8052 28.117L 9.60405 27.4698ZM 66.7489 27.4698L 65.5478 28.117L 66.195 29.3182L 67.3935 28.6711L 66.7489 27.4698ZM 32.0455 27.9412C 31.7676 27.9413 31.5176 28.1099 31.4134 28.3674C 31.3092 28.625 31.3717 28.9199 31.5714 29.1131L 33.1348 30.6766L 31.5714 32.2398C 31.394 32.411 31.3228 32.6646 31.3852 32.9031C 31.4475 33.1415 31.6338 33.3278 31.8723 33.3902C 32.1107 33.4526 32.3643 33.3814 32.5355 33.2041L 34.0989 31.6406L 35.6623 33.2041C 35.8335 33.3814 36.0871 33.4526 36.3255 33.3902C 36.564 33.3278 36.7503 33.1415 36.8126 32.9031C 36.875 32.6646 36.8038 32.411 36.6264 32.2398L 35.063 30.6766L 36.6264 29.1131C 36.8291 28.9173 36.8904 28.6169 36.7807 28.3573C 36.6709 28.0977 36.4128 27.9323 36.131 27.9412C 35.9537 27.9468 35.7856 28.0213 35.6623 28.1489L 34.0989 29.7123L 32.5355 28.1489C 32.407 28.0162 32.2302 27.9412 32.0455 27.9412ZM 40.2273 27.9412C 39.9495 27.9413 39.6994 28.1099 39.5953 28.3674C 39.4911 28.625 39.5536 28.9199 39.7532 29.1131L 41.3166 30.6766L 39.7532 32.2398C 39.5758 32.411 39.5046 32.6646 39.567 32.9031C 39.6294 33.1415 39.8156 33.3278 40.0541 33.3902C 40.2926 33.4526 40.5461 33.3814 40.7173 33.2041L 42.2807 31.6406L 43.8441 33.2041C 44.0153 33.3814 44.2689 33.4526 44.5074 33.3902C 44.7458 33.3278 44.9321 33.1415 44.9944 32.9031C 45.0568 32.6646 44.9856 32.411 44.8082 32.2398L 43.2449 30.6766L 44.8082 29.1131C 45.0109 28.9173 45.0722 28.6169 44.9625 28.3573C 44.8527 28.0977 44.5946 27.9323 44.3129 27.9412C 44.1355 27.9468 43.9674 28.0213 43.8441 28.1489L 42.2807 29.7123L 40.7173 28.1489C 40.5889 28.0162 40.412 27.9412 40.2273 27.9412ZM 48.4091 27.9412C 48.1313 27.9413 47.8813 28.1099 47.7771 28.3674C 47.6729 28.625 47.7354 28.9199 47.935 29.1131L 49.4984 30.6766L 47.935 32.2398C 47.7576 32.411 47.6864 32.6646 47.7488 32.9031C 47.8112 33.1415 47.9974 33.3278 48.2359 33.3902C 48.4744 33.4526 48.728 33.3814 48.8992 33.2041L 50.4625 31.6406L 52.0259 33.2041C 52.1971 33.3814 52.4507 33.4526 52.6892 33.3902C 52.9277 33.3278 53.1139 33.1415 53.1763 32.9031C 53.2386 32.6646 53.1674 32.411 52.9901 32.2398L 51.4267 30.6766L 52.9901 29.1131C 53.1928 28.9173 53.2541 28.6169 53.1443 28.3573C 53.0346 28.0977 52.7764 27.9323 52.4947 27.9412C 52.3174 27.9468 52.1492 28.0213 52.0259 28.1489L 50.4625 29.7123L 48.8992 28.1489C 48.7707 28.0162 48.5938 27.9412 48.4091 27.9412ZM 25.9091 27.9549C 24.4109 27.9549 23.1818 29.1841 23.1818 30.6821C 23.1818 31.9439 24.0571 33.0043 25.2273 33.3108L 25.2273 36.0887C 25.2267 36.1046 25.2267 36.1205 25.2273 36.1364L 25.2273 36.2646L 25.2273 37.5005C 25.2273 38.6219 26.1513 39.5459 27.2727 39.5459L 31.1639 39.5459L 39.5028 39.5459L 40.9091 39.5459C 41.2986 39.5459 41.5909 39.8383 41.5909 40.2277L 41.5909 41.5914L 41.5909 43.5995C 41.5904 43.6154 41.5904 43.6313 41.5909 43.6472L 41.5909 44.7951L 41.5909 45.0108C 41.5909 45.4004 41.2986 45.6926 40.9091 45.6926L 39.4735 45.6926C 39.4315 45.6841 39.3887 45.6795 39.3457 45.679L 35.4545 45.679C 34.3332 45.679 33.4091 46.6031 33.4091 47.7245L 33.4091 60.7749C 32.2389 61.0814 31.3636 62.1445 31.3636 63.4063C 31.3636 64.9045 32.5928 66.1336 34.0909 66.1336C 35.5891 66.1336 36.8182 64.9045 36.8182 63.4063C 36.8182 62.1445 35.9429 61.0814 34.7727 60.7749L 34.7727 47.7245C 34.7727 47.335 35.065 47.0426 35.4545 47.0426L 36.9034 47.0426C 36.9411 47.0504 36.9794 47.055 37.0179 47.0563L 40.9091 47.0563C 42.0305 47.0563 42.9545 46.1323 42.9545 45.0108L 42.9545 43.6472L 42.9545 41.6364C 42.955 41.6214 42.955 41.6064 42.9545 41.5914L 42.9545 40.6539L 42.9545 40.2277C 42.9545 39.1064 42.0305 38.1823 40.9091 38.1823L 39.5028 38.1823L 31.1639 38.1823L 27.2727 38.1823C 26.8832 38.1823 26.5909 37.89 26.5909 37.5005L 26.5909 36.1368L 26.5909 33.311C 27.7611 33.0044 28.6364 31.9441 28.6364 30.6823C 28.6364 29.1842 27.4072 27.955 25.9091 27.955L 25.9091 27.9549ZM 12.0064 28.7698L 11.3592 29.971L 12.5604 30.6155L 13.2076 29.4144L 12.0064 28.7698ZM 64.3466 28.7698L 63.1454 29.417L 63.7926 30.6155L 64.9938 29.971L 64.3466 28.7698ZM 72.9545 29.2679L 72.9545 30.6316L 74.3182 30.6316L 74.3182 29.2679L 72.9545 29.2679ZM 2.04545 29.3102L 2.04545 30.6738L 3.40909 30.6738L 3.40909 29.3102L 2.04545 29.3102ZM 25.9091 29.3102C 26.6703 29.3102 27.2727 29.9126 27.2727 30.6738C 27.2727 31.435 26.6703 32.0375 25.9091 32.0375C 25.1479 32.0375 24.5455 31.435 24.5455 30.6738C 24.5455 29.9126 25.1479 29.3102 25.9091 29.3102ZM 72.9545 31.9922L 72.9545 33.3558L 74.3182 33.3558L 74.3182 31.9922L 72.9545 31.9922ZM 2.04545 32.0345L 2.04545 33.3981L 3.40909 33.3981L 3.40909 32.0345L 2.04545 32.0345ZM 72.9545 34.7192L 72.9545 36.0828L 74.3182 36.0828L 74.3182 34.7192L 72.9545 34.7192ZM 2.04545 34.7615L 2.04545 36.1251L 3.40909 36.1251L 3.40909 34.7615L 2.04545 34.7615ZM 48.4091 36.1145C 48.1313 36.1145 47.8813 36.2831 47.7771 36.5406C 47.6729 36.7982 47.7354 37.0932 47.935 37.2864L 49.4984 38.8498L 47.935 40.4131C 47.7576 40.5842 47.6864 40.8378 47.7488 41.0763C 47.8112 41.3148 47.9974 41.501 48.2359 41.5634C 48.4744 41.6258 48.728 41.5546 48.8992 41.3773L 50.4625 39.8139L 52.0259 41.3773C 52.1971 41.5546 52.4507 41.6258 52.6892 41.5634C 52.9277 41.501 53.1139 41.3148 53.1763 41.0763C 53.2386 40.8378 53.1674 40.5842 52.9901 40.4131L 51.4267 38.8498L 52.9901 37.2864C 53.1928 37.0905 53.2541 36.7901 53.1443 36.5305C 53.0346 36.2709 52.7764 36.1055 52.4947 36.1145C 52.3174 36.1201 52.1492 36.1946 52.0259 36.3221L 50.4625 37.8856L 48.8992 36.3221C 48.7692 36.1925 48.5926 36.1208 48.4091 36.123L 48.4091 36.1145ZM 72.9545 37.4462L 72.9545 38.8098L 74.3182 38.8098L 74.3182 37.4462L 72.9545 37.4462ZM 2.04545 37.4885L 2.04545 38.8521L 3.40909 38.8521L 3.40909 37.4885L 2.04545 37.4885ZM 72.9545 40.1732L 72.9545 41.5368L 74.3182 41.5368L 74.3182 40.1732L 72.9545 40.1732ZM 2.04545 40.2155L 2.04545 41.5791L 3.40909 41.5791L 3.40909 40.2155L 2.04545 40.2155ZM 72.9545 42.9002L 72.9545 44.2638L 74.3182 44.2638L 74.3182 42.9002L 72.9545 42.9002ZM 2.04545 42.9425L 2.04545 44.3061L 3.40909 44.3061L 3.40909 42.9425L 2.04545 42.9425ZM 23.8503 44.2955C 23.572 44.2944 23.321 44.4626 23.2161 44.7204C 23.1113 44.9782 23.1736 45.2738 23.3736 45.4674L 24.937 47.0308L 23.3736 48.594C 23.1962 48.7652 23.125 49.0188 23.1874 49.2573C 23.2497 49.4958 23.436 49.682 23.6745 49.7444C 23.9129 49.8068 24.1665 49.7356 24.3377 49.5583L 25.9011 47.9949L 27.4645 49.5583C 27.6357 49.7356 27.8893 49.8068 28.1277 49.7444C 28.3662 49.682 28.5525 49.4958 28.6148 49.2573C 28.6772 49.0188 28.606 48.7652 28.4286 48.594L 26.8652 47.0308L 28.4286 45.4674C 28.6313 45.2715 28.6926 44.9711 28.5829 44.7115C 28.4731 44.4519 28.215 44.2865 27.9332 44.2955C 27.7559 44.3011 27.5878 44.3756 27.4645 44.5031L 25.9011 46.0665L 24.3377 44.5031C 24.2099 44.371 24.0341 44.2962 23.8503 44.2955ZM 48.4091 44.2955C 48.1313 44.2955 47.8813 44.4641 47.7771 44.7216C 47.6729 44.9792 47.7354 45.2742 47.935 45.4674L 49.4984 47.0308L 47.935 48.594C 47.7576 48.7652 47.6864 49.0188 47.7488 49.2573C 47.8112 49.4958 47.9974 49.682 48.2359 49.7444C 48.4744 49.8068 48.728 49.7356 48.8992 49.5583L 50.4625 47.9949L 52.0259 49.5583C 52.1971 49.7356 52.4507 49.8068 52.6892 49.7444C 52.9277 49.682 53.1139 49.4958 53.1763 49.2573C 53.2386 49.0188 53.1674 48.7652 52.9901 48.594L 51.4267 47.0308L 52.9901 45.4674C 53.1928 45.2715 53.2541 44.9711 53.1443 44.7115C 53.0346 44.4519 52.7764 44.2865 52.4947 44.2955C 52.3174 44.3011 52.1492 44.3756 52.0259 44.5031L 50.4625 46.0665L 48.8992 44.5031C 48.7691 44.3738 48.5925 44.3024 48.4091 44.3049L 48.4091 44.2955ZM 72.9545 45.6272L 72.9545 46.9908L 74.3182 46.9908L 74.3182 45.6272L 72.9545 45.6272ZM 2.04545 45.6695L 2.04545 47.0331L 3.40909 47.0331L 3.40909 45.6695L 2.04545 45.6695ZM 72.9545 48.3542L 72.9545 49.7178L 74.3182 49.7178L 74.3182 48.3542L 72.9545 48.3542ZM 2.04545 48.3965L 2.04545 49.7601L 3.40909 49.7601L 3.40909 48.3965L 2.04545 48.3965ZM 72.9545 51.0812L 72.9545 52.4448L 74.3182 52.4448L 74.3182 51.0812L 72.9545 51.0812ZM 2.04545 51.1235L 2.04545 52.4871L 3.40909 52.4871L 3.40909 51.1235L 2.04545 51.1235ZM 23.8503 52.4765C 23.572 52.4754 23.321 52.6436 23.2161 52.9014C 23.1113 53.1592 23.1736 53.4548 23.3736 53.6484L 24.937 55.2118L 23.3736 56.775C 23.1962 56.9462 23.125 57.1998 23.1874 57.4383C 23.2497 57.6768 23.436 57.863 23.6745 57.9254C 23.9129 57.9878 24.1665 57.9166 24.3377 57.7393L 25.9011 56.1759L 27.4645 57.7393C 27.6357 57.9166 27.8893 57.9878 28.1277 57.9254C 28.3662 57.863 28.5525 57.6768 28.6148 57.4383C 28.6772 57.1998 28.606 56.9462 28.4286 56.775L 26.8652 55.2118L 28.4286 53.6484C 28.6313 53.4525 28.6926 53.1521 28.5829 52.8925C 28.4731 52.6329 28.215 52.4675 27.9332 52.4765C 27.7559 52.4821 27.5878 52.5566 27.4645 52.6841L 25.9011 54.2476L 24.3377 52.6841C 24.2099 52.552 24.0341 52.4772 23.8503 52.4765ZM 40.214 52.4765C 39.9357 52.4754 39.6846 52.6436 39.5798 52.9014C 39.4749 53.1592 39.5372 53.4548 39.7372 53.6484L 41.3006 55.2118L 39.7372 56.775C 39.5598 56.9462 39.4886 57.1998 39.551 57.4383C 39.6134 57.6768 39.7996 57.863 40.0381 57.9254C 40.2766 57.9878 40.5302 57.9166 40.7014 57.7393L 42.2647 56.1759L 43.8281 57.7393C 43.9993 57.9166 44.2529 57.9878 44.4914 57.9254C 44.7299 57.863 44.9161 57.6768 44.9785 57.4383C 45.0408 57.1998 44.9697 56.9462 44.7923 56.775L 43.2289 55.2118L 44.7923 53.6484C 44.995 53.4525 45.0563 53.1521 44.9465 52.8925C 44.8368 52.6329 44.5786 52.4675 44.2969 52.4765C 44.1196 52.4821 43.9514 52.5566 43.8281 52.6841L 42.2647 54.2476L 40.7014 52.6841C 40.5735 52.552 40.3978 52.4772 40.214 52.4765ZM 48.4091 52.4765C 48.1313 52.4765 47.8813 52.6451 47.7771 52.9026C 47.6729 53.1602 47.7354 53.4552 47.935 53.6484L 49.4984 55.2118L 47.935 56.775C 47.7576 56.9462 47.6864 57.1998 47.7488 57.4383C 47.8112 57.6768 47.9974 57.863 48.2359 57.9254C 48.4744 57.9878 48.728 57.9166 48.8992 57.7393L 50.4625 56.1759L 52.0259 57.7393C 52.1971 57.9166 52.4507 57.9878 52.6892 57.9254C 52.9277 57.863 53.1139 57.6768 53.1763 57.4383C 53.2386 57.1998 53.1674 56.9462 52.9901 56.775L 51.4267 55.2118L 52.9901 53.6484C 53.1928 53.4525 53.2541 53.1521 53.1443 52.8925C 53.0346 52.6329 52.7764 52.4675 52.4947 52.4765C 52.3174 52.4821 52.1492 52.5566 52.0259 52.6841L 50.4625 54.2476L 48.8992 52.6841C 48.769 52.5551 48.5923 52.484 48.4091 52.4867L 48.4091 52.4765ZM 72.9545 53.8082L 72.9545 55.1718L 74.3182 55.1718L 74.3182 53.8082L 72.9545 53.8082ZM 2.04545 53.8477L 2.04545 55.2114L 3.40909 55.2114L 3.40909 53.8477L 2.04545 53.8477ZM 72.9545 56.5323L 72.9545 57.896L 74.3182 57.896L 74.3182 56.5323L 72.9545 56.5323ZM 2.04545 56.5746L 2.04545 57.9382L 3.40909 57.9382L 3.40909 56.5746L 2.04545 56.5746ZM 12.342 56.7663L 11.1408 57.4108L 11.788 58.612L 12.9892 57.9648L 12.342 56.7663ZM 64.1468 56.8331L 63.4996 58.0344L 64.7008 58.6788L 65.3454 57.4803L 64.1468 56.8331ZM 9.94229 58.0582L 8.74112 58.7055L 9.38832 59.9066L 10.5868 59.2595L 9.94229 58.0582ZM 66.5465 58.125L 65.8993 59.3261L 67.1005 59.9733L 67.7477 58.7722L 66.5465 58.125ZM 72.9545 59.2596L 72.9545 60.0853C 72.4445 60.2189 71.9934 60.4944 71.6442 60.8709L 71.3485 60.7112L 70.704 61.9123L 70.997 62.0695C 70.9455 62.2777 70.9091 62.4932 70.9091 62.7167C 70.9091 62.9946 70.9638 63.257 71.0423 63.5103L 70.3258 63.9498L 71.0396 65.111L 71.7507 64.6742C 72.2421 65.1476 72.9056 65.444 73.6364 65.444C 75.1345 65.444 76.3636 64.2149 76.3636 62.7167C 76.3636 61.4549 75.4883 60.3918 74.3182 60.0853L 74.3182 59.2596L 72.9546 59.2596L 72.9545 59.2596ZM 2.04545 59.3019L 2.04545 60.0849C 0.875305 60.3914 0 61.4545 0 62.7163C 0 64.2145 1.22912 65.4435 2.72727 65.4435C 3.45673 65.4435 4.11919 65.1485 4.61026 64.6765L 5.23349 65.06L 5.94727 63.8987L 5.32138 63.5125C 5.40035 63.2696 5.45455 63.0062 5.45455 62.7273C 5.45455 62.5041 5.42071 62.2881 5.36932 62.0801L 5.7848 61.8564L 5.13761 60.6551L 4.71946 60.8815C 4.37025 60.505 3.91916 60.2295 3.40909 60.0959L 3.40909 59.3129L 2.04545 59.3129L 2.04545 59.3019ZM 7.53995 59.3523L 6.33878 59.9968L 6.98597 61.198L 8.18714 60.5508L 7.53995 59.3523ZM 68.9489 59.4191L 68.3017 60.6204L 69.5028 61.2648L 70.15 60.0663L 68.9489 59.4191ZM 40.214 60.6576C 39.9357 60.6565 39.6846 60.8247 39.5798 61.0825C 39.4749 61.3403 39.5372 61.636 39.7372 61.8295L 41.3006 63.3929L 39.7372 64.9562C 39.5598 65.1274 39.4886 65.3809 39.551 65.6194C 39.6134 65.8579 39.7996 66.0442 40.0381 66.1066C 40.2766 66.169 40.5302 66.0978 40.7014 65.9204L 42.2647 64.357L 43.8281 65.9204C 43.9993 66.0978 44.2529 66.169 44.4914 66.1066C 44.7299 66.0442 44.9161 65.8579 44.9785 65.6194C 45.0408 65.3809 44.9697 65.1274 44.7923 64.9562L 43.2289 63.3929L 44.7923 61.8295C 44.995 61.6336 45.0563 61.3333 44.9465 61.0736C 44.8368 60.814 44.5786 60.6487 44.2969 60.6576C 44.1196 60.6632 43.9514 60.7377 43.8281 60.8653L 42.2647 62.4287L 40.7014 60.8653C 40.5735 60.7332 40.3978 60.6583 40.214 60.6576ZM 2.72727 61.3637C 3.48846 61.3637 4.09091 61.9661 4.09091 62.7273C 4.09091 63.4885 3.48846 64.091 2.72727 64.091C 1.96608 64.091 1.36364 63.4885 1.36364 62.7273C 1.36364 61.9661 1.96608 61.3637 2.72727 61.3637ZM 73.6364 61.3637C 74.3976 61.3637 75 61.9661 75 62.7273C 75 63.4885 74.3976 64.091 73.6364 64.091C 72.8752 64.091 72.2727 63.4885 72.2727 62.7273C 72.2727 61.9661 72.8752 61.3637 73.6364 61.3637ZM 34.0909 62.0455C 34.8521 62.0455 35.4545 62.648 35.4545 63.4091C 35.4545 64.1703 34.8521 64.7728 34.0909 64.7728C 33.3297 64.7728 32.7273 64.1703 32.7273 63.4091C 32.7273 62.648 33.3297 62.0455 34.0909 62.0455ZM 7.10849 64.6236L 6.39471 65.7847L 7.55593 66.4986L 8.26971 65.3373L 7.10849 64.6236ZM 69.1646 64.674L 68.0034 65.3905L 68.7172 66.5516L 69.8784 65.8353L 69.1646 64.674ZM 9.43359 66.0536L 8.71715 67.2149L 9.87837 67.9286L 10.5948 66.7675L 9.43359 66.0536ZM 66.8422 66.1041L 65.6783 66.818L 66.3947 67.9791L 67.5559 67.2654L 66.8422 66.1041ZM 11.756 67.4811L 11.0396 68.6424L 12.2008 69.3587L 12.9173 68.1975L 11.756 67.4811ZM 64.517 67.5343L 63.3558 68.248L 64.0723 69.4093L 65.2335 68.6954L 64.517 67.5343ZM 50.4545 68.1819L 54.945 68.1819L 50.4545 72.6722L 50.4545 68.1819ZM 45.4288 79.28L 44.2676 79.9964L 44.984 81.1577L 46.1452 80.4412L 45.4288 79.28ZM 30.9508 79.2963L 30.237 80.4575L 31.3983 81.1713L 32.112 80.01L 30.9508 79.2963ZM 37.5 80.6838L 37.5 81.9144C 37.042 82.0344 36.6284 82.2656 36.2962 82.5856L 35.5957 82.1541L 34.8819 83.3152L 35.5877 83.7494C 35.5092 84.0026 35.4545 84.2677 35.4545 84.5458C 35.4545 86.044 36.6837 87.2731 38.1818 87.2731C 39.68 87.2731 40.9091 86.044 40.9091 84.5458C 40.9091 84.2669 40.8549 84.0007 40.7759 83.7467L 41.4977 83.302L 40.7839 82.1407L 40.0621 82.5828C 39.7306 82.2651 39.3197 82.0338 38.8636 81.9144L 38.8636 80.6838L 37.5 80.6838L 37.5 80.6838ZM 43.1064 80.7111L 41.9451 81.4248L 42.6589 82.5861L 43.8201 81.8722L 43.1064 80.7111ZM 33.2733 80.7275L 32.5595 81.8886L 33.7207 82.6025L 34.4345 81.4412L 33.2733 80.7275ZM 38.1818 83.1819C 38.943 83.1819 39.5455 83.7843 39.5455 84.5455C 39.5455 85.3067 38.943 85.9091 38.1818 85.9091C 37.4206 85.9091 36.8182 85.3067 36.8182 84.5455C 36.8182 83.7843 37.4206 83.1819 38.1818 83.1819Z"/>
<path id="path3_fill" d="M 25.5699 8.89366e-05C 25.1675 0.00638825 24.846 0.336855 24.8507 0.739249L 24.8507 1.46985L 24.1201 1.46985C 23.8566 1.46612 23.6116 1.60455 23.4787 1.83213C 23.3459 2.05971 23.3459 2.34118 23.4787 2.56876C 23.6116 2.79634 23.8566 2.93477 24.1201 2.93104L 24.8507 2.93104L 24.8507 3.66164C 24.847 3.92512 24.9854 4.17019 25.213 4.30302C 25.4406 4.43585 25.7221 4.43585 25.9496 4.30302C 26.1772 4.17019 26.3156 3.92512 26.3119 3.66164L 26.3119 2.93104L 27.0425 2.93104C 27.306 2.93477 27.5511 2.79634 27.6839 2.56876C 27.8167 2.34118 27.8167 2.05971 27.6839 1.83213C 27.5511 1.60455 27.306 1.46612 27.0425 1.46985L 26.3119 1.46985L 26.3119 0.739249C 26.3142 0.542014 26.2367 0.352222 26.097 0.213015C 25.9572 0.0738077 25.7671 -0.00298644 25.5699 8.89366e-05ZM 46.0466 1.48126C 44.8448 1.48126 43.8548 2.47122 43.8548 3.67305C 43.8548 4.87488 44.8448 5.86484 46.0466 5.86484C 47.2485 5.86484 48.2384 4.87488 48.2384 3.67305C 48.2384 2.47122 47.2485 1.48126 46.0466 1.48126ZM 46.0466 2.94245C 46.4588 2.94245 46.7772 3.26091 46.7772 3.67305C 46.7772 4.0852 46.4588 4.40365 46.0466 4.40365C 45.6345 4.40365 45.316 4.0852 45.316 3.67305C 45.316 3.26091 45.6345 2.94245 46.0466 2.94245ZM 17.8986 7.33175C 17.3737 7.35484 16.9569 7.49288 16.6686 7.71987C 15.8998 8.32503 15.8784 9.49495 16.3861 11.173C 16.8939 12.8512 17.9749 15.0601 19.6566 17.7855C 20.1212 18.5385 20.6265 19.3137 21.1549 20.103C 18.871 23.5631 17.5333 27.7027 17.5333 32.1549C 17.5345 33.7713 17.7246 35.3554 18.0699 36.8924C 15.4108 35.7226 13.7998 34.4636 13.3238 33.4335C 12.9793 32.688 13.0452 32.0789 13.6492 31.3016C 14.2531 30.5244 15.4772 29.6684 17.3535 28.8987L 16.7628 27.5459C 14.7533 28.3703 13.3301 29.2946 12.4848 30.3826C 11.6395 31.4708 11.453 32.8148 12.0053 34.0099C 12.8601 35.8598 15.0963 37.3875 18.5607 38.6932C 20.1179 43.6037 23.3843 47.8594 27.8445 50.6539C 27.5046 50.9209 27.1579 51.2015 26.8256 51.4529C 24.2904 53.3715 22.2328 54.6266 20.8667 55.2259C 20.1835 55.5257 19.6952 55.6601 19.3456 55.6967C 18.9958 55.7332 18.7343 55.6967 18.5037 55.5197C 18.0425 55.1759 17.8877 54.2371 18.3438 52.6973C 18.8 51.1575 19.8195 49.039 21.4489 46.3873L 19.5967 46.6213C 17.9279 49.3371 16.8594 51.5342 16.3661 53.1996C 15.8727 54.8653 15.907 56.0238 16.6971 56.6128C 17.0922 56.9076 17.7223 57.0372 18.5208 56.9524C 19.3193 56.8677 20.2371 56.5814 21.2063 56.1562C 23.1445 55.306 25.3783 53.8937 28.0528 51.8697C 28.3082 51.6763 28.5732 51.4599 28.8319 51.2589L 28.8319 58.4507L 27.0311 58.4507C 26.6276 58.4508 26.3005 58.7779 26.3005 59.1813L 26.3005 61.5216C 25.4578 61.8366 24.8393 62.6245 24.8393 63.5649C 24.8393 64.5052 25.4578 65.2904 26.3005 65.6055L 26.3005 67.3664C 25.4578 67.6814 24.8393 68.4693 24.8393 69.4097C 24.8393 70.35 25.4578 71.1352 26.3005 71.4503L 26.3005 73.7933C 26.3005 74.1968 26.6276 74.5238 27.0311 74.5239L 30.6841 74.5239L 30.6841 76.7157C 30.6841 77.1192 31.0112 77.4462 31.4147 77.4463L 35.0677 77.4463L 35.0677 78.9075L 36.5289 78.9075L 36.5289 77.4463L 42.3736 77.4463L 42.3736 78.9075L 43.8348 78.9075L 43.8348 77.4463L 47.4878 77.4463C 47.8913 77.4462 48.2184 77.1192 48.2184 76.7157L 48.2184 74.5239L 51.8714 74.5239C 52.2749 74.5238 52.602 74.1968 52.602 73.7933L 52.602 71.4503C 53.4447 71.1352 54.0632 70.35 54.0632 69.4097C 54.0632 68.4693 53.4447 67.6814 52.602 67.3664L 52.602 65.6055C 53.4447 65.2904 54.0632 64.5052 54.0632 63.5649C 54.0632 62.6245 53.4447 61.8366 52.602 61.5216L 52.602 59.1813C 52.602 58.7779 52.2749 58.4508 51.8714 58.4507L 50.0706 58.4507L 50.0706 51.2589C 50.3293 51.4599 50.5943 51.6763 50.8497 51.8697C 53.5242 53.8937 55.7579 55.3058 57.6962 56.1562C 58.6654 56.5814 59.5832 56.8674 60.3817 56.9524C 61.1802 57.0372 61.8103 56.9071 62.2054 56.6128C 62.9955 56.0238 63.0299 54.8653 62.5364 53.1996C 62.0431 51.5342 60.9746 49.3371 59.3058 46.6213L 57.4536 46.3873C 59.083 49.039 60.1025 51.1575 60.5587 52.6973C 61.0148 54.2371 60.86 55.1759 60.3989 55.5197C 60.1683 55.6917 59.9067 55.7339 59.557 55.6967C 59.2073 55.6601 58.719 55.5257 58.0358 55.2259C 56.6697 54.6266 54.6121 53.3715 52.0769 51.4529C 51.7446 51.2015 51.3979 50.9209 51.0581 50.6539C 54.9526 48.2138 57.9444 44.6632 59.6768 40.5311C 61.9423 39.9399 63.7978 39.2477 65.1963 38.4536C 66.7468 37.5729 67.7971 36.5704 68.21 35.3713C 68.4164 34.7718 68.4296 34.1397 68.2699 33.5191C 68.1102 32.8987 67.7784 32.2899 67.2967 31.7354C 66.3334 30.6262 64.808 29.6331 62.6963 28.7074L 62.1426 30.0431C 64.1303 30.9144 65.4806 31.8414 66.2065 32.6772C 66.9325 33.513 67.0705 34.1525 66.8287 34.8548C 66.5868 35.5572 65.8278 36.3901 64.4457 37.175C 63.3981 37.7699 62.0066 38.334 60.2961 38.8387C 60.9873 36.7111 61.3676 34.4646 61.3692 32.1549C 61.3692 27.7027 60.0316 23.5631 57.7476 20.103C 58.2761 19.3137 58.7813 18.5385 59.2459 17.7855C 60.9276 15.0601 62.0086 12.8512 62.5165 11.173C 63.0242 9.49495 63.0027 8.32503 62.2339 7.71987C 61.8495 7.4172 61.2384 7.27434 60.4474 7.34886C 59.6562 7.42338 58.7337 7.70139 57.7676 8.11942C 55.8354 8.9554 53.614 10.3548 50.9468 12.366L 52.1682 12.7884C 54.6942 10.8839 56.7416 9.64171 58.0901 9.05836C 58.7643 8.76667 59.2415 8.63987 59.5855 8.60743C 59.9295 8.575 60.1914 8.62248 60.4188 8.80151C 60.8737 9.15956 61.0117 10.1158 60.5416 11.6697C 60.0714 13.2237 59.0389 15.3522 57.3966 18.0139C 57.2258 18.2907 57.029 18.5817 56.8486 18.8643C 52.8418 13.6261 46.5477 10.2313 39.4513 10.2313C 32.3548 10.2313 26.0607 13.6261 22.0539 18.8643C 21.8735 18.5817 21.6767 18.2907 21.506 18.0139C 19.8636 15.3522 18.8311 13.2237 18.361 11.6697C 17.8908 10.1158 18.0317 9.15956 18.4865 8.80151C 18.714 8.62247 18.9758 8.57501 19.3199 8.60743C 19.6639 8.63987 20.1411 8.76667 20.8153 9.05836C 22.1637 9.64171 24.2083 10.8839 26.7343 12.7884L 27.9586 12.366C 25.2914 10.3548 23.0672 8.9554 21.135 8.11942C 20.1688 7.70139 19.2491 7.42344 18.458 7.34886C 18.2602 7.33031 18.0736 7.32402 17.8986 7.33177L 17.8986 7.33175ZM 10.3387 10.237C 10.0404 10.2359 9.77149 10.4161 9.65911 10.6923C 9.54674 10.9686 9.61351 11.2854 9.82781 11.4928L 10.3444 12.0093L 9.82781 12.5258C 9.63664 12.709 9.55952 12.9813 9.62623 13.2375C 9.69293 13.4937 9.89303 13.6938 10.1493 13.7605C 10.4055 13.8272 10.6778 13.7501 10.8609 13.5589L 11.3775 13.0424L 11.894 13.5589C 12.0772 13.7501 12.3495 13.8272 12.6057 13.7605C 12.8619 13.6938 13.062 13.4937 13.1287 13.2375C 13.1955 12.9813 13.1183 12.709 12.9271 12.5258L 12.4106 12.0093L 12.9271 11.4928C 13.1443 11.2829 13.21 10.961 13.0924 10.6828C 12.9748 10.4046 12.6982 10.2275 12.3963 10.237C 12.2063 10.243 12.0261 10.3229 11.894 10.4596L 11.3775 10.9762L 10.8609 10.4596C 10.724 10.3181 10.5356 10.2378 10.3387 10.237ZM 39.4513 11.6925C 46.273 11.6925 52.2938 15.0357 56.0096 20.1629C 52.3099 25.6951 46.9943 32.1041 41.4119 37.9997L 37.4906 37.9997C 32.7446 32.9875 28.2119 27.623 24.6823 22.7171C 27.7964 17.8504 33.2379 14.6206 39.4513 14.6206L 39.4513 13.1594C 32.9416 13.1594 27.1955 16.4424 23.7719 21.4414C 23.4743 21.0133 23.1727 20.5812 22.893 20.1629C 26.6087 15.0357 32.6296 11.6925 39.4513 11.6925ZM 69.4058 18.9956C 69.0034 19.0019 68.6818 19.3324 68.6866 19.7348L 68.6866 20.4654L 67.956 20.4654C 67.6925 20.4616 67.4474 20.6001 67.3146 20.8277C 67.1818 21.0552 67.1818 21.3367 67.3146 21.5643C 67.4474 21.7919 67.6925 21.9303 67.956 21.9266L 68.6866 21.9266L 68.6866 22.6572C 68.6828 22.9206 68.8213 23.1657 69.0489 23.2985C 69.2764 23.4314 69.5579 23.4314 69.7855 23.2985C 70.0131 23.1657 70.1515 22.9206 70.1478 22.6572L 70.1478 21.9266L 70.8784 21.9266C 71.1419 21.9303 71.3869 21.7919 71.5198 21.5643C 71.6526 21.3367 71.6526 21.0552 71.5198 20.8277C 71.3869 20.6001 71.1419 20.4616 70.8784 20.4654L 70.1478 20.4654L 70.1478 19.7348C 70.1501 19.5375 70.0726 19.3477 69.9328 19.2085C 69.7931 19.0693 69.603 18.9925 69.4058 18.9956ZM 22.0568 21.4157C 22.3533 21.8421 22.6752 22.2775 22.9871 22.7114C 21.3856 25.4954 20.4557 28.7159 20.4557 32.1549L 21.9169 32.1549C 21.9169 29.2029 22.6518 26.4266 23.9375 23.9871C 27.3268 28.5624 31.4291 33.4054 35.7754 37.9997L 32.1453 37.9997L 32.1453 39.4609L 35.0677 39.4609L 35.0677 40.5511C 30.4567 40.1614 26.0139 39.4419 22.2565 38.3793C 21.3365 38.1191 20.51 37.8401 19.728 37.5545C 19.2513 35.818 18.9958 34.007 18.9945 32.1549C 18.9945 28.21 20.1269 24.5389 22.0568 21.4157ZM 56.8458 21.4157C 58.7756 24.5389 59.908 28.21 59.908 32.1549C 59.9062 34.6355 59.449 37.0439 58.6095 39.2926C 58.5934 39.2926 58.5799 39.3072 58.5638 39.3072C 54.3668 40.3172 49.19 40.8116 43.8348 40.8654L 43.8348 39.4641L 46.7572 39.4641L 46.7572 38.0029L 43.1271 38.0029C 48.2945 32.5408 53.1792 26.6905 56.8458 21.4189L 56.8458 21.4157ZM 73.17 36.5385C 72.8718 36.5374 72.6029 36.7176 72.4905 36.9938C 72.3781 37.2701 72.4449 37.5869 72.6592 37.7943L 73.1758 38.3108L 72.6592 38.8273C 72.468 39.0105 72.3909 39.2828 72.4576 39.539C 72.5243 39.7952 72.7244 39.9953 72.9807 40.062C 73.2369 40.1287 73.5091 40.0516 73.6923 39.8604L 74.2089 39.3439L 74.7254 39.8604C 74.9086 40.0516 75.1809 40.1287 75.4371 40.062C 75.6933 39.9953 75.8934 39.7952 75.9601 39.539C 76.0268 39.2828 75.9497 39.0105 75.7585 38.8273L 75.242 38.3108L 75.7585 37.7943C 75.9757 37.5844 76.0414 37.2625 75.9238 36.9843C 75.8062 36.7061 75.5296 36.529 75.2277 36.5385C 75.0377 36.5446 74.8575 36.6244 74.7254 36.7612L 74.2089 37.2777L 73.6923 36.7612C 73.5554 36.6196 73.367 36.5393 73.17 36.5385ZM 20.2959 39.2983C 20.8128 39.4641 21.3392 39.6278 21.8998 39.7863C 25.7999 40.8892 30.3556 41.6363 35.0677 42.0351L 35.0677 44.3781C 32.9945 46.3344 30.9576 48.1404 29.0146 49.7264C 24.9515 47.3148 21.9079 43.6116 20.2959 39.2983ZM 36.5289 39.4609L 37.1596 39.4609C 37.5792 39.8941 37.9907 40.3306 38.4124 40.7565C 37.7836 40.7259 37.1545 40.7025 36.5289 40.6601L 36.5289 39.4615L 36.5289 39.4609ZM 38.8748 39.4609L 40.0277 39.4609C 39.8342 39.6605 39.6451 39.8708 39.4513 40.0688C 39.2574 39.8708 39.0683 39.6605 38.8748 39.4609ZM 41.7429 39.4609L 42.3736 39.4609L 42.3736 40.865C 41.7088 40.865 41.0515 40.8796 40.3845 40.8504C 40.841 40.3901 41.2889 39.9235 41.7429 39.4548L 41.7429 39.4609ZM 57.8988 40.9535C 56.1781 44.5556 53.4205 47.6297 49.888 49.7264C 47.9449 48.1404 45.908 46.3344 43.8348 44.3781L 43.8348 42.3434C 48.8705 42.2923 53.7491 41.8491 57.8988 40.9535ZM 36.5289 42.1407C 36.7887 42.1583 37.0504 42.1656 37.3108 42.1802C 37.05 42.4369 36.7894 42.6923 36.5289 42.9451L 36.5289 42.1403L 36.5289 42.1407ZM 38.9461 42.2635C 39.3027 42.2781 39.6568 42.3059 40.0135 42.3175C 40.8014 43.0912 41.5875 43.8876 42.3736 44.6264L 42.3736 58.4506L 36.5289 58.4506L 36.5289 44.6264C 37.3338 43.8701 38.1395 43.0562 38.9461 42.2633L 38.9461 42.2635ZM 41.7601 42.3468C 41.9655 42.3468 42.1685 42.3456 42.3736 42.3468L 42.3736 42.9489C 42.1689 42.7503 41.965 42.5478 41.7601 42.3468ZM 66.4834 45.3057C 65.2815 45.3057 64.2916 46.2956 64.2916 47.4975C 64.2916 48.6993 65.2815 49.6893 66.4834 49.6893C 67.6852 49.6893 68.6752 48.6993 68.6752 47.4975C 68.6752 46.2956 67.6852 45.3057 66.4834 45.3057ZM 35.0677 45.9422L 35.0677 58.4507L 30.2931 58.4507L 30.2931 50.4427L 30.0448 50.3111C 31.6735 48.9965 33.3646 47.4954 35.0677 45.9419L 35.0677 45.9422ZM 43.8348 45.9422C 45.5379 47.4957 47.229 48.9968 48.8577 50.3114L 48.6094 50.443L 48.6094 58.451L 43.8348 58.451L 43.8348 45.9425L 43.8348 45.9422ZM 2.19078 46.7583C 1.78839 46.7646 1.46684 47.0951 1.4716 47.4975L 1.4716 48.2281L 0.741003 48.2281C 0.477523 48.2243 0.232448 48.3628 0.0996205 48.5904C -0.0332068 48.8179 -0.0332068 49.0994 0.0996205 49.327C 0.232448 49.5546 0.477523 49.693 0.741003 49.6893L 1.4716 49.6893L 1.4716 50.4199C 1.46787 50.6833 1.6063 50.9284 1.83388 51.0612C 2.06146 51.1941 2.34293 51.1941 2.57051 51.0612C 2.79809 50.9284 2.93652 50.6833 2.9328 50.4199L 2.9328 49.6893L 3.66339 49.6893C 3.92687 49.693 4.17195 49.5546 4.30478 49.327C 4.4376 49.0994 4.4376 48.8179 4.30478 48.5904C 4.17195 48.3628 3.92687 48.2243 3.66339 48.2281L 2.9328 48.2281L 2.9328 47.4975C 2.93513 47.3002 2.85761 47.1104 2.71786 46.9712C 2.57812 46.832 2.38802 46.7552 2.19078 46.7583ZM 66.4834 46.7729C 66.8955 46.7729 67.214 47.0913 67.214 47.5035C 67.214 47.9157 66.8955 48.2341 66.4834 48.2341C 66.0712 48.2341 65.7528 47.9157 65.7528 47.5035C 65.7528 47.0913 66.0712 46.7729 66.4834 46.7729ZM 27.7617 59.9179L 35.0677 59.9179L 36.5289 59.9179L 42.3736 59.9179L 43.8348 59.9179L 51.1408 59.9179L 51.1408 61.3791L 27.7617 61.3791L 27.7617 59.9179ZM 63.561 61.3762C 63.1586 61.3825 62.837 61.713 62.8418 62.1154L 62.8418 62.846L 62.1112 62.846C 61.8477 62.8423 61.6026 62.9807 61.4698 63.2083C 61.337 63.4359 61.337 63.7173 61.4698 63.9449C 61.6026 64.1725 61.8477 64.3109 62.1112 64.3072L 62.8418 64.3072L 62.8418 65.0378C 62.8381 65.3013 62.9765 65.5464 63.2041 65.6792C 63.4317 65.812 63.7131 65.812 63.9407 65.6792C 64.1683 65.5464 64.3067 65.3013 64.303 65.0378L 64.303 64.3072L 65.0336 64.3072C 65.2971 64.3109 65.5421 64.1725 65.675 63.9449C 65.8078 63.7173 65.8078 63.4359 65.675 63.2083C 65.5421 62.9807 65.2971 62.8423 65.0336 62.846L 64.303 62.846L 64.303 62.1154C 64.307 61.9171 64.2302 61.7258 64.0902 61.5852C 63.9503 61.4447 63.7593 61.3671 63.561 61.3702L 63.561 61.3762ZM 27.111 62.8403L 51.7915 62.8403C 52.2745 62.8403 52.602 63.1752 52.602 63.5709C 52.602 63.9665 52.2745 64.3015 51.7915 64.3015L 27.111 64.3015C 26.628 64.3015 26.3005 63.9665 26.3005 63.5709C 26.3005 63.1752 26.628 62.8403 27.111 62.8403ZM 10.9779 62.8578C 9.77609 62.8578 8.78614 63.8478 8.78614 65.0496C 8.78614 66.2515 9.77609 67.2414 10.9779 67.2414C 12.1798 67.2414 13.1697 66.2515 13.1697 65.0496C 13.1697 63.8478 12.1798 62.8578 10.9779 62.8578ZM 10.9779 64.319C 11.3901 64.319 11.7085 64.6374 11.7085 65.0496C 11.7085 65.4618 11.3901 65.7802 10.9779 65.7802C 10.5658 65.7802 10.2473 65.4618 10.2473 65.0496C 10.2473 64.6374 10.5658 64.319 10.9779 64.319ZM 27.7617 65.7567L 51.1408 65.7567L 51.1408 67.2179L 27.7617 67.2179L 27.7617 65.7567ZM 27.111 68.6791L 51.7915 68.6791C 52.2745 68.6791 52.602 69.014 52.602 69.4097C 52.602 69.8052 52.2745 70.1403 51.7915 70.1403L 27.111 70.1403C 26.628 70.1403 26.3005 69.8052 26.3005 69.4097C 26.3005 69.014 26.628 68.6791 27.111 68.6791ZM 27.7617 71.6015L 51.1408 71.6015L 51.1408 73.0627L 47.562 73.0627C 47.5373 73.0614 47.5125 73.0614 47.4878 73.0627L 31.4147 73.0627C 31.39 73.0614 31.3652 73.0614 31.3405 73.0627L 27.7617 73.0627L 27.7617 71.6015ZM 32.1453 74.5239L 46.7572 74.5239L 46.7572 75.9851L 32.1453 75.9851L 32.1453 74.5239Z"/>
<path id="path4_fill" d="M 41.394 8.65617e-05C 41.2065 0.00300901 41.0278 0.0802136 40.8973 0.214715C 40.7667 0.349217 40.6951 0.529998 40.698 0.717286L 40.698 1.42345L 39.9909 1.42345C 39.7359 1.41985 39.4987 1.55365 39.3702 1.77362C 39.2416 1.99359 39.2416 2.26565 39.3702 2.48562C 39.4987 2.70559 39.7359 2.83939 39.9909 2.83579L 40.698 2.83579L 40.698 3.54196C 40.6944 3.79663 40.8284 4.03351 41.0486 4.1619C 41.2689 4.29028 41.5413 4.29028 41.7615 4.1619C 41.9818 4.03351 42.1157 3.79663 42.1121 3.54196L 42.1121 2.83579L 42.8192 2.83579C 43.0742 2.83939 43.3114 2.70559 43.4399 2.48562C 43.5685 2.26565 43.5685 1.99359 43.4399 1.77362C 43.3114 1.55365 43.0742 1.41985 42.8192 1.42345L 42.1121 1.42345L 42.1121 0.717286C 42.1151 0.526171 42.0404 0.342006 41.9051 0.206851C 41.7698 0.0716969 41.5854 -0.00290413 41.394 8.65617e-05ZM 17.0774 3.24129C 16.7888 3.24022 16.5285 3.41441 16.4198 3.68139C 16.311 3.94838 16.3756 4.25458 16.583 4.45502L 17.0829 4.9543L 16.583 5.45359C 16.3983 5.63071 16.3239 5.89372 16.3885 6.14119C 16.4531 6.38866 16.6466 6.58192 16.8944 6.64643C 17.1422 6.71095 17.4055 6.63663 17.5829 6.45215L 18.0828 5.95286L 18.5827 6.45215C 18.76 6.63664 19.0234 6.71097 19.2712 6.64645C 19.519 6.58194 19.7125 6.38868 19.7771 6.1412C 19.8417 5.89372 19.7673 5.6307 19.5825 5.45359L 19.0826 4.9543L 19.5825 4.45502C 19.7927 4.25217 19.8563 3.94107 19.7425 3.67219C 19.6287 3.40331 19.361 3.23207 19.0688 3.24129C 18.8849 3.24712 18.7105 3.32431 18.5827 3.45646L 18.0828 3.95573L 17.5829 3.45646C 17.4503 3.31962 17.268 3.24204 17.0774 3.24129ZM 69.7984 5.75702C 63.4198 5.75703 57.6658 6.84033 52.5 8.6755C 52.486 8.67978 52.4722 8.68449 52.4586 8.68962C 52.4559 8.69047 52.453 8.68962 52.4502 8.68962C 51.4831 9.03437 50.5308 9.39692 49.6054 9.79308C 49.5819 9.8072 49.557 9.81003 49.5336 9.81992C 49.505 9.83266 49.4773 9.84729 49.4507 9.8637C 43.6375 12.3757 38.6438 15.8567 34.442 19.8025C 30.8491 23.1767 27.8594 26.8845 25.3772 30.6157C 24.3579 30.1214 22.9788 29.7288 21.5186 29.4599C 19.7789 29.1394 18.0535 29.0037 16.7929 29.3695C 15.6321 29.5371 14.7957 30.5198 13.9397 31.8301C 13.0692 33.1628 12.2147 34.9184 11.4042 36.856C 9.78326 40.7315 8.34724 45.3255 7.50705 48.5353C 7.43534 48.8094 7.53455 49.0998 7.75905 49.2729C 7.98356 49.446 8.28992 49.4684 8.53727 49.3298C 9.88227 48.5699 11.3 47.4774 12.6167 46.5934C 13.9335 45.7092 15.1815 45.0936 15.8372 45.0983C 16.7682 45.0983 17.0954 45.224 17.3646 45.3714C 17.5916 45.4957 17.891 45.7263 18.3424 45.9451C 18.4339 46.024 18.5442 46.0781 18.6627 46.1023C 20.2716 46.4238 22.0702 47.3597 23.7531 48.6375C 23.4049 49.0595 23.0479 49.4702 22.7091 49.898C 21.2851 48.7596 19.6572 47.7941 17.685 47.3326C 17.6389 47.3203 17.5917 47.3128 17.5441 47.31C 17.2537 47.3013 16.9875 47.4708 16.873 47.7375L 15.8427 50.1402C 15.7287 50.4074 15.79 50.7171 15.9974 50.9208L 19.4333 54.3054C 18.8902 55.0675 18.3265 55.8446 17.9032 56.4625C 16.358 55.3308 14.4191 54.6441 12.2908 54.7193L 12.2715 54.7193L 12.2494 54.7193C 10.1729 54.9146 8.43919 56.3891 6.9795 58.33C 5.51981 60.2712 4.30169 62.7341 3.30881 65.1655C 1.32306 70.0282 0.245757 74.7843 0.245757 74.7843L 0 75.8692L 1.0827 75.6402C 1.0827 75.6402 5.89185 74.6218 10.8132 72.6969C 13.2739 71.7345 15.767 70.547 17.7348 69.1108C 19.6998 67.6766 21.1954 65.9603 21.4055 63.8863C 21.6504 61.9107 21.0038 59.9107 19.7621 58.2839C 20.4126 57.8415 21.1296 57.3403 21.9302 56.7722L 25.1645 59.961C 25.384 60.1768 25.718 60.2259 25.9904 60.0825L 28.2414 58.8964C 28.5181 58.7498 28.6654 58.4389 28.6032 58.1323C 28.2463 56.3499 27.3823 54.8502 26.3218 53.5119C 26.7512 53.1743 27.1634 52.8188 27.5868 52.472C 28.8564 54.1466 29.7855 55.9368 30.1057 57.5364C 30.1281 57.6421 30.1744 57.7412 30.2411 57.8261C 30.4622 58.2966 30.6966 58.6012 30.8239 58.8357C 30.9712 59.1074 31.0911 59.4348 31.0973 60.3611C 31.1003 61.0164 30.4819 62.2611 29.5948 63.5748C 28.7076 64.8884 27.6124 66.3014 26.8493 67.6434C 26.7094 67.8901 26.7308 68.1965 26.9036 68.4214C 27.0765 68.6463 27.3672 68.7463 27.642 68.6751C 30.8574 67.8414 35.4616 66.4119 39.3446 64.7995C 41.2861 63.9934 43.0439 63.1455 44.3797 62.2782C 45.6936 61.4253 46.6823 60.5912 46.8517 59.4315C 47.2189 58.1731 47.084 56.4525 46.7661 54.7145C 46.497 53.2434 46.0996 51.8549 45.6005 50.8334C 49.3398 48.3536 53.0573 45.3687 56.4386 41.7773C 60.3752 37.5961 63.8458 32.6254 66.3542 26.843C 66.3872 26.7993 66.415 26.7519 66.437 26.7017C 66.6292 26.2556 66.7902 25.7913 66.9673 25.3363C 67.1118 24.9706 67.2588 24.6075 67.3954 24.2356C 67.4511 24.083 67.5175 23.9364 67.5722 23.7833C 67.5906 23.7306 67.6026 23.6759 67.6081 23.6204C 69.3978 18.5441 70.4626 12.905 70.4861 6.66413L 70.4861 6.66131C 70.4999 6.61634 70.5091 6.57012 70.5137 6.52332C 70.5196 6.45314 70.5149 6.38248 70.4999 6.31367C 70.4897 6.26725 70.4749 6.22197 70.4557 6.17851C 70.4272 6.1134 70.389 6.05295 70.3424 5.99922C 70.3117 5.9637 70.2774 5.93134 70.2402 5.90261C 70.2215 5.88882 70.2022 5.87595 70.1822 5.86406C 70.1617 5.85101 70.1405 5.83904 70.1187 5.82818C 70.098 5.81797 70.0768 5.80878 70.0552 5.80064C 70.0325 5.79303 70.0094 5.78657 69.9861 5.78129C 69.9409 5.76941 69.8947 5.76203 69.848 5.75926C 69.8315 5.75774 69.8149 5.75679 69.7983 5.75644L 69.7984 5.75702ZM 69.014 7.24659C 68.932 12.7076 68.0483 17.6865 66.5696 22.2113L 54.0274 9.68504C 58.558 8.2083 63.5461 7.32844 69.014 7.24659ZM 29.0009 8.07413C 28.746 8.07052 28.5088 8.20433 28.3802 8.4243C 28.2517 8.64427 28.2517 8.91632 28.3802 9.13629C 28.5088 9.35626 28.746 9.49006 29.0009 9.48646L 36.0717 9.48646L 38.8778 9.48646C 39.1328 9.49006 39.37 9.35626 39.4986 9.13629C 39.6271 8.91632 39.6271 8.64427 39.4986 8.4243C 39.37 8.20433 39.1328 8.07052 38.8778 8.07413L 36.0717 8.07413L 29.0009 8.07413ZM 24.7585 8.07413C 23.8023 8.06 23.8023 9.50002 24.7585 9.48646L 26.1727 9.48646C 27.1288 9.50059 27.1288 8.06042 26.1727 8.07413L 24.7585 8.07413ZM 29.7163 9.48646C 30.0881 9.50218 30.3842 9.8029 30.3937 10.1745C 30.4031 10.546 30.1228 10.8614 29.7522 10.896L 27.5758 10.896C 26.6196 10.8819 26.6196 12.3219 27.5758 12.3083L 37.4637 12.3083C 38.4199 12.3224 38.4199 10.8824 37.4637 10.896L 36.6959 10.896C 36.3257 10.8715 36.0374 10.5656 36.0352 10.1951C 36.033 9.82461 36.3177 9.51534 36.6875 9.48646L 33.967 9.48646C 34.3388 9.50218 34.6348 9.8029 34.6443 10.1745C 34.6538 10.546 34.3734 10.8614 34.0029 10.896L 32.4451 10.896C 32.0749 10.8715 31.7866 10.5656 31.7844 10.1951C 31.7822 9.82461 32.0669 9.51534 32.4368 9.48646L 29.7162 9.48646L 29.7163 9.48646ZM 52.547 10.2008L 66.0503 23.687C 65.8729 24.1751 65.6864 24.6555 65.4952 25.1325L 51.1024 10.7553C 51.5794 10.5646 52.0589 10.3778 52.547 10.2008ZM 49.6855 11.3373L 64.9152 26.5503C 62.5007 32.0556 59.184 36.7958 55.4084 40.806C 51.7306 44.7124 47.6385 47.9074 43.5649 50.4663C 41.4259 51.737 39.0131 53.0944 36.5799 54.273C 34.7145 55.1411 32.9036 55.8827 31.2078 56.4714C 30.7298 54.8089 29.8574 53.1366 28.675 51.5724C 30.505 50.0073 32.1792 48.3999 33.3345 46.8941C 34.034 45.9824 34.6205 44.6178 35.0801 43.4405C 35.5397 42.263 35.8452 41.2833 35.8452 41.2833C 35.9127 41.0663 35.8716 40.8302 35.7348 40.6487C 35.598 40.4673 35.3821 40.3626 35.1547 40.3675C 35.0892 40.3679 35.0242 40.3774 34.9613 40.3958C 34.9613 40.3958 33.9799 40.7031 32.8015 41.1625C 31.623 41.6218 30.2563 42.2088 29.3434 42.9059C 27.8365 44.057 26.2256 45.7235 24.6563 47.5457C 23.0824 46.3544 21.3975 45.4824 19.7234 45.0024C 20.3314 43.2552 21.096 41.3867 22.0021 39.4606C 23.2119 36.9818 24.6161 34.5118 25.9572 32.3244C 28.4839 28.3662 31.6045 24.4024 35.4088 20.8299C 39.4247 17.0586 44.1721 13.7468 49.6855 11.3352L 49.6855 11.3373ZM 30.4427 12.3111C 30.8145 12.3269 31.1106 12.6276 31.1201 12.9991C 31.1295 13.3707 30.8492 13.6861 30.4786 13.7207L 28.9899 13.7207C 28.0337 13.7065 28.0337 15.1465 28.9899 15.133L 33.2213 15.133C 34.1692 15.1471 34.1748 13.7348 33.2434 13.7235C 33.2406 13.7235 33.2378 13.7235 33.235 13.7235C 33.2298 13.7235 33.2265 13.7235 33.2212 13.7235L 33.1714 13.7235C 32.8013 13.699 32.5129 13.3931 32.5107 13.0226C 32.5086 12.6521 32.7933 12.3428 33.1631 12.314L 30.4425 12.314L 30.4427 12.3111ZM 36.0496 13.7235C 35.0934 13.7094 35.0934 15.1494 36.0496 15.1358C 37.0057 15.1499 37.0057 13.7098 36.0496 13.7235ZM 47.2688 14.0876C 47.1575 14.0914 47.0486 14.1214 46.9512 14.1751C 45.5855 14.9207 44.272 15.7187 43.0098 16.564C 41.7475 17.4094 40.538 18.3028 39.3778 19.2315C 38.2175 20.1599 37.1067 21.1243 36.0468 22.1195C 34.9869 23.115 33.9753 24.141 33.0141 25.1869C 33.0094 25.1924 33.0048 25.1981 33.0003 25.2038L 31.669 26.7568C 31.5047 26.9485 31.4552 27.2132 31.5393 27.4511C 31.6234 27.6891 31.8281 27.8642 32.0765 27.9104C 32.3249 27.9567 32.5791 27.8671 32.7434 27.6754L 34.0719 26.1224L 34.0581 26.145C 34.9967 25.1239 35.9824 24.1228 37.0162 23.152C 38.0499 22.1813 39.1314 21.2399 40.2615 20.3356C 41.3917 19.4312 42.569 18.5651 43.7969 17.7427C 45.0247 16.9204 46.3034 16.142 47.6305 15.4173C 47.9226 15.2627 48.0684 14.9266 47.9817 14.6081C 47.895 14.2895 47.5989 14.0734 47.2687 14.0877L 47.2688 14.0876ZM 24.4492 19.7893C 23.9048 19.7893 23.3607 19.9937 22.9494 20.4044C 22.127 21.2258 22.127 22.5787 22.9494 23.4001C 23.7719 24.2215 25.1265 24.2215 25.9489 23.4001C 26.7714 22.5787 26.7714 21.2258 25.9489 20.4044C 25.5377 19.9937 24.9935 19.7893 24.4492 19.7893ZM 50.3733 19.8034C 50.0053 19.8246 49.6351 19.884 49.2657 19.9828C 46.3104 20.7737 44.5435 23.828 45.3354 26.7797C 46.1273 29.7312 49.1856 31.4904 52.1409 30.6995C 55.0963 29.9086 56.8604 26.8569 56.0685 23.9053C 55.3756 21.3228 52.9488 19.6512 50.3733 19.8034ZM 24.4492 21.1966C 24.6287 21.1966 24.8081 21.2686 24.9491 21.409C 25.2312 21.6906 25.2312 22.1258 24.9491 22.4075C 24.6671 22.6891 24.2313 22.6891 23.9493 22.4075C 23.6672 22.1258 23.6672 21.6906 23.9493 21.409C 24.0903 21.2678 24.2697 21.1966 24.4492 21.1966ZM 50.4617 21.2135C 52.3876 21.0963 54.1815 22.3352 54.7013 24.2726C 55.2954 26.4871 53.9907 28.7438 51.7736 29.3372C 49.5565 29.9305 47.2939 28.6276 46.6998 26.4132C 46.1057 24.1989 47.4132 21.942 49.6303 21.3487C 49.9074 21.2738 50.1865 21.2301 50.4617 21.2131L 50.4617 21.2135ZM 30.8073 28.1152C 30.5988 28.1237 30.4048 28.2236 30.277 28.3883C 30.0609 28.6584 29.849 28.9305 29.639 29.202C 29.4765 29.4009 29.4349 29.6723 29.5304 29.9106C 29.6258 30.149 29.8433 30.3168 30.0983 30.349C 30.3533 30.3812 30.6058 30.2726 30.7576 30.0655C 30.9629 29.8001 31.1706 29.535 31.3818 29.2711C 31.5599 29.0561 31.5946 28.7567 31.4704 28.5068C 31.3462 28.2569 31.0864 28.1035 30.8073 28.1152ZM 29.0009 30.5372C 28.7672 30.5341 28.5469 30.6466 28.4126 30.8378C 28.2146 31.1116 28.0221 31.3853 27.8299 31.6599C 27.6762 31.8661 27.6469 32.1394 27.7532 32.3734C 27.8596 32.6075 28.0848 32.7653 28.3414 32.7856C 28.598 32.8058 28.8453 32.6853 28.9871 32.4708C 29.1751 32.2022 29.365 31.9335 29.5589 31.6654C 29.7177 31.4525 29.7436 31.1687 29.6259 30.9306C 29.5082 30.6926 29.2667 30.5406 29.0009 30.5372ZM 18.8561 30.5923C 19.5889 30.6149 20.436 30.7053 21.2618 30.8571C 22.6233 31.1078 23.7381 31.5302 24.5376 31.9053C 21.7945 36.2453 19.7784 40.5507 18.4336 44.3681C 18.3199 44.2947 18.2179 44.2339 18.0441 44.1392C 17.574 43.8818 16.9183 43.6968 15.8456 43.6923C 14.5013 43.6782 13.1981 44.5068 11.8269 45.4273C 11.0316 45.9612 10.2887 46.449 9.51507 46.9804C 10.3594 44.0161 11.3928 40.5565 12.7107 37.4057C 13.5018 35.5144 14.3352 33.8172 15.1247 32.6087C 15.9142 31.4002 16.7051 30.7861 17.0139 30.7495C 17.0551 30.7441 17.0958 30.7351 17.1354 30.7227C 17.5048 30.6097 18.1234 30.5669 18.8561 30.5899L 18.8561 30.5923ZM 20.0852 32.1149C 19.6143 32.1375 19.1764 32.2011 18.7788 32.3137C 18.1545 32.3998 17.6244 32.7463 17.1382 33.2239C 16.6414 33.7117 16.1716 34.3474 15.7047 35.0996C 15.698 35.1094 15.6916 35.1192 15.6854 35.1293L 14.5226 37.2588C 14.5177 37.2691 14.5131 37.2794 14.5087 37.2899C 14.3501 37.6133 14.1929 37.9485 14.0364 38.2912C 13.9256 38.5218 13.9483 38.7942 14.0958 39.0033C 14.2432 39.2124 14.4923 39.3256 14.747 39.2992C 15.0018 39.2728 15.2223 39.1109 15.3235 38.8759C 15.4706 38.5538 15.6174 38.2404 15.7654 37.9381L 15.7709 37.9212C 15.7736 37.9212 15.7766 37.9071 15.7793 37.9042L 16.92 35.8189C 17.344 35.1387 17.7615 34.5862 18.1297 34.2245C 18.5024 33.8585 18.8141 33.7092 18.9804 33.6894C 19.0225 33.6847 19.0641 33.6762 19.1047 33.664C 19.5772 33.5196 20.4739 33.4722 21.4718 33.5567C 21.7278 33.5861 21.9797 33.474 22.129 33.2642C 22.2784 33.0543 22.3015 32.7799 22.1895 32.5481C 22.0774 32.3162 21.8479 32.1636 21.5905 32.1498C 21.0602 32.106 20.5562 32.0863 20.0852 32.1089L 20.0852 32.1149ZM 62.7525 38.1532C 61.7712 38.0967 60.8395 38.7355 60.5761 39.7174C 60.275 40.8395 60.9523 42.0125 62.0758 42.313C 63.1994 42.6137 64.3738 41.9373 64.6749 40.8152C 64.9759 39.6931 64.2986 38.52 63.1751 38.2195C 63.0347 38.1813 62.8927 38.1616 62.7525 38.1531L 62.7525 38.1532ZM 62.526 39.5656C 62.6172 39.5515 62.7114 39.5656 62.8078 39.5854C 63.1931 39.6885 63.4109 40.0639 63.3077 40.4487C 63.2045 40.8334 62.8285 41.0511 62.4432 40.948C 62.0579 40.8449 61.84 40.4695 61.9433 40.0846C 62.0207 39.7961 62.2525 39.6017 62.526 39.566L 62.526 39.5656ZM 13.636 40.2662C 13.3525 40.2762 13.1025 40.4542 13.0007 40.7186C 12.8546 41.0838 12.7119 41.4547 12.5698 41.8276C 12.4657 42.0662 12.5014 42.3426 12.6628 42.547C 12.8241 42.7514 13.085 42.8506 13.3416 42.8051C 13.5981 42.7597 13.8089 42.577 13.8901 42.3297C 14.0296 41.9636 14.1724 41.6001 14.3154 41.2427C 14.4078 41.0205 14.3805 40.7666 14.243 40.569C 14.1055 40.3714 13.8767 40.2573 13.636 40.2662ZM 34.0084 42.2441C 33.8993 42.5511 33.9103 42.5582 33.7626 42.9364C 33.322 44.0653 32.709 45.3954 32.2104 46.0452C 30.2208 48.6383 26.2385 51.8857 22.7782 54.431C 21.0352 55.713 20.7246 55.8681 19.5549 56.6543C 20.3448 55.4887 20.4997 55.1798 21.7866 53.4435C 24.3428 49.9946 27.604 46.0243 30.2024 44.0399C 30.8542 43.542 32.1851 42.93 33.3152 42.4895C 33.6938 42.342 33.7011 42.354 34.0084 42.2441ZM 73.3392 48.8479C 73.0524 48.8491 72.7947 49.0233 72.6869 49.2887C 72.5792 49.5542 72.6426 49.8584 72.8476 50.0588L 73.3475 50.5581L 72.8476 51.0574C 72.6637 51.2346 72.5898 51.4973 72.6545 51.7443C 72.7192 51.9913 72.9123 52.1842 73.1596 52.2488C 73.407 52.3134 73.6699 52.2397 73.8475 52.056L 74.3474 51.5568L 74.8473 52.056C 75.0248 52.2397 75.2878 52.3134 75.5351 52.2488C 75.7824 52.1842 75.9755 51.9913 76.0402 51.7443C 76.1049 51.4973 76.0311 51.2346 75.8471 51.0574L 75.3472 50.5581L 75.8471 50.0588C 76.0552 49.8557 76.1174 49.5459 76.0039 49.2783C 75.8904 49.0107 75.6243 48.8399 75.3334 48.8479C 75.1499 48.853 74.9756 48.9292 74.8473 49.0603L 74.3474 49.5596L 73.8475 49.0603C 73.7138 48.9238 73.5304 48.8472 73.3392 48.8479ZM 17.906 48.9284C 19.3842 49.3726 20.6778 50.1054 21.8501 51.0304C 21.4458 51.557 21.0279 52.0882 20.6487 52.5999C 20.4921 52.8112 20.4105 52.9421 20.2592 53.1489L 17.3315 50.2663L 17.906 48.9284ZM 54.1517 49.4443C 53.1955 49.4302 53.1955 50.8702 54.1517 50.8567L 55.5658 50.8567C 56.522 50.8708 56.522 49.4306 55.5658 49.4443L 54.1517 49.4443ZM 58.3941 49.4443C 58.1391 49.4407 57.9019 49.5745 57.7734 49.7945C 57.6448 50.0145 57.6448 50.2865 57.7734 50.5065C 57.9019 50.7265 58.1391 50.8603 58.3941 50.8567L 65.4648 50.8567L 68.2738 50.8567C 68.5287 50.8603 68.7659 50.7265 68.8945 50.5065C 69.023 50.2865 69.023 50.0145 68.8945 49.7945C 68.7659 49.5745 68.5287 49.4407 68.2738 49.4443L 65.4648 49.4443L 58.3941 49.4443ZM 59.1122 50.8593C 59.4827 50.8841 59.7709 51.1908 59.7724 51.5616C 59.7738 51.9324 59.488 52.2413 59.1177 52.269L 56.9717 52.269C 56.0155 52.2549 56.0155 53.6949 56.9717 53.6813L 66.8596 53.6813C 67.8158 53.6955 67.8158 52.2554 66.8596 52.269L 66.0918 52.269C 65.7212 52.245 65.4323 51.9389 65.4301 51.5681C 65.4279 51.1972 65.7132 50.8877 66.0834 50.8593L 63.3629 50.8593C 63.7334 50.8834 64.0223 51.1894 64.0245 51.5603C 64.0267 51.9312 63.7415 52.2406 63.3712 52.269L 61.8411 52.269C 61.4705 52.245 61.1816 51.9389 61.1794 51.5681C 61.1772 51.1972 61.4625 50.8877 61.8327 50.8593L 59.1122 50.8593L 59.1122 50.8593ZM 44.3162 51.6758C 44.6929 52.4762 45.123 53.6024 45.3741 54.975C 45.6759 56.6251 45.7255 58.3559 45.4983 59.0934C 45.4863 59.134 45.478 59.1756 45.4735 59.2177C 45.4363 59.526 44.8205 60.3154 43.6091 61.1018C 42.3977 61.8883 40.6955 62.7175 38.8005 63.5043C 35.6424 64.8156 32.1781 65.841 29.2081 66.6794C 29.7415 65.9071 30.2325 65.1643 30.7686 64.3705C 31.6924 63.0026 32.5174 61.7043 32.5114 60.3624C 32.5044 59.2958 32.3213 58.6416 32.0668 58.1723C 31.9705 57.9948 31.9101 57.8892 31.8348 57.7723C 35.658 56.43 39.9683 54.4155 44.3162 51.676L 44.3162 51.6758ZM 59.8386 53.684C 60.2092 53.708 60.4981 54.0141 60.5003 54.385C 60.5025 54.7558 60.2172 55.0653 59.847 55.0937L 58.3859 55.0937C 57.4297 55.0795 57.4297 56.5196 58.3859 56.506L 62.6172 56.506C 63.5651 56.5201 63.5708 55.1078 62.6394 55.0964C 62.6366 55.0964 62.6338 55.0964 62.631 55.0964C 62.6258 55.0964 62.6225 55.0964 62.6171 55.0964L 62.5674 55.0964C 62.1969 55.0723 61.9079 54.7663 61.9057 54.3954C 61.9036 54.0245 62.1888 53.7151 62.5591 53.6867L 59.8385 53.6867L 59.8386 53.684ZM 25.1977 54.371C 26.049 55.4614 26.6877 56.6314 27.0399 57.9376L 25.7887 58.5968L 23.0958 55.9432C 23.2762 55.8118 23.4342 55.7032 23.6178 55.5681C 24.1324 55.1896 24.6681 54.7746 25.1977 54.371ZM 65.4455 55.0937C 64.4893 55.0795 64.4893 56.5196 65.4455 56.506C 66.4017 56.5201 66.4017 55.08 65.4455 55.0937ZM 12.3655 56.1474C 12.5401 56.1474 12.7105 56.1474 12.8819 56.1615C 12.2877 56.532 11.7783 57.0369 11.3711 57.6208C 10.6305 58.6828 10.1403 59.9839 9.79403 61.2536C 9.1015 63.7927 8.99306 66.2437 8.99306 66.2437L 8.95715 67.0079L 9.71946 66.9796C 9.71946 66.9796 12.2043 66.9076 14.7794 66.2542C 16.067 65.9273 17.3896 65.4597 18.4695 64.7343C 19.1144 64.301 19.6569 63.7404 20.0383 63.0792C 20.0388 63.2962 20.0294 63.5129 20.0024 63.7274L 20.0024 63.7416L 20.0024 63.7557C 19.8563 65.2242 18.706 66.6695 16.9007 67.9872C 15.0953 69.3049 12.6905 70.4605 10.2967 71.3967C 6.12633 73.0278 3.00669 73.6805 2.0135 73.9042C 2.25051 72.9188 2.93938 69.84 4.62082 65.7225C 5.58659 63.3575 6.76959 60.9828 8.10922 59.2015C 9.44362 57.4271 10.9003 56.3045 12.3655 56.1589L 12.3655 56.1447L 12.3655 56.1474ZM 14.6441 56.9969C 15.5503 56.9715 16.373 57.2459 17.0719 57.6811C 16.6396 58.3305 16.1604 59.0575 16.1604 59.0575C 15.9819 59.3366 16.0214 59.7021 16.2555 59.9366C 16.4897 60.1711 16.8555 60.2116 17.1354 60.034C 17.1354 60.034 17.8677 59.5534 18.544 59.1073C 19.0106 59.8379 19.241 60.6697 19.1434 61.4464L 19.1434 61.4605L 19.1434 61.4746C 19.0579 62.3335 18.5436 62.9934 17.6795 63.5739C 16.8154 64.1544 15.6252 64.5947 14.4314 64.898C 12.478 65.394 11.1835 65.42 10.5425 65.4551C 10.5879 64.8178 10.6351 63.5509 11.1585 61.6319C 11.4792 60.4559 11.9381 59.2853 12.5312 58.4348C 13.1211 57.5888 13.7891 57.0911 14.6441 57.006L 14.6441 56.9918L 14.6441 56.9969ZM 57.4633 62.5111C 57.2139 62.5207 56.988 62.6609 56.869 62.88C 56.75 63.0991 56.7554 63.3647 56.8833 63.5787L 57.2341 64.1856L 56.6237 64.5387C 56.285 64.7337 56.1688 65.1659 56.364 65.5042C 56.5593 65.8424 56.9921 65.9585 57.3307 65.7635L 57.9411 65.4104L 58.2974 66.0254C 58.4229 66.247 58.6577 66.3841 58.9125 66.3847C 59.1673 66.3853 59.4028 66.2492 59.5293 66.0282C 59.6557 65.8073 59.6536 65.5356 59.5238 65.3166L 59.1702 64.7042L 59.7806 64.3511C 60.0594 64.1973 60.2008 63.8763 60.126 63.5671C 60.0512 63.2579 59.7786 63.0368 59.4602 63.0271C 59.3248 63.0214 59.1906 63.0547 59.0736 63.1231L 58.4604 63.4762L 58.1096 62.8693C 57.9796 62.6368 57.7297 62.497 57.4633 62.5079L 57.4633 62.5111Z"/>
<path id="path5_fill" fill-rule="evenodd" d="M 41.1183 0.00262935C 40.0886 0.00262935 39.2405 0.850929 39.2405 1.88073C 39.2405 1.98427 39.2559 2.08236 39.2723 2.18152L 30.409 7.64955C 29.8945 7.26491 29.1767 7.19567 28.5899 7.53436C 28.4062 7.64078 28.2526 7.77976 28.1278 7.9379L 20.0005 6.56839C 19.965 6.35353 19.895 6.14081 19.7804 5.94236C 19.2648 5.04913 18.1037 4.73962 17.2107 5.25522C 16.4361 5.70246 16.1015 6.634 16.3622 7.4561L 9.35229 11.4617C 9.03457 11.2609 8.66225 11.1413 8.2618 11.1413C 7.13078 11.1413 6.20058 12.0716 6.20063 13.2028C 6.20065 13.6382 6.34072 14.0423 6.57472 14.3766L 1.62351 22.564C 0.713162 22.691 0 23.475 0 24.418C 0 25.3241 0.656752 26.0885 1.51593 26.2594L 7.17376 33.1457C 7.07978 33.3523 7.02219 33.5783 7.02217 33.8182C 7.02215 34.2493 7.19931 34.6378 7.4745 34.9333L 3.53798 42.1987C 3.48628 42.1987 3.43653 42.1837 3.38394 42.1837C 2.18143 42.1837 1.19318 43.172 1.19318 44.3748C 1.19318 45.5775 2.18143 46.5659 3.38394 46.5659C 3.86714 46.5659 4.31113 46.3996 4.67493 46.1307L 15.707 48.7301C 15.9523 49.8541 16.9583 50.7061 18.152 50.7061C 19.0512 50.7061 19.8375 50.2189 20.2792 49.5005L 35.7734 51.8848C 36.0136 52.6458 36.7202 53.2102 37.5559 53.2102C 38.3897 53.2102 39.0941 52.6481 39.3359 51.8897L 55.2238 49.6203C 55.5593 50.6088 56.4888 51.3321 57.5857 51.3321C 58.8335 51.3321 59.8674 50.3993 60.0503 49.1996L 70.7156 46.2187C 71.0424 46.4371 71.4335 46.5659 71.8525 46.5659C 72.9835 46.5659 73.9137 45.6355 73.9137 44.5044C 73.9137 43.3731 72.9836 42.4428 71.8525 42.4428C 71.8458 42.4428 71.8397 42.4428 71.833 42.4428L 69.1165 34.9695C 69.4122 34.6706 69.5982 34.2638 69.5982 33.8154C 69.5982 33.4166 69.435 33.0604 69.1948 32.7735L 73.3978 23.2681C 74.513 23.2493 75.4248 22.3286 75.4247 21.209C 75.4248 20.1348 74.583 19.2518 73.5298 19.1647L 71.2999 8.16265C 71.5177 7.89358 71.6691 7.56804 71.6691 7.19918C 71.6691 6.34227 70.9611 5.6341 70.1043 5.6341C 69.433 5.6341 68.8594 6.07044 68.6397 6.67093L 55.8204 6.62711C 55.6936 5.71673 54.9122 5.00343 53.9695 5.00343C 53.2258 5.00343 52.5831 5.44804 52.2799 6.08184L 42.9594 2.22046C 42.9806 2.10903 42.9961 1.99592 42.9961 1.8781C 42.9961 0.8483 42.148 2.98708e-09 41.1183 2.98708e-09L 41.1183 0.00262935ZM 41.1183 1.2547C 41.4714 1.2547 41.7443 1.52765 41.7442 1.88073C 41.7442 2.23399 41.4714 2.50681 41.1183 2.50681C 40.7652 2.50681 40.4924 2.23399 40.4924 1.88073C 40.4924 1.52765 40.7652 1.2547 41.1183 1.2547ZM 39.8811 3.27708C 40.2132 3.57182 40.6441 3.75888 41.1183 3.75888C 41.5734 3.75888 41.9873 3.58522 42.3139 3.31126L 52.1724 7.39525C 52.3868 8.13548 53.0437 8.68926 53.835 8.74748L 55.8595 14.1373C 55.7188 14.2399 55.5954 14.362 55.4878 14.4992L 44.38 10.6427C 44.3809 10.6177 44.3874 10.5952 44.3874 10.5689C 44.3874 9.36613 43.3991 8.37775 42.1966 8.37775C 41.1857 8.37775 40.3348 9.07903 40.0866 10.0162L 31.0399 8.92315C 31.0387 8.85679 31.0541 8.79156 31.0448 8.72507L 39.8812 3.27658L 39.8811 3.27708ZM 18.0762 6.25813C 18.3199 6.22557 18.5643 6.33826 18.6973 6.56864C 18.8746 6.87577 18.7721 7.25202 18.465 7.42944C 18.1579 7.60673 17.7841 7.50706 17.6068 7.19956C 17.4294 6.89242 17.5295 6.51856 17.8366 6.34126C 17.9134 6.29619 17.995 6.26864 18.0762 6.25863L 18.0762 6.25813ZM 53.9695 6.25813C 54.3226 6.25813 54.5954 6.53108 54.5954 6.88416C 54.5954 7.23737 54.3226 7.51019 53.9695 7.51019C 53.6164 7.51019 53.3435 7.23737 53.3435 6.88416C 53.3435 6.53108 53.6164 6.25813 53.9695 6.25813ZM 70.1043 6.88904C 70.2846 6.88904 70.4173 7.02176 70.4173 7.20206C 70.4173 7.38236 70.2846 7.51508 70.1043 7.51508C 69.9241 7.51508 69.7914 7.38236 69.7914 7.20206C 69.7914 7.02176 69.9241 6.88904 70.1043 6.88904ZM 19.7804 7.80355L 27.7806 9.15103C 27.7955 9.288 27.828 9.42235 27.8784 9.55457L 18.3109 15.6779C 17.9655 15.28 17.4629 15.0226 16.9002 15.0226C 16.3057 15.0226 15.7783 15.3092 15.4331 15.7464L 10.3156 13.2887C 10.3169 13.2599 10.323 13.2324 10.323 13.2036C 10.323 12.9333 10.2653 12.6757 10.169 12.4382L 17.1374 8.45701C 17.7117 8.82323 18.4652 8.87457 19.091 8.51335C 19.3918 8.33969 19.6208 8.08952 19.7805 7.80418L 19.7804 7.80355ZM 55.5514 7.87993L 68.6495 7.92626L 58.3706 14.4262C 58.0471 14.0537 57.5848 13.8105 57.0649 13.7807L 55.0477 8.41293C 55.2489 8.26995 55.419 8.08852 55.5514 7.8798L 55.5514 7.87993ZM 29.3674 8.56706C 29.5222 8.54578 29.6756 8.61715 29.7611 8.76514C 29.8751 8.96259 29.8118 9.1966 29.6144 9.31054C 29.417 9.42448 29.1831 9.36187 29.0691 9.1638C 28.9552 8.96635 29.0184 8.73484 29.2158 8.6209C 29.2652 8.5921 29.3159 8.57457 29.3674 8.56706ZM 69.7425 8.71869C 69.8593 8.74749 69.9794 8.76752 70.1043 8.76752C 70.1177 8.76752 70.1301 8.76752 70.1434 8.76752L 72.3122 19.454C 71.9312 19.6835 71.6291 20.0292 71.4589 20.4444L 62.2582 25.8537L 59.5686 21.1952C 59.5265 21.1218 59.4699 21.0577 59.4024 21.0068L 58.2972 16.9597C 58.6293 16.615 58.8376 16.156 58.8376 15.6486C 58.8376 15.6361 58.8353 15.6261 58.8351 15.6148L 69.7424 8.71869L 69.7425 8.71869ZM 42.1966 9.63082C 42.7225 9.63082 43.1355 10.0439 43.1355 10.5699C 43.1355 11.0959 42.7225 11.5089 42.1966 11.5089C 41.6706 11.5089 41.2577 11.0959 41.2577 10.5699C 41.2577 10.0439 41.6706 9.63082 42.1966 9.63082ZM 30.876 10.1663L 40.1379 11.2864C 40.4386 12.1387 41.2464 12.761 42.1966 12.761C 42.9296 12.761 43.5781 12.3885 43.9766 11.8293L 54.8008 15.5879L 39.0889 19.3221C 38.6631 18.9874 38.1353 18.7793 37.5559 18.7793C 37.1507 18.7793 36.7734 18.8845 36.4336 19.058L 30.876 10.1663ZM 28.788 10.4598C 29.0666 10.575 29.3636 10.6374 29.6657 10.5919L 35.4776 19.8919C 35.3238 20.1206 35.2145 20.3797 35.1426 20.6524L 35.0986 20.6524L 18.751 17.1481C 18.7624 17.0655 18.7779 16.9845 18.7779 16.8987C 18.7779 16.8862 18.7757 16.8761 18.7754 16.8649L 28.7879 10.4578L 28.788 10.4598ZM 8.26181 12.3941C 8.48004 12.3941 8.6728 12.4768 8.81683 12.6119L 9.02711 12.9835C 9.04676 13.0548 9.07112 13.1256 9.07112 13.2036C 9.0711 13.6581 8.71622 14.013 8.26181 14.013C 7.80739 14.013 7.45252 13.6581 7.4525 13.2036C 7.45248 12.7491 7.80736 12.3941 8.26181 12.3941L 8.26181 12.3941ZM 9.87554 14.4654L 15.0272 16.9379C 15.0421 17.6717 15.4842 18.3058 16.1153 18.6007L 15.7632 20.8945C 15.5989 20.9364 15.4586 21.0432 15.3744 21.1904L 10.367 29.8645C 10.2838 30.0084 10.2613 30.1795 10.3044 30.3401C 10.3476 30.5006 10.4527 30.6375 10.5968 30.7204L 10.7117 30.7867L 9.27895 32.2882C 9.09066 32.2131 8.88633 32.168 8.67258 32.168C 8.46419 32.168 8.26524 32.2106 8.08088 32.2832L 2.90961 25.9813C 3.41705 25.6427 3.75559 25.0674 3.75559 24.418C 3.75559 23.7693 3.41848 23.1933 2.91205 22.8553L 7.57719 15.1375C 7.79258 15.2152 8.02123 15.2646 8.26181 15.2646C 8.91657 15.2646 9.4969 14.9471 9.87554 14.4649L 9.87554 14.4654ZM 56.9598 15.0226C 57.3129 15.0226 57.5857 15.2955 57.5857 15.6486C 57.5857 16.0018 57.3129 16.2747 56.9598 16.2747C 56.6067 16.2747 56.3338 16.0018 56.3338 15.6486C 56.3338 15.2955 56.6067 15.0226 56.9598 15.0226ZM 16.9002 16.2747C 17.2533 16.2747 17.5261 16.5476 17.5261 16.9007C 17.5261 17.2539 17.2533 17.5267 16.9002 17.5267C 16.547 17.5267 16.2742 17.2539 16.2742 16.9007C 16.2742 16.5476 16.547 16.2747 16.9002 16.2747ZM 55.4292 16.7245C 55.7706 17.2068 56.3299 17.5267 56.9598 17.5267C 57.0249 17.5267 57.0869 17.5142 57.1505 17.5067L 58.1774 21.2703L 56.2556 22.3781C 56.2514 22.3822 56.2474 22.3864 56.2433 22.3906L 50.4901 25.7116L 39.9398 22.0091C 40.0104 21.7787 40.0596 21.5402 40.0596 21.2878C 40.0596 20.9833 39.9967 20.6927 39.8957 20.422L 55.4291 16.7294L 55.4292 16.7245ZM 18.1349 18.2994L 35.0057 21.9138L 35.1402 21.9013C 35.3299 22.63 35.8384 23.2311 36.5094 23.5447L 33.7587 30.8835C 33.3423 30.9824 32.9426 31.1347 32.5656 31.3408L 30.8222 30.3309L 30.92 30.1621C 31.0032 30.0181 31.0257 29.847 30.9826 29.6864C 30.9395 29.5259 30.8343 29.3891 30.6902 29.3062L 29.2061 28.4502L 28.4408 28.0076L 16.9539 21.3756L 17.3647 18.7101C 17.6547 18.6349 17.916 18.4904 18.1349 18.2967L 18.1349 18.2994ZM 37.5559 20.0309C 38.2547 20.0309 38.8077 20.584 38.8077 21.2829C 38.8077 21.9818 38.2547 22.535 37.5559 22.535C 37.5533 22.535 37.5513 22.535 37.5485 22.535L 36.969 22.3198L 36.9519 22.3636C 36.5695 22.1487 36.304 21.7575 36.304 21.2829C 36.304 20.584 36.8571 20.0309 37.5559 20.0309ZM 73.3636 20.4025C 73.818 20.4025 74.1729 20.7574 74.1729 21.2119C 74.1729 21.6664 73.818 22.0214 73.3636 22.0214C 72.9091 22.0214 72.5542 21.6664 72.5543 21.2119C 72.5542 20.7574 72.9091 20.4025 73.3636 20.4025ZM 71.4344 21.9065C 71.5818 22.31 71.845 22.6593 72.1924 22.9017L 68.0896 32.1822C 68.0412 32.1822 67.9948 32.1671 67.9454 32.1671C 67.4994 32.1671 67.0946 32.3493 66.7962 32.6415L 63.0675 31.8469L 64.515 31.0129C 64.659 30.9299 64.7642 30.7931 64.8073 30.6326C 64.8504 30.472 64.8279 30.3009 64.7448 30.1569L 62.8841 26.9339L 71.4344 21.9061L 71.4344 21.9065ZM 16.1471 22.3564L 27.2745 28.783L 23.2866 35.6938C 23.1641 35.7919 23.083 35.9325 23.0592 36.0876L 22.893 36.3737L 11.7656 29.9471L 16.1471 22.3564ZM 58.7984 22.3564L 63.3487 30.2382L 52.2628 36.6403L 47.7126 28.7563L 58.7984 22.3564ZM 39.2699 23.0925L 49.0598 26.5308L 44.2553 29.304C 44.1116 29.3874 44.007 29.5243 43.9643 29.6849C 43.9217 29.8454 43.9446 30.0163 44.0279 30.1599L 44.1257 30.3311L 42.3849 31.3338C 41.9055 31.0676 41.389 30.8727 40.8518 30.781L 40.8493 30.781C 40.3938 30.7033 39.9275 30.6921 39.463 30.7497C 39.1533 30.7872 38.8462 30.8536 38.5436 30.955C 38.2411 31.0564 37.943 31.1904 37.6561 31.356C 37.6552 31.356 37.6544 31.356 37.6536 31.356L 37.48 31.4562L 37.277 31.346C 36.6992 31.0319 36.0841 30.8431 35.4653 30.7713C 35.357 30.7588 35.2484 30.7588 35.1401 30.7563L 37.7636 23.7624C 38.3435 23.7136 38.8684 23.4723 39.2698 23.0923L 39.2699 23.0925ZM 1.87779 23.7919C 2.2309 23.7919 2.50373 24.0649 2.50373 24.418C 2.50373 24.7712 2.2309 25.044 1.87779 25.044C 1.52469 25.044 1.25186 24.7712 1.25186 24.418C 1.25186 24.0649 1.52469 23.7919 1.87779 23.7919ZM 46.627 29.3847L 49.4681 34.3048C 49.2704 34.5057 49.2313 34.8141 49.3728 35.058C 49.5138 35.3 49.7984 35.4188 50.0696 35.349L 50.4168 35.9481L 49.2114 36.6426L 48.72 35.7916C 48.6923 35.7015 48.6447 35.6187 48.5806 35.5496L 45.424 30.0791L 46.627 29.3847ZM 28.3576 29.4085L 28.5801 29.538L 29.5215 30.0809L 25.7341 36.6445L 24.5678 35.972L 24.9468 35.3166C 25.2377 35.4427 25.5769 35.3314 25.7365 35.0574C 25.8962 34.7819 25.8236 34.4304 25.5678 34.2407L 28.3576 29.4085ZM 44.7517 31.4161L 47.2554 35.7519L 45.9644 36.4978C 45.8713 36.1588 45.7472 35.8269 45.5756 35.5049C 45.5595 35.4524 45.5364 35.4023 45.5072 35.3558L 44.2235 33.1303C 44.0121 32.7641 43.7522 32.4447 43.468 32.1571L 44.7517 31.4161L 44.7517 31.4161ZM 30.1963 31.4161L 31.4775 32.1571C 31.1943 32.4426 30.9361 32.7612 30.7244 33.1278L 29.4383 35.3533C 29.2265 35.7202 29.0856 36.1046 28.9787 36.4953L 27.6926 35.7518L 30.1963 31.4161ZM 11.8242 31.4287L 22.8074 37.7696C 22.9513 37.8528 23.1224 37.8753 23.2829 37.8322C 23.4435 37.7891 23.5802 37.6838 23.6631 37.5397L 23.9419 37.0556L 24.9468 37.6352L 18.4528 45.7271C 18.3532 45.7146 18.2547 45.6983 18.152 45.6983C 18.0561 45.6983 17.9641 45.7146 17.8708 45.7246L 10.1054 34.5857C 10.2325 34.3524 10.323 34.0998 10.323 33.8179C 10.323 33.583 10.269 33.3607 10.1787 33.1575L 11.8242 31.4287ZM 40.309 31.9691C 41.4442 32.0492 42.5164 32.6801 43.1379 33.7566L 44.424 35.9821C 44.6979 36.4565 44.8394 36.962 44.8837 37.4689C 44.8818 37.5189 44.8859 37.569 44.896 37.618C 44.9062 37.8443 44.8942 38.0689 44.8617 38.2905C 44.7956 38.2379 44.7292 38.1853 44.6539 38.1414L 40.3702 35.6665C 40.3848 35.3702 40.3285 35.0721 40.1966 34.7911C 40.1929 34.778 40.1888 34.7651 40.1843 34.7523C 40.177 34.734 40.1689 34.716 40.1599 34.6984C 40.151 34.68 40.1412 34.6621 40.1305 34.6446C 40.1281 34.6404 40.1256 34.6362 40.1231 34.6321C 40.1169 34.6196 40.1076 34.6133 40.1011 34.602C 40.0897 34.5852 40.0775 34.5689 40.0645 34.5532C 40.0583 34.5407 40.0512 34.5357 40.0449 34.5257C 39.9976 34.4555 39.9533 34.3837 39.8982 34.3227C 39.73 34.1366 39.5255 33.99 39.304 33.8875L 39.3015 33.8875C 38.745 33.6307 38.068 33.6449 37.4995 33.9726C 37.4912 33.9783 37.4831 33.9841 37.4751 33.9901L 37.4482 34.0077L 35.0863 35.3722C 35.0544 35.3899 35.0241 35.4105 34.9958 35.4335L 34.9494 35.4611C 34.4918 35.7253 33.9561 35.5637 33.497 35.2164L 34.7904 34.4682L 36.2623 33.6171C 36.2665 33.613 36.2706 33.6089 36.2746 33.6046L 37.8101 32.7194C 37.8109 32.7194 37.8118 32.7194 37.8126 32.7194C 37.8302 32.7098 37.8473 32.6994 37.864 32.6881L 38.2821 32.4461C 38.9235 32.0756 39.6279 31.9259 40.309 31.9741L 40.309 31.9691ZM 34.6292 31.9891C 35.1345 31.9553 35.6521 32.0392 36.1549 32.2239L 35.6488 32.5173C 35.6303 32.5269 35.6124 32.5373 35.595 32.5486L 34.1646 33.3753C 34.1638 33.3752 34.1629 33.3752 34.1621 33.3753L 32.1303 34.5514C 32.0757 34.5831 32.0263 34.6227 31.9836 34.6691C 31.9698 34.6839 31.9567 34.6994 31.9445 34.7155C 31.9323 34.7312 31.9209 34.7475 31.9102 34.7643C 31.8996 34.7817 31.8898 34.7997 31.8809 34.8181C 31.8625 34.855 31.8477 34.8936 31.8369 34.9333C 31.8318 34.9527 31.8277 34.9724 31.8246 34.9922C 31.819 35.0328 31.8173 35.0739 31.8197 35.1149C 31.8212 35.1354 31.8236 35.1559 31.8271 35.1762C 31.8302 35.196 31.8343 35.2157 31.8394 35.2351C 31.845 35.2542 31.8515 35.273 31.8589 35.2914C 31.871 35.3234 31.8858 35.3544 31.903 35.3841C 31.9978 35.5483 32.1058 35.6995 32.2257 35.8388C 33.0652 36.8154 34.4601 37.1577 35.5754 36.5137L 37.9471 35.1418C 37.9798 35.1241 38.0109 35.1036 38.04 35.0804L 38.0498 35.0804C 38.0506 35.0804 38.0514 35.0804 38.0523 35.0804L 38.1256 35.0391C 38.4123 34.8736 38.7143 34.9189 38.9129 35.098C 38.694 35.1907 38.5463 35.3994 38.5318 35.6368C 38.5173 35.8742 38.6384 36.0993 38.8445 36.2181L 39.3457 36.5065C 39.3623 36.5178 39.3794 36.5282 39.3971 36.5378L 44.028 39.2108C 44.263 39.3464 44.3348 39.6164 44.1991 39.8514C 44.0637 40.0857 43.7928 40.1579 43.5585 40.0226L 38.4068 37.0489L 37.8665 36.7359C 37.6725 36.6241 37.4337 36.6242 37.2399 36.7363C 37.0461 36.8483 36.9268 37.0553 36.9269 37.2792C 36.9271 37.5031 37.0466 37.7099 37.2405 37.8217L 37.7809 38.1347L 42.9326 41.1084L 43.4363 41.4019C 43.489 41.474 43.5565 41.534 43.6343 41.5779C 43.7273 41.7186 43.7389 41.8978 43.6441 42.0621C 43.5085 42.2972 43.2386 42.369 43.0035 42.2332L 42.4656 41.9227L 42.4631 41.9227L 37.3114 38.9491L 36.771 38.6361C 36.4712 38.4632 36.0881 38.5661 35.9152 38.8659C 35.7424 39.1658 35.8453 39.549 36.1451 39.7218L 36.6854 40.0324L 41.8371 43.0085C 42.0721 43.1441 42.1439 43.4143 42.0083 43.6492C 41.8727 43.8845 41.6026 43.9561 41.3677 43.8204L 40.2821 43.1943L 35.6756 40.5337L 34.59 39.9077C 34.2925 39.7505 33.924 39.8567 33.7557 40.1481C 33.5874 40.4394 33.6794 40.8117 33.9641 40.9911L 35.0497 41.6195L 39.6562 44.2777C 39.8912 44.4133 39.9629 44.6834 39.8273 44.9184C 39.6918 45.1534 39.4216 45.2252 39.1867 45.0896L 33.8369 42.001L 33.8272 41.9885C 33.8247 41.9885 33.8223 41.9885 33.8198 41.9885L 33.4946 41.8027L 31.8124 40.8294C 30.1019 39.8417 29.5295 37.6879 30.5239 35.9654L 31.8075 33.74C 32.429 32.6635 33.4917 32.0486 34.6291 31.9719L 34.6292 31.9891ZM 61.4513 32.7814L 66.2949 33.8159C 66.2949 34.1535 66.4233 34.4504 66.6006 34.7133L 57.8204 46.3438C 57.7422 46.3313 57.6658 46.3225 57.5857 46.3225C 57.0948 46.3225 56.6386 46.4687 56.2507 46.7161L 46.0426 38.7758C 46.1087 38.466 46.1509 38.1505 46.1551 37.8319L 47.8813 36.8366L 48.4412 37.8074C 48.5241 37.9515 48.6609 38.0567 48.8214 38.0999C 48.982 38.143 49.1531 38.1205 49.297 38.0373L 51.0428 37.0298L 51.4926 37.8074C 51.6652 38.1061 52.0468 38.2089 52.346 38.0373L 61.4513 32.7795L 61.4513 32.7814ZM 8.67257 33.4197C 8.9005 33.4197 9.0711 33.5905 9.07112 33.8184C 9.07113 34.0464 8.90052 34.2169 8.67257 34.2169C 8.44462 34.2169 8.27402 34.0464 8.27403 33.8184C 8.27405 33.5905 8.44465 33.4197 8.67257 33.4197ZM 67.9454 33.4197C 68.1733 33.4197 68.3463 33.5905 68.3463 33.8184C 68.3463 34.0464 68.1733 34.2169 67.9454 34.2169C 67.7174 34.2169 67.5468 34.0464 67.5468 33.8184C 67.5468 33.5905 67.7174 33.4197 67.9454 33.4197ZM 9.13958 35.3907L 16.6728 46.1947C 16.2515 46.507 15.9368 46.9469 15.7754 47.4566L 5.46223 45.0282C 5.52863 44.82 5.5747 44.6044 5.5747 44.3753C 5.5747 43.6764 5.23452 43.056 4.71894 42.6537L 8.61389 35.4617C 8.63387 35.4624 8.65243 35.4742 8.67257 35.4742C 8.83559 35.4742 8.9903 35.4417 9.13958 35.3966L 9.13958 35.3907ZM 67.6275 35.4345C 67.7308 35.4546 67.8364 35.4683 67.9454 35.4683C 67.9512 35.4683 67.9566 35.4683 67.9625 35.4683L 70.6471 42.8438C 70.1319 43.22 69.7913 43.8256 69.7914 44.5066C 69.7914 44.7319 69.8382 44.9438 69.9063 45.1473L 59.9183 47.94C 59.7419 47.4817 59.4353 47.0896 59.0429 46.8054L 67.6275 35.4365L 67.6275 35.4345ZM 27.0642 36.8406L 28.81 37.8458C 28.8303 39.0555 29.3029 40.2228 30.1621 41.1079C 29.9284 41.6036 29.9247 42.2003 30.2159 42.7048C 30.5385 43.2638 31.1358 43.4521 31.744 43.4409C 31.7452 43.7296 31.701 44.0243 31.854 44.2895C 32.2799 45.0281 33.1807 45.2483 33.9543 44.9522C 33.9849 45.1589 33.9227 45.3707 34.0326 45.5611C 34.5039 46.3782 35.5685 46.6608 36.3847 46.1895L 36.93 45.8741L 36.93 49.5692C 36.4283 49.7498 36.0222 50.1342 35.8199 50.6256L 20.646 48.2902C 20.647 48.2602 20.6557 48.2326 20.6557 48.2026C 20.6557 47.3966 20.2628 46.6808 19.6655 46.2217L 26.2011 38.076C 26.3284 38.0237 26.435 37.9308 26.5043 37.8118L 27.0642 36.841L 27.0642 36.8406ZM 45.5879 40.0123L 55.3974 47.6422C 55.2744 47.8675 55.1773 48.1088 55.1284 48.3685L 39.2943 50.6305C 39.0927 50.1368 38.6852 49.7504 38.1818 49.5692L 38.1818 45.9695L 38.5608 46.1895C 39.377 46.6609 40.4416 46.3783 40.9129 45.5611C 41.0228 45.3707 40.9606 45.1589 40.9912 44.9522C 41.7652 45.2496 42.6653 45.0286 43.0915 44.2895C 43.2446 44.0243 43.2003 43.7296 43.2015 43.4409C 43.8098 43.4534 44.4071 43.2641 44.7296 42.7048C 45.0149 42.2108 44.9332 41.6787 44.6954 41.2009C 45.0583 40.8475 45.3582 40.4491 45.5879 40.0123L 45.5879 40.0123ZM 31.2843 41.9883L 31.8149 42.294C 31.6154 42.3466 31.4135 42.2727 31.3015 42.0787C 31.2844 42.0487 31.2947 42.0186 31.2844 41.9886L 31.2843 41.9883ZM 33.0961 43.0374L 33.1939 43.0938C 33.1956 43.0938 33.1972 43.0938 33.1988 43.0938L 34.0326 43.5755L 33.5802 43.8371C 33.3454 43.9729 33.0728 43.901 32.9372 43.666C 32.8047 43.4365 32.8737 43.1759 33.0961 43.0376L 33.0961 43.0374ZM 3.38394 43.436C 3.90989 43.436 4.32284 43.849 4.32284 44.375C 4.32284 44.901 3.90989 45.3141 3.38394 45.3141C 2.85799 45.3141 2.44504 44.901 2.44504 44.375C 2.44504 43.849 2.85799 43.436 3.38394 43.436ZM 71.8525 43.6952C 72.307 43.6952 72.6619 44.0501 72.6618 44.5046C 72.6618 44.9591 72.3069 45.3141 71.8525 45.3141C 71.3981 45.3141 71.0432 44.9591 71.0432 44.5046C 71.0432 44.0501 71.3981 43.6952 71.8525 43.6952ZM 35.2844 44.2993L 36.2209 44.8397L 35.7588 45.1062C 35.5237 45.242 35.2538 45.1701 35.1182 44.9351C 34.9838 44.7022 35.0545 44.436 35.2844 44.2993ZM 18.152 46.9503C 18.8508 46.9503 19.4039 47.5034 19.4039 48.2023C 19.4039 48.9012 18.8508 49.4544 18.152 49.4544C 17.4532 49.4544 16.9002 48.9012 16.9002 48.2023C 16.9002 47.5034 17.4532 46.9503 18.152 46.9503ZM 57.5857 47.5763C 58.2845 47.5763 58.8376 48.1295 58.8376 48.8284C 58.8376 49.5273 58.2845 50.0804 57.5857 50.0804C 56.8869 50.0804 56.3338 49.5273 56.3338 48.8284C 56.3338 48.1295 56.8869 47.5763 57.5857 47.5763ZM 37.5559 50.7065C 37.909 50.7065 38.1818 50.9794 38.1818 51.3325C 38.1818 51.6857 37.909 51.9585 37.5559 51.9585C 37.2028 51.9585 36.93 51.6857 36.93 51.3325C 36.93 50.9794 37.2028 50.7065 37.5559 50.7065Z"/>
</defs>
</svg>
