<svg width="63" height="63" viewBox="0 0 63 63" version="1.1" xmlns="http://www.w3.org/2000/svg" xmlns:xlink="http://www.w3.org/1999/xlink">
<title>Group</title>
<desc>Created using Figma</desc>
<g id="Canvas" transform="translate(250 143)">
<g id="Group">
<g id="Vector">
<use xlink:href="#path0_fill" transform="translate(-250 -143)" fill="#F59623"/>
</g>
</g>
</g>
<defs>
<path id="path0_fill" d="M 0.00705414 30.3219C -0.31948 16.7886 10.7174 2.31393 27.4919 0.263433C 37.5211 -0.957546 46.3469 2.0716 53.6146 9.2297C 54.874 10.4693 54.8367 10.7023 53.1667 11.3641C 45.5445 14.3839 37.913 17.3851 30.2907 20.3956C 28.5927 21.0667 26.8948 21.7377 25.1968 22.4275C 24.2638 22.8096 23.6854 23.4341 24.2079 24.5152C 24.6837 25.4939 25.4114 25.6617 26.4283 25.2609C 35.9164 21.4954 45.4046 17.7579 54.902 14.0204C 56.7773 13.2841 57.3277 13.4985 58.3913 15.2507C 61.9738 21.1599 63.6531 27.6096 62.7668 34.4322C 61.4607 44.433 56.9639 52.7003 48.1381 58.1621C 36.4669 65.3854 22.0807 64.4534 11.4171 55.8133C 11.0252 55.4964 10.3535 55.2168 10.4655 54.6482C 10.5588 54.1543 11.2491 54.1543 11.6876 53.9772C 21.9221 49.9228 32.1566 45.8777 42.3818 41.8326C 43.6599 41.3293 44.0984 40.565 43.6506 39.6144C 43.1188 38.4959 42.1952 38.5798 41.2529 38.9526C 33.0429 42.1775 24.8329 45.421 16.6323 48.6645C 14.0667 49.6804 11.501 50.715 8.94475 51.7589C 8.09576 52.1038 7.49867 52.0012 6.87359 51.209C 2.28346 45.3837 -0.0769117 38.8221 0.00705414 30.3219Z"/>
</defs>
</svg>
