<svg xmlns="http://www.w3.org/2000/svg" viewBox="0 0 675.36 675.87"><defs><style>.cls-1{fill:#f77071;}</style></defs><title>Asset 4</title><g id="Layer_2" data-name="Layer 2"><g id="Layer_1-2" data-name="Layer 1"><path class="cls-1" d="M.07,325.35C-3.37,180.07,114.89,24.83,294.67,2.84,402.22-10.31,496.76,22.23,574.73,99c13.5,13.3,13.13,15.85-4.78,22.95q-122.55,48.6-245.21,96.91c-18.22,7.2-36.45,14.37-54.55,21.85-10,4.14-16.18,10.83-10.62,22.36,5.07,10.51,12.93,12.28,23.8,8q152.49-60.58,305.2-120.61c20.06-7.9,26-5.63,37.4,13.18,38.4,63.41,56.43,132.63,46.87,205.78C658.81,476.74,610.59,565.35,516,624c-125.08,77.48-279.29,67.51-393.65-25.24-4.23-3.43-11.39-6.36-10.22-12.5,1-5.28,8.39-5.32,13.12-7.2q164.48-65.23,329-130.34c13.7-5.43,18.38-13.65,13.55-23.83-5.67-12-15.56-11.08-25.69-7.08q-132,52-263.92,104.15-41.31,16.34-82.39,33.25c-9.12,3.73-15.55,2.55-22.21-5.92C24.53,486.88-.82,416.53.07,325.35Z"/></g></g></svg>