<svg width="240" height="151" viewBox="0 0 240 151" version="1.1" xmlns="http://www.w3.org/2000/svg" xmlns:xlink="http://www.w3.org/1999/xlink">
<title>laptop-coffee-time-system-startup-culture</title>
<desc>Created using Figma</desc>
<g id="Canvas" transform="translate(-2431 -15)">
<g id="laptop-coffee-time-system-startup-culture">
<g id="Landing Page">
<g id="Laptop, Coffee, Time, System, Startup, Culture">
<g id="svg6016">
<g id="layer1">
<g id="path7674">
<use xlink:href="#path0_fill" transform="translate(2431 15)" fill="#FFC107"/>
</g>
</g>
</g>
</g>
</g>
</g>
</g>
<defs>
<path id="path0_fill" d="M 52.2051 0.000132356C 51.6918 0.00616435 51.2019 0.215877 50.8432 0.583135C 50.4844 0.950393 50.2863 1.44511 50.2923 1.95845L 50.2923 3.89394L 48.3569 3.89394C 47.6589 3.88407 47.0096 4.25079 46.6577 4.85369C 46.3058 5.45659 46.3058 6.20225 46.6577 6.80515C 47.0096 7.40805 47.6589 7.77478 48.3569 7.76491L 50.2923 7.76491L 50.2923 9.70039C 50.2825 10.3984 50.6492 11.0476 51.2521 11.3995C 51.855 11.7514 52.6007 11.7514 53.2036 11.3995C 53.8065 11.0476 54.1732 10.3984 54.1633 9.70039L 54.1633 7.76491L 56.0988 7.76491C 56.7968 7.77478 57.446 7.40805 57.7979 6.80515C 58.1498 6.20225 58.1498 5.45659 57.7979 4.85369C 57.446 4.25079 56.7968 3.88407 56.0988 3.89394L 54.1633 3.89394L 54.1633 1.95845C 54.1694 1.43725 53.9651 0.935591 53.5965 0.567001C 53.228 0.198411 52.7263 -0.00596 52.2051 0.000132356ZM 21.2903 11.6359C 20.777 11.6439 20.2879 11.8555 19.9306 12.2241C 19.5733 12.5928 19.3771 13.0882 19.3851 13.6016L 19.3851 17.4423C 19.3752 18.1403 19.7419 18.7896 20.3448 19.1415C 20.9477 19.4933 21.6934 19.4933 22.2963 19.1415C 22.8992 18.7896 23.2659 18.1403 23.256 17.4423L 23.256 13.6016C 23.2642 13.0777 23.0598 12.573 22.6893 12.2026C 22.3189 11.8321 21.8141 11.6277 21.2903 11.6359ZM 11.5978 15.4991C 10.8126 15.5024 10.1072 15.9798 9.81219 16.7074C 9.51715 17.435 9.6909 18.2688 10.252 18.8181L 14.123 22.689C 14.6082 23.1955 15.3295 23.3999 16.0083 23.2232C 16.6871 23.0465 17.2172 22.5164 17.3939 21.8376C 17.5707 21.1588 17.3663 20.4375 16.8599 19.9523L 12.9889 16.0813C 12.623 15.7071 12.1211 15.4971 11.5978 15.4991ZM 29.0323 23.2259C 23.7044 23.2259 19.3548 27.5757 19.3548 32.9034L 19.3548 118.065L 19.3548 123.871L 5.80645 123.871C 4.73756 123.871 3.87107 124.738 3.87097 125.807C 3.87097 135.201 11.0895 142.938 20.1184 142.938L 165.696 142.938C 174.725 142.938 181.935 135.201 181.935 125.807C 181.935 124.738 181.069 123.871 180 123.871L 166.452 123.871L 166.452 118.057L 166.452 32.9107C 166.476 27.5726 162.102 23.2182 156.774 23.2182L 29.0323 23.2182L 29.0323 23.2259ZM 29.0323 27.1046L 156.774 27.1046C 160.024 27.1046 162.595 29.6637 162.581 32.9034L 162.581 118.065L 162.581 123.879L 106.429 123.879C 105.36 123.879 104.494 124.745 104.493 125.814C 104.493 127.682 103.168 129.02 101.59 129.02L 84.186 129.02C 82.6086 129.02 81.2828 127.682 81.2828 125.814C 81.2827 124.745 80.4162 123.879 79.3473 123.879L 23.2258 123.879L 23.2258 118.072L 23.2258 32.9111C 23.2258 29.661 25.782 27.1046 29.0323 27.1046ZM 9.51109 27.1046C 8.81952 27.1396 8.19917 27.541 7.88377 28.1574C 7.56836 28.7739 7.60583 29.5118 7.98206 30.0931C 8.35829 30.6744 9.0161 31.0109 9.70766 30.9756L 13.5484 30.9756C 14.2464 30.9855 14.8956 30.6188 15.2475 30.0159C 15.5994 29.413 15.5994 28.6673 15.2475 28.0644C 14.8956 27.4615 14.2464 27.0948 13.5484 27.1046L 9.70766 27.1046C 9.64218 27.1013 9.57657 27.1013 9.51109 27.1046ZM 199.355 29.3347C 198.566 29.3348 197.856 29.8134 197.561 30.5445C 197.265 31.2756 197.442 32.113 198.009 32.6614L 199.378 34.0298L 198.009 35.3982C 197.506 35.8841 197.303 36.6039 197.48 37.2809C 197.658 37.9579 198.186 38.4866 198.863 38.6638C 199.54 38.8409 200.26 38.6389 200.746 38.1354L 202.114 36.7666L 203.483 38.1354C 203.969 38.6388 204.689 38.8408 205.366 38.6637C 206.043 38.4866 206.571 37.9579 206.748 37.2809C 206.925 36.6039 206.723 35.8841 206.22 35.3982L 204.851 34.0298L 206.22 32.6614C 206.795 32.1054 206.969 31.2527 206.658 30.5158C 206.346 29.7788 205.613 29.3094 204.814 29.3347C 204.31 29.3508 203.833 29.5624 203.483 29.9246L 202.114 31.293L 200.746 29.9246C 200.381 29.5477 199.879 29.3348 199.355 29.3347ZM 32.9032 34.8466C 31.8343 34.8467 30.9678 35.7132 30.9677 36.7821L 30.9677 114.201C 30.9678 115.27 31.8343 116.137 32.9032 116.137L 152.903 116.137C 153.972 116.137 154.839 115.27 154.839 114.201L 154.839 36.7821C 154.839 35.7132 153.972 34.8467 152.903 34.8466L 32.9032 34.8466ZM 34.8387 38.7176L 150.968 38.7176L 150.968 112.266L 34.8387 112.266L 34.8387 38.7176ZM 5.80645 46.4746C 2.62256 46.4746 0 49.0972 0 52.281C 0 55.4649 2.62256 58.0875 5.80645 58.0875C 8.99034 58.0875 11.6129 55.4649 11.6129 52.281C 11.6129 49.0972 8.99034 46.4746 5.80645 46.4746ZM 5.80645 50.3456C 6.89832 50.3456 7.74194 51.1894 7.74194 52.281C 7.74194 53.373 6.89832 54.2165 5.80645 54.2165C 4.71459 54.2165 3.87097 53.373 3.87097 52.281C 3.87097 51.1894 4.71459 50.3456 5.80645 50.3456ZM 183.818 58.0646C 183.305 58.0707 182.815 58.2804 182.456 58.6477C 182.097 59.0149 181.899 59.5096 181.905 60.023L 181.905 61.9585L 179.97 61.9585C 179.272 61.9486 178.622 62.3153 178.271 62.9182C 177.919 63.5211 177.919 64.2668 178.271 64.8697C 178.622 65.4726 179.272 65.8393 179.97 65.8294L 181.905 65.8294L 181.905 67.7649C 181.895 68.4629 182.262 69.1122 182.865 69.464C 183.468 69.8159 184.214 69.8159 184.816 69.464C 185.419 69.1122 185.786 68.4629 185.776 67.7649L 185.776 65.8294L 187.712 65.8294C 188.41 65.8393 189.059 65.4726 189.411 64.8697C 189.763 64.2668 189.763 63.5211 189.411 62.9182C 189.059 62.3153 188.41 61.9486 187.712 61.9585L 185.776 61.9585L 185.776 60.023C 185.782 59.5018 185.578 59.0001 185.209 58.6315C 184.841 58.2629 184.339 58.0586 183.818 58.0646ZM 226.316 69.7004C 225.3 69.772 224.514 70.6179 224.516 71.6359C 224.516 72.1492 224.72 72.6415 225.083 73.0045C 225.446 73.3674 225.938 73.5714 226.452 73.5714C 226.965 73.5714 227.457 73.3674 227.82 73.0045C 228.183 72.6415 228.387 72.1492 228.387 71.6359C 228.387 71.1226 228.183 70.6302 227.82 70.2673C 227.457 69.9043 226.965 69.7004 226.452 69.7004C 226.406 69.6988 226.361 69.6988 226.316 69.7004ZM 203.309 81.3055C 202.611 81.2957 201.962 81.6624 201.61 82.2653C 201.258 82.8682 201.258 83.6139 201.61 84.2168C 201.962 84.8197 202.611 85.1864 203.309 85.1765L 222.664 85.1765L 230.345 85.1765C 231.043 85.1864 231.693 84.8197 232.044 84.2168C 232.396 83.6139 232.396 82.8682 232.044 82.2653C 231.693 81.6624 231.043 81.2957 230.345 81.3055L 222.664 81.3055L 203.309 81.3055ZM 191.696 81.3055C 189.079 81.2668 189.079 85.2137 191.696 85.1765L 195.567 85.1765C 198.184 85.2152 198.184 81.2684 195.567 81.3055L 191.696 81.3055ZM 205.267 85.1765C 206.285 85.2196 207.095 86.0438 207.121 87.0622C 207.147 88.0806 206.38 88.945 205.365 89.0397L 199.408 89.0397C 196.79 89.001 196.79 92.9479 199.408 92.9107L 226.482 92.9107C 229.099 92.9494 229.099 89.0026 226.482 89.0397L 224.38 89.0397C 223.367 88.9726 222.577 88.1342 222.572 87.1188C 222.566 86.1033 223.345 85.2557 224.357 85.1765L 216.903 85.1765C 217.92 85.2196 218.731 86.0438 218.757 87.0622C 218.783 88.0806 218.015 88.945 217.001 89.0397L 212.744 89.0397C 211.731 88.9726 210.942 88.1342 210.936 87.1188C 210.93 86.1033 211.709 85.2557 212.721 85.1765L 205.267 85.1765L 205.267 85.1765ZM 207.256 92.9184C 208.273 92.9615 209.084 93.7858 209.11 94.8041C 209.136 95.8225 208.368 96.6869 207.354 96.7817L 203.286 96.7817C 200.669 96.743 200.669 100.69 203.286 100.653L 214.869 100.653C 217.466 100.691 217.479 96.8127 214.922 96.7894C 214.917 96.7894 214.912 96.7894 214.907 96.7894C 214.892 96.7894 214.884 96.7894 214.869 96.7894L 214.733 96.7894C 213.719 96.7223 212.93 95.8839 212.924 94.8684C 212.918 93.853 213.698 93.0053 214.71 92.9262L 207.255 92.9262L 207.256 92.9184ZM 222.611 96.7894C 219.993 96.7507 219.993 100.698 222.611 100.66C 225.228 100.699 225.228 96.7523 222.611 96.7894ZM 6.10131 102.921C 5.31459 102.921 4.60619 103.397 4.30917 104.126C 4.01216 104.854 4.18561 105.69 4.74798 106.24L 6.11643 107.608L 4.74798 108.977C 4.24152 109.462 4.0372 110.183 4.21392 110.862C 4.39064 111.541 4.92074 112.071 5.59955 112.248C 6.27835 112.424 6.99963 112.22 7.48488 111.714L 8.85333 110.345L 10.2218 111.714C 10.707 112.22 11.4283 112.424 12.1071 112.248C 12.7859 112.071 13.316 111.541 13.4927 110.862C 13.6695 110.183 13.4651 109.462 12.9587 108.977L 11.5902 107.608L 12.9587 106.24C 13.5285 105.683 13.6989 104.834 13.3881 104.101C 13.0773 103.367 12.3488 102.899 11.5524 102.921C 11.0501 102.935 10.5729 103.143 10.2218 103.503L 8.85333 104.872L 7.48488 103.503C 7.11948 103.133 6.62091 102.926 6.10131 102.928L 6.10131 102.921ZM 191.613 104.524C 190.544 104.524 189.678 105.391 189.677 106.459L 189.677 119.872C 189.676 119.917 189.676 119.962 189.677 120.007L 189.677 131.499L 189.677 143.233C 189.677 147.489 193.164 150.975 197.419 150.975L 220.645 150.975C 224.901 150.975 228.387 147.489 228.387 143.233L 228.387 139.362L 232.258 139.362C 236.514 139.362 240 135.876 240 131.62L 240 120.007C 240 115.752 236.514 112.265 232.258 112.265L 228.387 112.265L 228.387 106.459C 228.387 105.39 227.521 104.523 226.452 104.523L 222.581 104.523L 195.484 104.523L 191.613 104.523L 191.613 104.524ZM 193.548 108.395L 195.484 108.395L 222.581 108.395L 224.516 108.395L 224.516 120.008L 224.516 143.234C 224.516 145.412 222.823 147.105 220.645 147.105L 197.419 147.105C 195.241 147.105 193.548 145.412 193.548 143.234L 193.548 131.628C 193.55 131.586 193.55 131.543 193.548 131.5L 193.548 120.009L 193.548 108.396L 193.548 108.395ZM 228.387 116.137L 232.258 116.137C 234.436 116.137 236.129 117.83 236.129 120.008L 236.129 131.621C 236.129 133.799 234.436 135.492 232.258 135.492L 228.387 135.492L 228.387 131.628C 228.388 131.586 228.388 131.543 228.387 131.5L 228.387 120.009L 228.387 116.138L 228.387 116.137ZM 8.10484 127.75L 78.1754 127.75C 79.0454 130.569 81.138 132.891 84.186 132.891L 101.59 132.891C 104.638 132.891 106.731 130.569 107.601 127.75L 177.702 127.75C 176.8 134.191 171.884 139.075 165.696 139.075L 20.1184 139.075C 13.9304 139.075 9.00682 134.191 8.10484 127.75Z"/>
</defs>
</svg>
