<svg width="49" height="51" viewBox="0 0 49 51" version="1.1" xmlns="http://www.w3.org/2000/svg" xmlns:xlink="http://www.w3.org/1999/xlink">
<title>medal</title>
<desc>Created using Figma</desc>
<g id="Canvas" transform="translate(-878 -775)">
<g id="medal">
<g id="Group">
<g id="Group">
<g id="Vector">
<use xlink:href="#path0_fill" transform="translate(878 775)" fill="#ACE583"/>
</g>
</g>
</g>
</g>
</g>
<defs>
<path id="path0_fill" d="M 48.8369 30.2432L 45.6138 25.7645C 45.4115 25.4769 45.398 25.0797 45.6003 24.792L 48.756 20.2723C 49.0392 19.8614 48.9043 19.2861 48.4728 19.0533L 43.6583 16.4373C 43.3482 16.2729 43.1728 15.9168 43.2403 15.5607L 44.1438 10.0959C 44.2247 9.60285 43.8606 9.13717 43.3616 9.12348L 37.9134 8.89064C 37.5627 8.87694 37.2526 8.63041 37.1582 8.288L 35.6477 2.94644C 35.5129 2.46707 34.9869 2.20684 34.5284 2.41229L 29.5117 4.60369C 29.188 4.74066 28.8104 4.65848 28.5677 4.39825L 24.9265 0.275661C 24.5894 -0.0941388 24.0229 -0.0941388 23.6858 0.289358L 20.0986 4.46673C 19.8693 4.74066 19.4917 4.82284 19.168 4.68587L 14.1243 2.57664C 13.6658 2.38489 13.1534 2.64512 13.0185 3.12449L 11.5755 8.46605C 11.4811 8.80846 11.1844 9.05499 10.8338 9.08239L 5.38551 9.3974C 4.88653 9.42479 4.5359 9.89047 4.61681 10.3835L 5.60128 15.8347C 5.66871 16.1908 5.49339 16.5469 5.19671 16.7112L 0.422716 19.3957C -0.00883085 19.6422 -0.130203 20.2175 0.152999 20.6147L 3.37612 25.0934C 3.5784 25.381 3.59189 25.7782 3.3896 26.0658L 0.233914 30.5856C -0.0492886 30.9965 0.0855696 31.5717 0.517117 31.8046L 5.33156 34.4206C 5.64174 34.5849 5.81705 34.941 5.74963 35.2971L 4.84607 40.7619C 4.76516 41.255 5.12928 41.7207 5.62825 41.7344L 11.0765 41.9672C 11.4272 41.9809 11.7373 42.2274 11.8317 42.5699L 13.3556 47.8977C 13.4905 48.3771 14.0164 48.6373 14.475 48.4319L 19.4917 46.2405C 19.8154 46.1035 20.193 46.1857 20.4357 46.4459L 24.0769 50.5685C 24.414 50.9383 24.9804 50.9383 25.3176 50.5548L 28.9048 46.3774C 29.1341 46.1035 29.5117 46.0213 29.8353 46.1583L 34.879 48.2675C 35.3376 48.4593 35.85 48.199 35.9849 47.7197L 37.4279 42.3781C 37.5223 42.0357 37.819 41.7892 38.1696 41.7618L 43.6179 41.4468C 44.1169 41.4194 44.4675 40.9537 44.3866 40.4606L 43.4021 35.0095C 43.3347 34.6534 43.51 34.2973 43.8067 34.1329L 48.5807 31.4485C 49.0122 31.2293 49.1336 30.6541 48.8369 30.2432ZM 24.5084 40.4743C 16.3495 40.4743 9.70098 33.722 9.70098 25.4358C 9.70098 17.1495 16.3495 10.3972 24.5084 10.3972C 32.6674 10.3972 39.3159 17.1495 39.3159 25.4358C 39.3159 33.7357 32.6674 40.4743 24.5084 40.4743Z"/>
</defs>
</svg>
