<svg width="128" height="128" viewBox="0 0 128 128" version="1.1" xmlns="http://www.w3.org/2000/svg" xmlns:xlink="http://www.w3.org/1999/xlink">
<title>networking</title>
<desc>Created using Figma</desc>
<g id="Canvas" transform="translate(-619 -105)">
<g id="networking" filter="url(#filter0_dd)">
<g id="Landing Page">
<g id="Group 8">
<g id="Oval 3 Copy 2">
<mask id="mask0_outline_ins">
<use xlink:href="#path0_fill" fill="white" transform="translate(623 105)"/>
</mask>
<g mask="url(#mask0_outline_ins)">
<use xlink:href="#path1_stroke_2x" transform="translate(623 105)" fill="#0020B2"/>
</g>
</g>
<g id="Personal">
<g id="svg6016">
<g id="layer1">
<g id="path8336">
<use xlink:href="#path2_fill" transform="translate(645.364 138.431)" fill="#0020B2"/>
</g>
</g>
</g>
</g>
</g>
</g>
</g>
</g>
<defs>
<filter id="filter0_dd" filterUnits="userSpaceOnUse" x="619" y="105" width="128" height="128" color-interpolation-filters="sRGB">
<feFlood flood-opacity="0" result="BackgroundImageFix"/>
<feColorMatrix in="SourceAlpha" type="matrix" values="0 0 0 0 0 0 0 0 0 0 0 0 0 0 0 0 0 0 255 0"/>
<feOffset dx="0" dy="4"/>
<feGaussianBlur stdDeviation="2"/>
<feColorMatrix type="matrix" values="0 0 0 0 0 0 0 0 0 0 0 0 0 0 0 0 0 0 0.25 0"/>
<feBlend mode="normal" in2="BackgroundImageFix" result="effect1_dropShadow"/>
<feColorMatrix in="SourceAlpha" type="matrix" values="0 0 0 0 0 0 0 0 0 0 0 0 0 0 0 0 0 0 255 0"/>
<feOffset dx="0" dy="4"/>
<feGaussianBlur stdDeviation="2"/>
<feColorMatrix type="matrix" values="0 0 0 0 0 0 0 0 0 0 0 0 0 0 0 0 0 0 0.25 0"/>
<feBlend mode="normal" in2="effect1_dropShadow" result="effect2_dropShadow"/>
<feBlend mode="normal" in="SourceGraphic" in2="effect2_dropShadow" result="shape"/>
</filter>
<path id="path0_fill" d="M 60 120C 93.1371 120 120 93.1371 120 60C 120 26.8629 93.1371 0 60 0C 26.8629 0 0 26.8629 0 60C 0 93.1371 26.8629 120 60 120Z"/>
<path id="path1_stroke_2x" d="M 119 60C 119 92.5848 92.5848 119 60 119L 60 121C 93.6894 121 121 93.6894 121 60L 119 60ZM 60 119C 27.4152 119 1 92.5848 1 60L -1 60C -1 93.6894 26.3106 121 60 121L 60 119ZM 1 60C 1 27.4152 27.4152 1 60 1L 60 -1C 26.3106 -1 -1 26.3106 -1 60L 1 60ZM 60 1C 92.5848 1 119 27.4152 119 60L 121 60C 121 26.3106 93.6894 -1 60 -1L 60 1Z"/>
<path id="path2_fill" fill-rule="evenodd" d="M 41.1183 0.00262935C 40.0886 0.00262935 39.2405 0.850929 39.2405 1.88073C 39.2405 1.98427 39.2559 2.08236 39.2723 2.18152L 30.409 7.64955C 29.8945 7.26491 29.1767 7.19567 28.5899 7.53436C 28.4062 7.64078 28.2526 7.77976 28.1278 7.9379L 20.0005 6.56839C 19.965 6.35353 19.895 6.14081 19.7804 5.94236C 19.2648 5.04913 18.1037 4.73962 17.2107 5.25522C 16.4361 5.70246 16.1015 6.634 16.3622 7.4561L 9.35229 11.4617C 9.03457 11.2609 8.66225 11.1413 8.2618 11.1413C 7.13078 11.1413 6.20058 12.0716 6.20063 13.2028C 6.20065 13.6382 6.34072 14.0423 6.57472 14.3766L 1.62351 22.564C 0.713162 22.691 0 23.475 0 24.418C 0 25.3241 0.656752 26.0885 1.51593 26.2594L 7.17376 33.1457C 7.07978 33.3523 7.02219 33.5783 7.02217 33.8182C 7.02215 34.2493 7.19931 34.6378 7.4745 34.9333L 3.53798 42.1987C 3.48628 42.1987 3.43653 42.1837 3.38394 42.1837C 2.18143 42.1837 1.19318 43.172 1.19318 44.3748C 1.19318 45.5775 2.18143 46.5659 3.38394 46.5659C 3.86714 46.5659 4.31113 46.3996 4.67493 46.1307L 15.707 48.7301C 15.9523 49.8541 16.9583 50.7061 18.152 50.7061C 19.0512 50.7061 19.8375 50.2189 20.2792 49.5005L 35.7734 51.8848C 36.0136 52.6458 36.7202 53.2102 37.5559 53.2102C 38.3897 53.2102 39.0941 52.6481 39.3359 51.8897L 55.2238 49.6203C 55.5593 50.6088 56.4888 51.3321 57.5857 51.3321C 58.8335 51.3321 59.8674 50.3993 60.0503 49.1996L 70.7156 46.2187C 71.0424 46.4371 71.4335 46.5659 71.8525 46.5659C 72.9835 46.5659 73.9137 45.6355 73.9137 44.5044C 73.9137 43.3731 72.9836 42.4428 71.8525 42.4428C 71.8458 42.4428 71.8397 42.4428 71.833 42.4428L 69.1165 34.9695C 69.4122 34.6706 69.5982 34.2638 69.5982 33.8154C 69.5982 33.4166 69.435 33.0604 69.1948 32.7735L 73.3978 23.2681C 74.513 23.2493 75.4248 22.3286 75.4247 21.209C 75.4248 20.1348 74.583 19.2518 73.5298 19.1647L 71.2999 8.16265C 71.5177 7.89358 71.6691 7.56804 71.6691 7.19918C 71.6691 6.34227 70.9611 5.6341 70.1043 5.6341C 69.433 5.6341 68.8594 6.07044 68.6397 6.67093L 55.8204 6.62711C 55.6936 5.71673 54.9122 5.00343 53.9695 5.00343C 53.2258 5.00343 52.5831 5.44804 52.2799 6.08184L 42.9594 2.22046C 42.9806 2.10903 42.9961 1.99592 42.9961 1.8781C 42.9961 0.8483 42.148 2.98708e-09 41.1183 2.98708e-09L 41.1183 0.00262935ZM 41.1183 1.2547C 41.4714 1.2547 41.7443 1.52765 41.7442 1.88073C 41.7442 2.23399 41.4714 2.50681 41.1183 2.50681C 40.7652 2.50681 40.4924 2.23399 40.4924 1.88073C 40.4924 1.52765 40.7652 1.2547 41.1183 1.2547ZM 39.8811 3.27708C 40.2132 3.57182 40.6441 3.75888 41.1183 3.75888C 41.5734 3.75888 41.9873 3.58522 42.3139 3.31126L 52.1724 7.39525C 52.3868 8.13548 53.0437 8.68926 53.835 8.74748L 55.8595 14.1373C 55.7188 14.2399 55.5954 14.362 55.4878 14.4992L 44.38 10.6427C 44.3809 10.6177 44.3874 10.5952 44.3874 10.5689C 44.3874 9.36613 43.3991 8.37775 42.1966 8.37775C 41.1857 8.37775 40.3348 9.07903 40.0866 10.0162L 31.0399 8.92315C 31.0387 8.85679 31.0541 8.79156 31.0448 8.72507L 39.8812 3.27658L 39.8811 3.27708ZM 18.0762 6.25813C 18.3199 6.22557 18.5643 6.33826 18.6973 6.56864C 18.8746 6.87577 18.7721 7.25202 18.465 7.42944C 18.1579 7.60673 17.7841 7.50706 17.6068 7.19956C 17.4294 6.89242 17.5295 6.51856 17.8366 6.34126C 17.9134 6.29619 17.995 6.26864 18.0762 6.25863L 18.0762 6.25813ZM 53.9695 6.25813C 54.3226 6.25813 54.5954 6.53108 54.5954 6.88416C 54.5954 7.23737 54.3226 7.51019 53.9695 7.51019C 53.6164 7.51019 53.3435 7.23737 53.3435 6.88416C 53.3435 6.53108 53.6164 6.25813 53.9695 6.25813ZM 70.1043 6.88904C 70.2846 6.88904 70.4173 7.02176 70.4173 7.20206C 70.4173 7.38236 70.2846 7.51508 70.1043 7.51508C 69.9241 7.51508 69.7914 7.38236 69.7914 7.20206C 69.7914 7.02176 69.9241 6.88904 70.1043 6.88904ZM 19.7804 7.80355L 27.7806 9.15103C 27.7955 9.288 27.828 9.42235 27.8784 9.55457L 18.3109 15.6779C 17.9655 15.28 17.4629 15.0226 16.9002 15.0226C 16.3057 15.0226 15.7783 15.3092 15.4331 15.7464L 10.3156 13.2887C 10.3169 13.2599 10.323 13.2324 10.323 13.2036C 10.323 12.9333 10.2653 12.6757 10.169 12.4382L 17.1374 8.45701C 17.7117 8.82323 18.4652 8.87457 19.091 8.51335C 19.3918 8.33969 19.6208 8.08952 19.7805 7.80418L 19.7804 7.80355ZM 55.5514 7.87993L 68.6495 7.92626L 58.3706 14.4262C 58.0471 14.0537 57.5848 13.8105 57.0649 13.7807L 55.0477 8.41293C 55.2489 8.26995 55.419 8.08852 55.5514 7.8798L 55.5514 7.87993ZM 29.3674 8.56706C 29.5222 8.54578 29.6756 8.61715 29.7611 8.76514C 29.8751 8.96259 29.8118 9.1966 29.6144 9.31054C 29.417 9.42448 29.1831 9.36187 29.0691 9.1638C 28.9552 8.96635 29.0184 8.73484 29.2158 8.6209C 29.2652 8.5921 29.3159 8.57457 29.3674 8.56706ZM 69.7425 8.71869C 69.8593 8.74749 69.9794 8.76752 70.1043 8.76752C 70.1177 8.76752 70.1301 8.76752 70.1434 8.76752L 72.3122 19.454C 71.9312 19.6835 71.6291 20.0292 71.4589 20.4444L 62.2582 25.8537L 59.5686 21.1952C 59.5265 21.1218 59.4699 21.0577 59.4024 21.0068L 58.2972 16.9597C 58.6293 16.615 58.8376 16.156 58.8376 15.6486C 58.8376 15.6361 58.8353 15.6261 58.8351 15.6148L 69.7424 8.71869L 69.7425 8.71869ZM 42.1966 9.63082C 42.7225 9.63082 43.1355 10.0439 43.1355 10.5699C 43.1355 11.0959 42.7225 11.5089 42.1966 11.5089C 41.6706 11.5089 41.2577 11.0959 41.2577 10.5699C 41.2577 10.0439 41.6706 9.63082 42.1966 9.63082ZM 30.876 10.1663L 40.1379 11.2864C 40.4386 12.1387 41.2464 12.761 42.1966 12.761C 42.9296 12.761 43.5781 12.3885 43.9766 11.8293L 54.8008 15.5879L 39.0889 19.3221C 38.6631 18.9874 38.1353 18.7793 37.5559 18.7793C 37.1507 18.7793 36.7734 18.8845 36.4336 19.058L 30.876 10.1663ZM 28.788 10.4598C 29.0666 10.575 29.3636 10.6374 29.6657 10.5919L 35.4776 19.8919C 35.3238 20.1206 35.2145 20.3797 35.1426 20.6524L 35.0986 20.6524L 18.751 17.1481C 18.7624 17.0655 18.7779 16.9845 18.7779 16.8987C 18.7779 16.8862 18.7757 16.8761 18.7754 16.8649L 28.7879 10.4578L 28.788 10.4598ZM 8.26181 12.3941C 8.48004 12.3941 8.6728 12.4768 8.81683 12.6119L 9.02711 12.9835C 9.04676 13.0548 9.07112 13.1256 9.07112 13.2036C 9.0711 13.6581 8.71622 14.013 8.26181 14.013C 7.80739 14.013 7.45252 13.6581 7.4525 13.2036C 7.45248 12.7491 7.80736 12.3941 8.26181 12.3941L 8.26181 12.3941ZM 9.87554 14.4654L 15.0272 16.9379C 15.0421 17.6717 15.4842 18.3058 16.1153 18.6007L 15.7632 20.8945C 15.5989 20.9364 15.4586 21.0432 15.3744 21.1904L 10.367 29.8645C 10.2838 30.0084 10.2613 30.1795 10.3044 30.3401C 10.3476 30.5006 10.4527 30.6375 10.5968 30.7204L 10.7117 30.7867L 9.27895 32.2882C 9.09066 32.2131 8.88633 32.168 8.67258 32.168C 8.46419 32.168 8.26524 32.2106 8.08088 32.2832L 2.90961 25.9813C 3.41705 25.6427 3.75559 25.0674 3.75559 24.418C 3.75559 23.7693 3.41848 23.1933 2.91205 22.8553L 7.57719 15.1375C 7.79258 15.2152 8.02123 15.2646 8.26181 15.2646C 8.91657 15.2646 9.4969 14.9471 9.87554 14.4649L 9.87554 14.4654ZM 56.9598 15.0226C 57.3129 15.0226 57.5857 15.2955 57.5857 15.6486C 57.5857 16.0018 57.3129 16.2747 56.9598 16.2747C 56.6067 16.2747 56.3338 16.0018 56.3338 15.6486C 56.3338 15.2955 56.6067 15.0226 56.9598 15.0226ZM 16.9002 16.2747C 17.2533 16.2747 17.5261 16.5476 17.5261 16.9007C 17.5261 17.2539 17.2533 17.5267 16.9002 17.5267C 16.547 17.5267 16.2742 17.2539 16.2742 16.9007C 16.2742 16.5476 16.547 16.2747 16.9002 16.2747ZM 55.4292 16.7245C 55.7706 17.2068 56.3299 17.5267 56.9598 17.5267C 57.0249 17.5267 57.0869 17.5142 57.1505 17.5067L 58.1774 21.2703L 56.2556 22.3781C 56.2514 22.3822 56.2474 22.3864 56.2433 22.3906L 50.4901 25.7116L 39.9398 22.0091C 40.0104 21.7787 40.0596 21.5402 40.0596 21.2878C 40.0596 20.9833 39.9967 20.6927 39.8957 20.422L 55.4291 16.7294L 55.4292 16.7245ZM 18.1349 18.2994L 35.0057 21.9138L 35.1402 21.9013C 35.3299 22.63 35.8384 23.2311 36.5094 23.5447L 33.7587 30.8835C 33.3423 30.9824 32.9426 31.1347 32.5656 31.3408L 30.8222 30.3309L 30.92 30.1621C 31.0032 30.0181 31.0257 29.847 30.9826 29.6864C 30.9395 29.5259 30.8343 29.3891 30.6902 29.3062L 29.2061 28.4502L 28.4408 28.0076L 16.9539 21.3756L 17.3647 18.7101C 17.6547 18.6349 17.916 18.4904 18.1349 18.2967L 18.1349 18.2994ZM 37.5559 20.0309C 38.2547 20.0309 38.8077 20.584 38.8077 21.2829C 38.8077 21.9818 38.2547 22.535 37.5559 22.535C 37.5533 22.535 37.5513 22.535 37.5485 22.535L 36.969 22.3198L 36.9519 22.3636C 36.5695 22.1487 36.304 21.7575 36.304 21.2829C 36.304 20.584 36.8571 20.0309 37.5559 20.0309ZM 73.3636 20.4025C 73.818 20.4025 74.1729 20.7574 74.1729 21.2119C 74.1729 21.6664 73.818 22.0214 73.3636 22.0214C 72.9091 22.0214 72.5542 21.6664 72.5543 21.2119C 72.5542 20.7574 72.9091 20.4025 73.3636 20.4025ZM 71.4344 21.9065C 71.5818 22.31 71.845 22.6593 72.1924 22.9017L 68.0896 32.1822C 68.0412 32.1822 67.9948 32.1671 67.9454 32.1671C 67.4994 32.1671 67.0946 32.3493 66.7962 32.6415L 63.0675 31.8469L 64.515 31.0129C 64.659 30.9299 64.7642 30.7931 64.8073 30.6326C 64.8504 30.472 64.8279 30.3009 64.7448 30.1569L 62.8841 26.9339L 71.4344 21.9061L 71.4344 21.9065ZM 16.1471 22.3564L 27.2745 28.783L 23.2866 35.6938C 23.1641 35.7919 23.083 35.9325 23.0592 36.0876L 22.893 36.3737L 11.7656 29.9471L 16.1471 22.3564ZM 58.7984 22.3564L 63.3487 30.2382L 52.2628 36.6403L 47.7126 28.7563L 58.7984 22.3564ZM 39.2699 23.0925L 49.0598 26.5308L 44.2553 29.304C 44.1116 29.3874 44.007 29.5243 43.9643 29.6849C 43.9217 29.8454 43.9446 30.0163 44.0279 30.1599L 44.1257 30.3311L 42.3849 31.3338C 41.9055 31.0676 41.389 30.8727 40.8518 30.781L 40.8493 30.781C 40.3938 30.7033 39.9275 30.6921 39.463 30.7497C 39.1533 30.7872 38.8462 30.8536 38.5436 30.955C 38.2411 31.0564 37.943 31.1904 37.6561 31.356C 37.6552 31.356 37.6544 31.356 37.6536 31.356L 37.48 31.4562L 37.277 31.346C 36.6992 31.0319 36.0841 30.8431 35.4653 30.7713C 35.357 30.7588 35.2484 30.7588 35.1401 30.7563L 37.7636 23.7624C 38.3435 23.7136 38.8684 23.4723 39.2698 23.0923L 39.2699 23.0925ZM 1.87779 23.7919C 2.2309 23.7919 2.50373 24.0649 2.50373 24.418C 2.50373 24.7712 2.2309 25.044 1.87779 25.044C 1.52469 25.044 1.25186 24.7712 1.25186 24.418C 1.25186 24.0649 1.52469 23.7919 1.87779 23.7919ZM 46.627 29.3847L 49.4681 34.3048C 49.2704 34.5057 49.2313 34.8141 49.3728 35.058C 49.5138 35.3 49.7984 35.4188 50.0696 35.349L 50.4168 35.9481L 49.2114 36.6426L 48.72 35.7916C 48.6923 35.7015 48.6447 35.6187 48.5806 35.5496L 45.424 30.0791L 46.627 29.3847ZM 28.3576 29.4085L 28.5801 29.538L 29.5215 30.0809L 25.7341 36.6445L 24.5678 35.972L 24.9468 35.3166C 25.2377 35.4427 25.5769 35.3314 25.7365 35.0574C 25.8962 34.7819 25.8236 34.4304 25.5678 34.2407L 28.3576 29.4085ZM 44.7517 31.4161L 47.2554 35.7519L 45.9644 36.4978C 45.8713 36.1588 45.7472 35.8269 45.5756 35.5049C 45.5595 35.4524 45.5364 35.4023 45.5072 35.3558L 44.2235 33.1303C 44.0121 32.7641 43.7522 32.4447 43.468 32.1571L 44.7517 31.4161L 44.7517 31.4161ZM 30.1963 31.4161L 31.4775 32.1571C 31.1943 32.4426 30.9361 32.7612 30.7244 33.1278L 29.4383 35.3533C 29.2265 35.7202 29.0856 36.1046 28.9787 36.4953L 27.6926 35.7518L 30.1963 31.4161ZM 11.8242 31.4287L 22.8074 37.7696C 22.9513 37.8528 23.1224 37.8753 23.2829 37.8322C 23.4435 37.7891 23.5802 37.6838 23.6631 37.5397L 23.9419 37.0556L 24.9468 37.6352L 18.4528 45.7271C 18.3532 45.7146 18.2547 45.6983 18.152 45.6983C 18.0561 45.6983 17.9641 45.7146 17.8708 45.7246L 10.1054 34.5857C 10.2325 34.3524 10.323 34.0998 10.323 33.8179C 10.323 33.583 10.269 33.3607 10.1787 33.1575L 11.8242 31.4287ZM 40.309 31.9691C 41.4442 32.0492 42.5164 32.6801 43.1379 33.7566L 44.424 35.9821C 44.6979 36.4565 44.8394 36.962 44.8837 37.4689C 44.8818 37.5189 44.8859 37.569 44.896 37.618C 44.9062 37.8443 44.8942 38.0689 44.8617 38.2905C 44.7956 38.2379 44.7292 38.1853 44.6539 38.1414L 40.3702 35.6665C 40.3848 35.3702 40.3285 35.0721 40.1966 34.7911C 40.1929 34.778 40.1888 34.7651 40.1843 34.7523C 40.177 34.734 40.1689 34.716 40.1599 34.6984C 40.151 34.68 40.1412 34.6621 40.1305 34.6446C 40.1281 34.6404 40.1256 34.6362 40.1231 34.6321C 40.1169 34.6196 40.1076 34.6133 40.1011 34.602C 40.0897 34.5852 40.0775 34.5689 40.0645 34.5532C 40.0583 34.5407 40.0512 34.5357 40.0449 34.5257C 39.9976 34.4555 39.9533 34.3837 39.8982 34.3227C 39.73 34.1366 39.5255 33.99 39.304 33.8875L 39.3015 33.8875C 38.745 33.6307 38.068 33.6449 37.4995 33.9726C 37.4912 33.9783 37.4831 33.9841 37.4751 33.9901L 37.4482 34.0077L 35.0863 35.3722C 35.0544 35.3899 35.0241 35.4105 34.9958 35.4335L 34.9494 35.4611C 34.4918 35.7253 33.9561 35.5637 33.497 35.2164L 34.7904 34.4682L 36.2623 33.6171C 36.2665 33.613 36.2706 33.6089 36.2746 33.6046L 37.8101 32.7194C 37.8109 32.7194 37.8118 32.7194 37.8126 32.7194C 37.8302 32.7098 37.8473 32.6994 37.864 32.6881L 38.2821 32.4461C 38.9235 32.0756 39.6279 31.9259 40.309 31.9741L 40.309 31.9691ZM 34.6292 31.9891C 35.1345 31.9553 35.6521 32.0392 36.1549 32.2239L 35.6488 32.5173C 35.6303 32.5269 35.6124 32.5373 35.595 32.5486L 34.1646 33.3753C 34.1638 33.3752 34.1629 33.3752 34.1621 33.3753L 32.1303 34.5514C 32.0757 34.5831 32.0263 34.6227 31.9836 34.6691C 31.9698 34.6839 31.9567 34.6994 31.9445 34.7155C 31.9323 34.7312 31.9209 34.7475 31.9102 34.7643C 31.8996 34.7817 31.8898 34.7997 31.8809 34.8181C 31.8625 34.855 31.8477 34.8936 31.8369 34.9333C 31.8318 34.9527 31.8277 34.9724 31.8246 34.9922C 31.819 35.0328 31.8173 35.0739 31.8197 35.1149C 31.8212 35.1354 31.8236 35.1559 31.8271 35.1762C 31.8302 35.196 31.8343 35.2157 31.8394 35.2351C 31.845 35.2542 31.8515 35.273 31.8589 35.2914C 31.871 35.3234 31.8858 35.3544 31.903 35.3841C 31.9978 35.5483 32.1058 35.6995 32.2257 35.8388C 33.0652 36.8154 34.4601 37.1577 35.5754 36.5137L 37.9471 35.1418C 37.9798 35.1241 38.0109 35.1036 38.04 35.0804L 38.0498 35.0804C 38.0506 35.0804 38.0514 35.0804 38.0523 35.0804L 38.1256 35.0391C 38.4123 34.8736 38.7143 34.9189 38.9129 35.098C 38.694 35.1907 38.5463 35.3994 38.5318 35.6368C 38.5173 35.8742 38.6384 36.0993 38.8445 36.2181L 39.3457 36.5065C 39.3623 36.5178 39.3794 36.5282 39.3971 36.5378L 44.028 39.2108C 44.263 39.3464 44.3348 39.6164 44.1991 39.8514C 44.0637 40.0857 43.7928 40.1579 43.5585 40.0226L 38.4068 37.0489L 37.8665 36.7359C 37.6725 36.6241 37.4337 36.6242 37.2399 36.7363C 37.0461 36.8483 36.9268 37.0553 36.9269 37.2792C 36.9271 37.5031 37.0466 37.7099 37.2405 37.8217L 37.7809 38.1347L 42.9326 41.1084L 43.4363 41.4019C 43.489 41.474 43.5565 41.534 43.6343 41.5779C 43.7273 41.7186 43.7389 41.8978 43.6441 42.0621C 43.5085 42.2972 43.2386 42.369 43.0035 42.2332L 42.4656 41.9227L 42.4631 41.9227L 37.3114 38.9491L 36.771 38.6361C 36.4712 38.4632 36.0881 38.5661 35.9152 38.8659C 35.7424 39.1658 35.8453 39.549 36.1451 39.7218L 36.6854 40.0324L 41.8371 43.0085C 42.0721 43.1441 42.1439 43.4143 42.0083 43.6492C 41.8727 43.8845 41.6026 43.9561 41.3677 43.8204L 40.2821 43.1943L 35.6756 40.5337L 34.59 39.9077C 34.2925 39.7505 33.924 39.8567 33.7557 40.1481C 33.5874 40.4394 33.6794 40.8117 33.9641 40.9911L 35.0497 41.6195L 39.6562 44.2777C 39.8912 44.4133 39.9629 44.6834 39.8273 44.9184C 39.6918 45.1534 39.4216 45.2252 39.1867 45.0896L 33.8369 42.001L 33.8272 41.9885C 33.8247 41.9885 33.8223 41.9885 33.8198 41.9885L 33.4946 41.8027L 31.8124 40.8294C 30.1019 39.8417 29.5295 37.6879 30.5239 35.9654L 31.8075 33.74C 32.429 32.6635 33.4917 32.0486 34.6291 31.9719L 34.6292 31.9891ZM 61.4513 32.7814L 66.2949 33.8159C 66.2949 34.1535 66.4233 34.4504 66.6006 34.7133L 57.8204 46.3438C 57.7422 46.3313 57.6658 46.3225 57.5857 46.3225C 57.0948 46.3225 56.6386 46.4687 56.2507 46.7161L 46.0426 38.7758C 46.1087 38.466 46.1509 38.1505 46.1551 37.8319L 47.8813 36.8366L 48.4412 37.8074C 48.5241 37.9515 48.6609 38.0567 48.8214 38.0999C 48.982 38.143 49.1531 38.1205 49.297 38.0373L 51.0428 37.0298L 51.4926 37.8074C 51.6652 38.1061 52.0468 38.2089 52.346 38.0373L 61.4513 32.7795L 61.4513 32.7814ZM 8.67257 33.4197C 8.9005 33.4197 9.0711 33.5905 9.07112 33.8184C 9.07113 34.0464 8.90052 34.2169 8.67257 34.2169C 8.44462 34.2169 8.27402 34.0464 8.27403 33.8184C 8.27405 33.5905 8.44465 33.4197 8.67257 33.4197ZM 67.9454 33.4197C 68.1733 33.4197 68.3463 33.5905 68.3463 33.8184C 68.3463 34.0464 68.1733 34.2169 67.9454 34.2169C 67.7174 34.2169 67.5468 34.0464 67.5468 33.8184C 67.5468 33.5905 67.7174 33.4197 67.9454 33.4197ZM 9.13958 35.3907L 16.6728 46.1947C 16.2515 46.507 15.9368 46.9469 15.7754 47.4566L 5.46223 45.0282C 5.52863 44.82 5.5747 44.6044 5.5747 44.3753C 5.5747 43.6764 5.23452 43.056 4.71894 42.6537L 8.61389 35.4617C 8.63387 35.4624 8.65243 35.4742 8.67257 35.4742C 8.83559 35.4742 8.9903 35.4417 9.13958 35.3966L 9.13958 35.3907ZM 67.6275 35.4345C 67.7308 35.4546 67.8364 35.4683 67.9454 35.4683C 67.9512 35.4683 67.9566 35.4683 67.9625 35.4683L 70.6471 42.8438C 70.1319 43.22 69.7913 43.8256 69.7914 44.5066C 69.7914 44.7319 69.8382 44.9438 69.9063 45.1473L 59.9183 47.94C 59.7419 47.4817 59.4353 47.0896 59.0429 46.8054L 67.6275 35.4365L 67.6275 35.4345ZM 27.0642 36.8406L 28.81 37.8458C 28.8303 39.0555 29.3029 40.2228 30.1621 41.1079C 29.9284 41.6036 29.9247 42.2003 30.2159 42.7048C 30.5385 43.2638 31.1358 43.4521 31.744 43.4409C 31.7452 43.7296 31.701 44.0243 31.854 44.2895C 32.2799 45.0281 33.1807 45.2483 33.9543 44.9522C 33.9849 45.1589 33.9227 45.3707 34.0326 45.5611C 34.5039 46.3782 35.5685 46.6608 36.3847 46.1895L 36.93 45.8741L 36.93 49.5692C 36.4283 49.7498 36.0222 50.1342 35.8199 50.6256L 20.646 48.2902C 20.647 48.2602 20.6557 48.2326 20.6557 48.2026C 20.6557 47.3966 20.2628 46.6808 19.6655 46.2217L 26.2011 38.076C 26.3284 38.0237 26.435 37.9308 26.5043 37.8118L 27.0642 36.841L 27.0642 36.8406ZM 45.5879 40.0123L 55.3974 47.6422C 55.2744 47.8675 55.1773 48.1088 55.1284 48.3685L 39.2943 50.6305C 39.0927 50.1368 38.6852 49.7504 38.1818 49.5692L 38.1818 45.9695L 38.5608 46.1895C 39.377 46.6609 40.4416 46.3783 40.9129 45.5611C 41.0228 45.3707 40.9606 45.1589 40.9912 44.9522C 41.7652 45.2496 42.6653 45.0286 43.0915 44.2895C 43.2446 44.0243 43.2003 43.7296 43.2015 43.4409C 43.8098 43.4534 44.4071 43.2641 44.7296 42.7048C 45.0149 42.2108 44.9332 41.6787 44.6954 41.2009C 45.0583 40.8475 45.3582 40.4491 45.5879 40.0123L 45.5879 40.0123ZM 31.2843 41.9883L 31.8149 42.294C 31.6154 42.3466 31.4135 42.2727 31.3015 42.0787C 31.2844 42.0487 31.2947 42.0186 31.2844 41.9886L 31.2843 41.9883ZM 33.0961 43.0374L 33.1939 43.0938C 33.1956 43.0938 33.1972 43.0938 33.1988 43.0938L 34.0326 43.5755L 33.5802 43.8371C 33.3454 43.9729 33.0728 43.901 32.9372 43.666C 32.8047 43.4365 32.8737 43.1759 33.0961 43.0376L 33.0961 43.0374ZM 3.38394 43.436C 3.90989 43.436 4.32284 43.849 4.32284 44.375C 4.32284 44.901 3.90989 45.3141 3.38394 45.3141C 2.85799 45.3141 2.44504 44.901 2.44504 44.375C 2.44504 43.849 2.85799 43.436 3.38394 43.436ZM 71.8525 43.6952C 72.307 43.6952 72.6619 44.0501 72.6618 44.5046C 72.6618 44.9591 72.3069 45.3141 71.8525 45.3141C 71.3981 45.3141 71.0432 44.9591 71.0432 44.5046C 71.0432 44.0501 71.3981 43.6952 71.8525 43.6952ZM 35.2844 44.2993L 36.2209 44.8397L 35.7588 45.1062C 35.5237 45.242 35.2538 45.1701 35.1182 44.9351C 34.9838 44.7022 35.0545 44.436 35.2844 44.2993ZM 18.152 46.9503C 18.8508 46.9503 19.4039 47.5034 19.4039 48.2023C 19.4039 48.9012 18.8508 49.4544 18.152 49.4544C 17.4532 49.4544 16.9002 48.9012 16.9002 48.2023C 16.9002 47.5034 17.4532 46.9503 18.152 46.9503ZM 57.5857 47.5763C 58.2845 47.5763 58.8376 48.1295 58.8376 48.8284C 58.8376 49.5273 58.2845 50.0804 57.5857 50.0804C 56.8869 50.0804 56.3338 49.5273 56.3338 48.8284C 56.3338 48.1295 56.8869 47.5763 57.5857 47.5763ZM 37.5559 50.7065C 37.909 50.7065 38.1818 50.9794 38.1818 51.3325C 38.1818 51.6857 37.909 51.9585 37.5559 51.9585C 37.2028 51.9585 36.93 51.6857 36.93 51.3325C 36.93 50.9794 37.2028 50.7065 37.5559 50.7065Z"/>
</defs>
</svg>
