<svg width="85" height="72" viewBox="0 0 85 72" version="1.1" xmlns="http://www.w3.org/2000/svg" xmlns:xlink="http://www.w3.org/1999/xlink">
<title>start</title>
<desc>Created using Figma</desc>
<g id="Canvas" transform="translate(-2338 -2478)">
<g id="start">
<g id="award-star-with-olive-branches">
<g id="Group">
<g id="Group">
<g id="Vector">
<use xlink:href="#path0_fill" transform="translate(2338.39 2513.92)" fill="#6E48AA"/>
</g>
<g id="Vector">
<use xlink:href="#path1_fill" transform="translate(2350.73 2510.27)" fill="#6E48AA"/>
</g>
<g id="Vector">
<use xlink:href="#path2_fill" transform="translate(2354.89 2519.87)" fill="#6E48AA"/>
</g>
<g id="Vector">
<use xlink:href="#path3_fill" transform="translate(2361.6 2525.53)" fill="#6E48AA"/>
</g>
<g id="Vector">
<use xlink:href="#path4_fill" transform="translate(2368.67 2531.24)" fill="#6E48AA"/>
</g>
<g id="Vector">
<use xlink:href="#path5_fill" transform="translate(2343.99 2502.41)" fill="#6E48AA"/>
</g>
<g id="Vector">
<use xlink:href="#path6_fill" transform="translate(2339.53 2524.01)" fill="#6E48AA"/>
</g>
<g id="Vector">
<use xlink:href="#path7_fill" transform="translate(2344.28 2532.4)" fill="#6E48AA"/>
</g>
<g id="Vector">
<use xlink:href="#path8_fill" transform="translate(2350.25 2539.16)" fill="#6E48AA"/>
</g>
<g id="Vector">
<use xlink:href="#path9_fill" transform="translate(2359.31 2543.75)" fill="#6E48AA"/>
</g>
<g id="Vector">
<use xlink:href="#path10_fill" transform="translate(2347.44 2516.39)" fill="#6E48AA"/>
</g>
<g id="Vector">
<use xlink:href="#path11_fill" transform="translate(2414.19 2513.97)" fill="#6E48AA"/>
</g>
<g id="Vector">
<use xlink:href="#path12_fill" transform="translate(2404.3 2510.33)" fill="#6E48AA"/>
</g>
<g id="Vector">
<use xlink:href="#path13_fill" transform="translate(2400.28 2519.92)" fill="#6E48AA"/>
</g>
<g id="Vector">
<use xlink:href="#path14_fill" transform="translate(2393.57 2525.58)" fill="#6E48AA"/>
</g>
<g id="Vector">
<use xlink:href="#path15_fill" transform="translate(2385.88 2531.3)" fill="#6E48AA"/>
</g>
<g id="Vector">
<use xlink:href="#path16_fill" transform="translate(2411.01 2502.46)" fill="#6E48AA"/>
</g>
<g id="Vector">
<use xlink:href="#path17_fill" transform="translate(2410.97 2524.06)" fill="#6E48AA"/>
</g>
<g id="Vector">
<use xlink:href="#path18_fill" transform="translate(2405.08 2532.46)" fill="#6E48AA"/>
</g>
<g id="Vector">
<use xlink:href="#path19_fill" transform="translate(2398.51 2539.21)" fill="#6E48AA"/>
</g>
<g id="Vector">
<use xlink:href="#path20_fill" transform="translate(2389.53 2543.81)" fill="#6E48AA"/>
</g>
<g id="Vector">
<use xlink:href="#path21_fill" transform="translate(2382.36 2516.44)" fill="#6E48AA"/>
</g>
</g>
</g>
</g>
<g id="idea">
<g id="Group">
<g id="Vector">
<use xlink:href="#path22_fill" transform="translate(2365.19 2485.82)" fill="#FFC61C"/>
</g>
<g id="Vector">
<use xlink:href="#path23_fill" transform="translate(2379.6 2478.73)" fill="#FFC61C"/>
</g>
<g id="Vector">
<use xlink:href="#path24_fill" transform="translate(2397.61 2499.99)" fill="#FFC61C"/>
</g>
<g id="Vector">
<use xlink:href="#path24_fill" transform="translate(2357.99 2499.99)" fill="#FFC61C"/>
</g>
<g id="Vector">
<use xlink:href="#path25_fill" transform="translate(2392.33 2484.96)" fill="#FFC61C"/>
</g>
<g id="Vector">
<use xlink:href="#path26_fill" transform="translate(2364.32 2512.52)" fill="#FFC61C"/>
</g>
<g id="Vector">
<use xlink:href="#path27_fill" transform="translate(2392.33 2512.52)" fill="#FFC61C"/>
</g>
<g id="Vector">
<use xlink:href="#path28_fill" transform="translate(2364.32 2484.96)" fill="#FFC61C"/>
</g>
<g id="Vector">
<use xlink:href="#path29_fill" transform="translate(2369.7 2490.25)" fill="#FFC61C"/>
</g>
</g>
</g>
</g>
</g>
<defs>
<path id="path0_fill" d="M 8.30868 9.09358C 8.30868 9.09358 9.12869 5.77254 6.37262 2.89413C 3.60607 0.0104785 0.132169 -1.71848e-06 0.132169 -1.71848e-06C 0.132169 -1.71848e-06 -0.732377 3.89987 1.96082 6.71018C 4.65139 9.51264 8.30868 9.09358 8.30868 9.09358Z"/>
<path id="path1_fill" d="M 2.0673 12.1449C 2.0673 12.1449 5.29756 10.3927 5.88964 6.54256C 6.48434 2.70293 3.53179 -4.19628e-07 3.53179 -4.19628e-07C 3.53179 -4.19628e-07 0.702361 2.01148 0.0919394 5.95587C -0.513243 9.90289 2.0673 12.1449 2.0673 12.1449Z"/>
<path id="path2_fill" d="M 2.76847 12.2313C 2.76847 12.2313 5.74461 10.0653 5.83106 6.17588C 5.90966 2.29173 2.63224 -1.95826e-06 2.63224 -1.95826e-06C 2.63224 -1.95826e-06 0.0883802 2.35721 0.00192555 6.35137C -0.0845291 10.3429 2.76847 12.2313 2.76847 12.2313Z"/>
<path id="path3_fill" d="M 5.80948 5.84849C 5.52654 1.97482 2.04739 -2.39788e-07 2.04739 -2.39788e-07C 2.04739 -2.39788e-07 -0.263305 2.58507 0.0248772 6.56875C 0.313059 10.5524 3.33111 12.1632 3.33111 12.1632C 3.33111 12.1632 6.0898 9.72479 5.80948 5.84849Z"/>
<path id="path4_fill" d="M 5.39702 11.2832C 5.39702 11.2832 7.34356 8.1638 5.95767 4.52584C 4.57177 0.890503 0.668216 5.59504e-07 0.668216 5.59504e-07C 0.668216 5.59504e-07 -0.801513 3.14818 0.618439 6.88042C 2.04363 10.6074 5.39702 11.2832 5.39702 11.2832Z"/>
<path id="path5_fill" d="M 4.05482 12.103C 4.05482 12.103 6.58558 9.80074 5.88608 5.87206C 5.18659 1.946 2.30739 -3.99646e-08 2.30739 -3.99646e-08C 2.30739 -3.99646e-08 -0.577055 2.77103 0.104103 6.6028C 0.78526 10.4267 4.05482 12.103 4.05482 12.103Z"/>
<path id="path6_fill" d="M 10.4951 6.54609C 10.4951 6.54609 10.3012 3.12814 6.81682 1.18999C 3.32457 -0.742917 1.68647e-08 0.260207 1.68647e-08 0.260207C 1.68647e-08 0.260207 0.32486 4.24388 3.72541 6.13227C 7.1312 8.02065 10.4951 6.54609 10.4951 6.54609Z"/>
<path id="path7_fill" d="M 11.6295 4.77944C 11.6295 4.77944 10.6811 1.49245 6.85349 0.376703C 3.01805 -0.739041 1.89884e-07 0.979099 1.89884e-07 0.979099C 1.89884e-07 0.979099 1.20775 4.78992 4.94101 5.87947C 8.67952 6.97164 11.6295 4.77944 11.6295 4.77944Z"/>
<path id="path8_fill" d="M 12.2346 2.74988C 12.2346 2.74988 10.3379 -0.0944838 6.35048 0.00242359C 2.35785 0.099331 -5.09688e-07 2.64773 -5.09688e-07 2.64773C -5.09688e-07 2.64773 2.30546 5.92163 6.19068 5.82472C 10.0811 5.73567 12.2346 2.74988 12.2346 2.74988Z"/>
<path id="path9_fill" d="M 5.98371 0.0812914C 2.03299 0.660117 -2.99817e-08 3.47043 -2.99817e-08 3.47043C -2.99817e-08 3.47043 2.67485 6.44575 6.52601 5.88788C 10.3798 5.32738 12.1534 2.11111 12.1534 2.11111C 12.1534 2.11111 9.9318 -0.487057 5.98371 0.0812914Z"/>
<path id="path10_fill" d="M 1.90552 0.0759559L 0.000899909 -1.75844e-06C -0.00433977 0.209528 -0.478532 20.8351 30.653 30.133L 31.1979 28.3101C 1.55446 19.4548 1.87146 0.859073 1.90552 0.0759559Z"/>
<path id="path11_fill" d="M 0.115635 9.09882C 0.115635 9.09882 3.77293 9.51788 6.4635 6.71018C 9.15669 3.90249 8.29215 9.19185e-07 8.29215 9.19185e-07C 8.29215 9.19185e-07 4.81825 0.015713 2.04908 2.89674C -0.709611 5.78039 0.115635 9.09882 0.115635 9.09882Z"/>
<path id="path12_fill" d="M 0.0784748 6.53732C 0.670558 10.3848 3.90082 12.1396 3.90082 12.1396C 3.90082 12.1396 6.47874 9.90027 5.8788 5.95588C 5.26837 2.00886 2.43895 -1.03908e-06 2.43895 -1.03908e-06C 2.43895 -1.03908e-06 -0.513608 2.69769 0.0784748 6.53732Z"/>
<path id="path13_fill" d="M 3.20274 -7.59327e-07C 3.20274 -7.59327e-07 -0.074673 2.29173 0.00130223 6.17588C 0.0877569 10.06 3.06389 12.2313 3.06389 12.2313C 3.06389 12.2313 5.91689 10.3403 5.83306 6.35137C 5.74399 2.36507 3.20274 -7.59327e-07 3.20274 -7.59327e-07Z"/>
<path id="path14_fill" d="M 0.0196578 5.85635C -0.258045 9.73003 2.49803 12.1632 2.49803 12.1632C 2.49803 12.1632 5.51084 10.5577 5.80426 6.57137C 6.08982 2.58769 3.78175 -1.15897e-06 3.78175 -1.15897e-06C 3.78175 -1.15897e-06 0.30784 1.97743 0.0196578 5.85635Z"/>
<path id="path15_fill" d="M 0.498001 4.52846C -0.887893 8.1638 1.05865 11.2832 1.05865 11.2832C 1.05865 11.2832 4.40942 10.6074 5.83461 6.88305C 7.25456 3.1508 5.78221 1.75844e-06 5.78221 1.75844e-06C 5.78221 1.75844e-06 1.88913 0.893122 0.498001 4.52846Z"/>
<path id="path16_fill" d="M 1.95173 12.1056C 1.95173 12.1056 5.22129 10.4293 5.90507 6.6028C 6.58623 2.77103 3.69916 1.15897e-06 3.69916 1.15897e-06C 3.69916 1.15897e-06 0.817341 1.94601 0.123085 5.87207C -0.579032 9.80336 1.95173 12.1056 1.95173 12.1056Z"/>
<path id="path17_fill" d="M 3.67825 1.19327C 0.193869 3.1288 -2.31858e-06 6.54675 -2.31858e-06 6.54675C -2.31858e-06 6.54675 3.36649 8.02393 6.76966 6.13554C 10.1702 4.24716 10.4951 0.260857 10.4951 0.260857C 10.4951 0.260857 7.1705 -0.744882 3.67825 1.19327Z"/>
<path id="path18_fill" d="M 4.77596 0.377404C 0.948382 1.49315 4.79707e-07 4.78014 4.79707e-07 4.78014C 4.79707e-07 4.78014 2.95518 6.96973 6.69369 5.8828C 10.427 4.79586 11.6347 0.982423 11.6347 0.982423C 11.6347 0.982423 8.61141 -0.74096 4.77596 0.377404Z"/>
<path id="path19_fill" d="M 5.88415 0.00242118C 1.89676 -0.0944862 -1.19927e-07 2.75249 -1.19927e-07 2.75249C -1.19927e-07 2.75249 2.15088 5.73567 6.04396 5.82734C 9.92918 5.92163 12.2346 2.65035 12.2346 2.65035C 12.2346 2.65035 9.88203 0.101948 5.88415 0.00242118Z"/>
<path id="path20_fill" d="M 6.16709 0.0814305C 2.21638 -0.486918 -1.67897e-06 2.10601 -1.67897e-06 2.10601C -1.67897e-06 2.10601 1.77625 5.32491 5.62479 5.8854C 9.47857 6.44327 12.1508 3.46533 12.1508 3.46533C 12.1508 3.46533 10.1178 0.660256 6.16709 0.0814305Z"/>
<path id="path21_fill" d="M 31.1996 8.79221e-07L 29.2924 0.0759536C 29.3265 0.864308 29.6435 19.4522 2.47848e-06 28.3074L 0.544924 30.1277C 31.6791 20.8351 31.2049 0.20953 31.1996 8.79221e-07Z"/>
<path id="path22_fill" d="M 15.3057 0C 6.86595 0 0 6.75535 0 15.0591C 0 21.3592 3.95337 26.9399 9.90368 29.1438L 9.90368 37.2049C 9.90368 37.6948 10.3061 38.0907 10.804 38.0907L 11.7044 38.0907L 11.7044 39.8624C 11.7044 40.3522 12.1068 40.7482 12.6047 40.7482L 18.0067 40.7482C 18.5046 40.7482 18.907 40.3522 18.907 39.8624L 18.907 38.0907L 19.8074 38.0907C 20.3053 38.0907 20.7077 37.6948 20.7077 37.2049L 20.7077 29.1438C 26.658 26.9399 30.6114 21.3592 30.6114 15.0591C 30.6114 6.75535 23.7454 0 15.3057 0ZM 18.0067 36.3191C 17.5088 36.3191 17.1064 36.715 17.1064 37.2049L 17.1064 38.9766L 13.505 38.9766L 13.505 37.2049C 13.505 36.715 13.1026 36.3191 12.6047 36.3191L 11.7044 36.3191L 11.7044 31.8899L 18.907 31.8899L 18.907 36.3191L 18.0067 36.3191ZM 19.5265 27.6751C 19.1564 27.7947 18.907 28.1349 18.907 28.5167L 18.907 30.1182L 11.7044 30.1182L 11.7044 28.5167C 11.7044 28.134 11.455 27.7947 11.0849 27.6751C 5.53256 25.8787 1.80067 20.8082 1.80067 15.0591C 1.80067 7.73242 7.85902 1.77166 15.3057 1.77166C 22.7524 1.77166 28.8107 7.73242 28.8107 15.0591C 28.8107 20.8082 25.0788 25.8787 19.5265 27.6751Z"/>
<path id="path23_fill" d="M 0.900335 5.31498C 1.39822 5.31498 1.80067 4.91902 1.80067 4.42915L 1.80067 0.885831C 1.80067 0.395966 1.39822 0 0.900335 0C 0.40245 0 0 0.395966 0 0.885831L 0 4.42915C 0 4.91902 0.40245 5.31498 0.900335 5.31498Z"/>
<path id="path24_fill" d="M 4.50167 0L 0.900335 0C 0.40245 0 0 0.395966 0 0.885831C 0 1.3757 0.40245 1.77166 0.900335 1.77166L 4.50167 1.77166C 4.99956 1.77166 5.40201 1.3757 5.40201 0.885831C 5.40201 0.395966 4.99956 0 4.50167 0Z"/>
<path id="path25_fill" d="M 2.81017 0.259438L 0.264024 2.76457C -0.088007 3.11093 -0.088007 3.67077 0.264024 4.01713C 0.439589 4.18987 0.670076 4.27668 0.900561 4.27668C 1.13105 4.27668 1.36153 4.18987 1.5371 4.01713L 4.08325 1.512C 4.43528 1.16564 4.43528 0.605798 4.08325 0.259438C 3.73121 -0.086922 3.1613 -0.0860362 2.81017 0.259438Z"/>
<path id="path26_fill" d="M 2.81017 0.259771L 0.264023 2.7649C -0.0880082 3.11126 -0.0880082 3.67111 0.264023 4.01747C 0.439588 4.1902 0.670075 4.27701 0.90056 4.27701C 1.13105 4.27701 1.36153 4.1902 1.5371 4.01747L 4.08324 1.51233C 4.43528 1.16597 4.43528 0.60613 4.08324 0.259771C 3.73121 -0.0865892 3.1622 -0.0865892 2.81017 0.259771Z"/>
<path id="path27_fill" d="M 1.5371 0.259771C 1.18506 -0.0865892 0.616055 -0.0865892 0.264024 0.259771C -0.088007 0.60613 -0.088007 1.16597 0.264024 1.51233L 2.81017 4.01747C 2.98574 4.1902 3.21622 4.27701 3.44671 4.27701C 3.67719 4.27701 3.90768 4.1902 4.08325 4.01747C 4.43528 3.67111 4.43528 3.11126 4.08325 2.7649L 1.5371 0.259771Z"/>
<path id="path28_fill" d="M 2.81017 4.01746C 2.98574 4.1902 3.21622 4.27701 3.44671 4.27701C 3.67719 4.27701 3.90768 4.1902 4.08324 4.01746C 4.43528 3.6711 4.43528 3.11126 4.08324 2.7649L 1.5371 0.25977C 1.18507 -0.0865899 0.616054 -0.0865899 0.264023 0.25977C -0.0880082 0.60613 -0.0880082 1.16597 0.264023 1.51233L 2.81017 4.01746Z"/>
<path id="path29_fill" d="M 10.804 0C 4.8465 0 0 4.76843 0 10.63C 0 11.1198 0.40245 11.5158 0.900335 11.5158C 1.39822 11.5158 1.80067 11.1198 1.80067 10.63C 1.80067 5.7455 5.83957 1.77166 10.804 1.77166C 11.3019 1.77166 11.7044 1.3757 11.7044 0.885831C 11.7044 0.395966 11.3019 0 10.804 0Z"/>
</defs>
</svg>
