<svg width="1725" height="768" viewBox="0 0 1725 768" version="1.1" xmlns="http://www.w3.org/2000/svg" xmlns:xlink="http://www.w3.org/1999/xlink">
<title>case-study</title>
<desc>Created using Figma</desc>
<g id="Canvas" transform="matrix(3 0 0 3 372 -240)">
<g id="case-study">
<g id="Ellipse">
<mask id="mask0_outline_ins">
<use xlink:href="#path0_fill" fill="white" transform="translate(32 80)"/>
</mask>
<g mask="url(#mask0_outline_ins)">
<use xlink:href="#path1_stroke_2x" transform="translate(32 80)" fill="#FFC61C"/>
</g>
</g>
<g id="Group 3">
<g id="Ellipse">
<use xlink:href="#path0_fill" transform="translate(-124 80)" fill="#4D4D4D"/>
</g>
<g id="Group 2">
<g id="trophy">
<g id="Vector">
<use xlink:href="#path2_fill" transform="translate(-10.4835 247.612)" fill="#FFFFFF"/>
</g>
<g id="Vector">
<use xlink:href="#path3_fill" transform="translate(-35.5003 268.021)" fill="#FFC61C"/>
</g>
<g id="Vector">
<use xlink:href="#path4_fill" transform="translate(-5.54611 247.283)" fill="#FFFFFF"/>
</g>
<g id="Group">
<g id="Vector">
<use xlink:href="#path5_fill" transform="translate(-75 156.104)" fill="#FAA214"/>
</g>
<g id="Vector">
<use xlink:href="#path6_fill" transform="translate(-51.3003 138)" fill="#FAA214"/>
</g>
</g>
<g id="Vector">
<use xlink:href="#path7_fill" transform="translate(-47.3499 146.229)" fill="#FFC61C"/>
</g>
<g id="Vector">
<use xlink:href="#path8_fill" transform="translate(-24.9669 161.042)" fill="#FFFFFF"/>
</g>
<g id="Vector">
<use xlink:href="#path9_fill" transform="translate(-47.3502 146.229)" fill="#FFC61C"/>
</g>
</g>
</g>
</g>
<g id="Group 4">
<g id="11 MARCH">
<use xlink:href="#path10_fill" transform="translate(79 145)" fill="#FFFFFF"/>
</g>
<g id="IIT ROORKEE">
<use xlink:href="#path11_fill" transform="translate(83 228)" fill="#FFFFFF"/>
</g>
</g>
</g>
</g>
<defs>
<path id="path0_fill" d="M 256 128C 256 198.692 198.692 256 128 256C 57.3076 256 0 198.692 0 128C 0 57.3076 57.3076 0 128 0C 198.692 0 256 57.3076 256 128Z"/>
<path id="path1_stroke_2x" d="M 252 128C 252 196.483 196.483 252 128 252L 128 260C 200.902 260 260 200.902 260 128L 252 128ZM 128 252C 59.5167 252 4 196.483 4 128L -4 128C -4 200.902 55.0984 260 128 260L 128 252ZM 4 128C 4 59.5167 59.5167 4 128 4L 128 -4C 55.0984 -4 -4 55.0984 -4 128L 4 128ZM 128 4C 196.483 4 252 59.5167 252 128L 260 128C 260 55.0984 200.902 -4 128 -4L 128 4Z"/>
<path id="path2_fill" d="M 28.9666 20.4084L 9.61371e-07 20.4084L 4.93735 9.87502L 9.21661 -3.53785e-06L 19.75 -3.53785e-06L 24.0293 9.87502L 28.9666 20.4084Z"/>
<path id="path3_fill" d="M 72.4167 -4.61459e-06L 6.58333 -4.61459e-06C 2.96247 -4.61459e-06 3.26866e-07 2.96247 3.26866e-07 6.58335L 3.26866e-07 27.9791L 78.6708 27.9791L 78.6708 6.58335C 79 2.96247 76.0375 -4.61459e-06 72.4167 -4.61459e-06Z"/>
<path id="path4_fill" d="M 19.0919 10.2042C 16.4586 11.521 13.8254 12.8375 11.1918 13.8251L 9.54612 14.1543L 7.90012 13.4959C 5.26685 12.5083 2.63359 11.1918 2.26884e-06 9.87502L 4.27926 1.84584e-06L 14.4835 1.84584e-06L 19.0919 10.2042Z"/>
<path id="path5_fill" d="M 0 5.57597e-07L 0 13.4959C 0 46.4126 20.4084 74.7209 49.0458 86.5711C 58.2624 90.5212 68.4666 92.4961 79 92.4961C 89.5334 92.4961 99.7376 90.5212 108.954 86.5711C 137.592 74.7212 158 46.4126 158 13.4962L 158 5.57597e-07L 0 5.57597e-07ZM 144.833 13.4959C 144.833 29.2959 139.237 43.7794 129.691 55.3001C 117.512 69.7832 99.4081 79.3294 79 79.3294C 58.5919 79.3294 40.4876 70.1127 28.3085 55.3001C 19.0919 44.1082 13.167 29.2959 13.167 13.4959L 13.167 13.1667L 144.504 13.1667L 144.504 13.4959L 144.833 13.4959Z"/>
<path id="path6_fill" d="M 106.65 0L 3.95006 0C 1.64599 0 7.11415e-07 1.97488 7.11415e-07 3.95007C 7.11415e-07 6.25415 1.64568 8.22934 3.95006 8.22934L 106.65 8.22934C 108.954 8.22934 110.6 6.25446 110.6 4.27927C 110.6 1.97488 108.954 0 106.65 0Z"/>
<path id="path7_fill" d="M 102.7 -8.17167e-08L 102.7 35.55C 102.7 68.4667 82.2914 98.421 51.3499 110.271C 20.4084 98.0918 9.99826e-07 68.4667 9.99826e-07 35.2208L 9.99826e-07 -8.17167e-08L 102.7 -8.17167e-08Z"/>
<path id="path8_fill" d="M 28.9669 -7.11416e-07L 35.8791 21.0665L 57.9335 21.0665L 40.1584 34.2332L 46.7417 55.3L 28.9669 42.1334L 11.1918 55.3L 17.7751 34.2332L 1.6151e-06 21.0665L 22.0544 21.0665L 28.9669 -7.11416e-07Z"/>
<path id="path9_fill" d="M 102.371 0L 0 0L 0 4.93735L 102.371 4.93735L 102.371 0Z"/>
<path id="path10_fill" d="M 15.8947 71L 17.5747 71L 17.5747 14.6L 16.1347 14.6L 4.69469 19.8L 5.41469 21.32L 15.8947 16.6L 15.8947 71ZM 41.1291 71L 42.8091 71L 42.8091 14.6L 41.3691 14.6L 29.9291 19.8L 30.6491 21.32L 41.1291 16.6L 41.1291 71ZM 83.2653 71L 85.0253 71L 85.0253 17.96L 109.265 52.52L 109.345 52.52L 133.585 17.96L 133.585 71L 135.345 71L 135.345 15L 133.745 15L 109.345 49.72L 84.9453 15L 83.2653 15L 83.2653 71ZM 146.655 71L 148.495 71L 156.495 54.2L 192.175 54.2L 200.175 71L 202.095 71L 175.135 14.6L 173.615 14.6L 146.655 71ZM 157.295 52.6L 174.335 16.92L 191.375 52.6L 157.295 52.6ZM 213.343 71L 215.103 71L 215.103 46.6L 235.663 46.6L 235.903 46.6L 254.463 71L 256.623 71L 237.983 46.52C 248.783 45.88 256.303 40.28 256.303 30.84L 256.303 30.68C 256.303 26.36 254.863 22.84 252.303 20.28C 248.863 16.84 243.503 15 236.223 15L 213.343 15L 213.343 71ZM 215.103 45L 215.103 16.6L 236.063 16.6C 247.663 16.6 254.543 21.88 254.543 30.76L 254.543 30.92C 254.543 38.84 248.303 45 235.343 45L 215.103 45ZM 294.942 71.96C 304.782 71.96 311.822 67.56 316.702 62.44L 315.422 61.24C 310.942 66.04 304.142 70.36 295.022 70.36C 280.302 70.36 269.342 57.88 269.342 43.08L 269.342 42.92C 269.342 28.28 280.142 15.64 295.022 15.64C 305.022 15.64 310.702 19.8 315.182 24.12L 316.382 22.92C 311.182 17.96 305.662 14.04 295.102 14.04C 279.102 14.04 267.582 27.24 267.582 43L 267.582 43.16C 267.582 59 279.182 71.96 294.942 71.96ZM 328.109 71L 329.869 71L 329.869 43.56L 369.869 43.56L 369.869 71L 371.629 71L 371.629 15L 369.869 15L 369.869 41.96L 329.869 41.96L 329.869 15L 328.109 15L 328.109 71Z"/>
<path id="path11_fill" d="M 2.544 1.2L 2.544 18L 4.44 18L 4.44 1.2L 2.544 1.2ZM 9.52837 1.2L 9.52837 18L 11.4244 18L 11.4244 1.2L 9.52837 1.2ZM 22.7047 2.952L 28.3447 2.952L 28.3447 1.2L 15.1447 1.2L 15.1447 2.952L 20.7848 2.952L 20.7848 18L 22.7047 18L 22.7047 2.952ZM 52.9986 18L 47.8386 11.136C 48.4946 11.024 49.1026 10.832 49.6626 10.56C 50.2226 10.288 50.7026 9.952 51.1026 9.552C 51.5186 9.136 51.8386 8.656 52.0626 8.112C 52.2866 7.552 52.3986 6.92 52.3986 6.216C 52.3986 5.464 52.2546 4.784 51.9666 4.176C 51.6786 3.552 51.2706 3.024 50.7426 2.592C 50.2146 2.144 49.5746 1.8 48.8226 1.56C 48.0866 1.32 47.2546 1.2 46.3266 1.2L 39.1026 1.2L 39.1026 18L 40.9986 18L 40.9986 11.472L 45.7986 11.472L 50.6706 18L 52.9986 18ZM 50.4786 6.288C 50.4786 6.832 50.3666 7.32 50.1426 7.752C 49.9346 8.184 49.6386 8.552 49.2546 8.856C 48.8706 9.144 48.4146 9.368 47.8866 9.528C 47.3586 9.688 46.7826 9.768 46.1586 9.768L 40.9986 9.768L 40.9986 2.952L 46.1826 2.952C 47.5426 2.952 48.5986 3.248 49.3506 3.84C 50.1026 4.416 50.4786 5.232 50.4786 6.288ZM 72.8383 9.576C 72.8383 8.408 72.6303 7.304 72.2143 6.264C 71.8143 5.208 71.2383 4.288 70.4863 3.504C 69.7343 2.704 68.8303 2.072 67.7743 1.608C 66.7343 1.144 65.5743 0.912 64.2943 0.912C 63.0143 0.912 61.8463 1.152 60.7903 1.632C 59.7343 2.096 58.8303 2.728 58.0783 3.528C 57.3263 4.328 56.7423 5.256 56.3263 6.312C 55.9103 7.352 55.7023 8.456 55.7023 9.624C 55.7023 10.792 55.9023 11.904 56.3023 12.96C 56.7183 14 57.3023 14.92 58.0543 15.72C 58.8063 16.504 59.7023 17.128 60.7423 17.592C 61.7983 18.056 62.9663 18.288 64.2463 18.288C 65.5263 18.288 66.6943 18.056 67.7503 17.592C 68.8063 17.112 69.7103 16.472 70.4623 15.672C 71.2143 14.872 71.7983 13.952 72.2143 12.912C 72.6303 11.856 72.8383 10.744 72.8383 9.576ZM 70.8703 9.624C 70.8703 10.584 70.7023 11.488 70.3663 12.336C 70.0463 13.168 69.5983 13.896 69.0223 14.52C 68.4463 15.144 67.7503 15.64 66.9343 16.008C 66.1343 16.36 65.2543 16.536 64.2943 16.536C 63.3343 16.536 62.4463 16.352 61.6303 15.984C 60.8303 15.616 60.1343 15.12 59.5423 14.496C 58.9503 13.872 58.4863 13.136 58.1503 12.288C 57.8303 11.44 57.6703 10.536 57.6703 9.576C 57.6703 8.616 57.8303 7.72 58.1503 6.888C 58.4863 6.04 58.9423 5.304 59.5183 4.68C 60.0943 4.056 60.7823 3.568 61.5823 3.216C 62.3983 2.848 63.2863 2.664 64.2463 2.664C 65.2063 2.664 66.0863 2.848 66.8863 3.216C 67.7023 3.584 68.4063 4.08 68.9983 4.704C 69.5903 5.328 70.0463 6.064 70.3663 6.912C 70.7023 7.76 70.8703 8.664 70.8703 9.624ZM 93.2289 9.576C 93.2289 8.408 93.0209 7.304 92.6049 6.264C 92.2049 5.208 91.6289 4.288 90.8769 3.504C 90.1249 2.704 89.2209 2.072 88.1649 1.608C 87.1249 1.144 85.9649 0.912 84.6849 0.912C 83.4049 0.912 82.2369 1.152 81.1809 1.632C 80.1249 2.096 79.2209 2.728 78.4689 3.528C 77.7169 4.328 77.1329 5.256 76.7169 6.312C 76.3009 7.352 76.0929 8.456 76.0929 9.624C 76.0929 10.792 76.2929 11.904 76.6929 12.96C 77.1089 14 77.6929 14.92 78.4449 15.72C 79.1969 16.504 80.0929 17.128 81.1329 17.592C 82.1889 18.056 83.3569 18.288 84.6369 18.288C 85.9169 18.288 87.0849 18.056 88.1409 17.592C 89.1969 17.112 90.1009 16.472 90.8529 15.672C 91.6049 14.872 92.1889 13.952 92.6049 12.912C 93.0209 11.856 93.2289 10.744 93.2289 9.576ZM 91.2609 9.624C 91.2609 10.584 91.0929 11.488 90.7569 12.336C 90.4369 13.168 89.9889 13.896 89.4129 14.52C 88.8369 15.144 88.1409 15.64 87.3249 16.008C 86.5249 16.36 85.6449 16.536 84.6849 16.536C 83.7249 16.536 82.8369 16.352 82.0209 15.984C 81.2209 15.616 80.5249 15.12 79.9329 14.496C 79.3409 13.872 78.8769 13.136 78.5409 12.288C 78.2209 11.44 78.0609 10.536 78.0609 9.576C 78.0609 8.616 78.2209 7.72 78.5409 6.888C 78.8769 6.04 79.3329 5.304 79.9089 4.68C 80.4849 4.056 81.1729 3.568 81.9729 3.216C 82.7889 2.848 83.6769 2.664 84.6369 2.664C 85.5969 2.664 86.4769 2.848 87.2769 3.216C 88.0929 3.584 88.7969 4.08 89.3889 4.704C 89.9809 5.328 90.4369 6.064 90.7569 6.912C 91.0929 7.76 91.2609 8.664 91.2609 9.624ZM 111.124 18L 105.964 11.136C 106.62 11.024 107.228 10.832 107.788 10.56C 108.348 10.288 108.828 9.952 109.228 9.552C 109.644 9.136 109.964 8.656 110.188 8.112C 110.412 7.552 110.524 6.92 110.524 6.216C 110.524 5.464 110.38 4.784 110.092 4.176C 109.804 3.552 109.396 3.024 108.868 2.592C 108.34 2.144 107.7 1.8 106.948 1.56C 106.212 1.32 105.38 1.2 104.452 1.2L 97.2276 1.2L 97.2276 18L 99.1236 18L 99.1236 11.472L 103.924 11.472L 108.796 18L 111.124 18ZM 108.604 6.288C 108.604 6.832 108.492 7.32 108.268 7.752C 108.06 8.184 107.764 8.552 107.38 8.856C 106.996 9.144 106.54 9.368 106.012 9.528C 105.484 9.688 104.908 9.768 104.284 9.768L 99.1236 9.768L 99.1236 2.952L 104.308 2.952C 105.668 2.952 106.724 3.248 107.476 3.84C 108.228 4.416 108.604 5.232 108.604 6.288ZM 121.363 8.544L 128.563 1.2L 126.115 1.2L 116.467 11.232L 116.467 1.2L 114.571 1.2L 114.571 18L 116.467 18L 116.467 13.488L 120.043 9.864L 126.499 18L 128.875 18L 121.363 8.544ZM 143.965 1.2L 131.821 1.2L 131.821 18L 144.085 18L 144.085 16.272L 133.717 16.272L 133.717 10.392L 142.885 10.392L 142.885 8.664L 133.717 8.664L 133.717 2.928L 143.965 2.928L 143.965 1.2ZM 160.043 1.2L 147.899 1.2L 147.899 18L 160.163 18L 160.163 16.272L 149.795 16.272L 149.795 10.392L 158.963 10.392L 158.963 8.664L 149.795 8.664L 149.795 2.928L 160.043 2.928L 160.043 1.2Z"/>
</defs>
</svg>
