<svg width="118" height="91" viewBox="0 0 118 91" version="1.1" xmlns="http://www.w3.org/2000/svg" xmlns:xlink="http://www.w3.org/1999/xlink">
<title>diploma</title>
<desc>Created using Figma</desc>
<g id="Canvas" transform="translate(-241 -1005)">
<g id="diploma">
<g id="Group">
<g id="Group">
<g id="Vector">
<use xlink:href="#path0_fill" transform="translate(241 1005)" fill="#2F80ED"/>
</g>
</g>
</g>
<g id="Group">
<g id="Group">
<g id="Vector">
<use xlink:href="#path1_fill" transform="translate(248.867 1012.91)" fill="#FFC61C"/>
</g>
</g>
</g>
<g id="Group">
<g id="Group">
<g id="Vector">
<use xlink:href="#path2_fill" transform="translate(288.2 1060.39)" fill="#FFC61C"/>
</g>
</g>
</g>
<g id="Group">
<g id="Group">
<g id="Vector">
<use xlink:href="#path3_fill" transform="translate(292.133 1080.17)" fill="#FFC61C"/>
</g>
</g>
</g>
<g id="Group">
<g id="Group">
<g id="Vector">
<use xlink:href="#path4_fill" transform="translate(286.233 1022.8)" fill="#2F80ED"/>
</g>
</g>
</g>
<g id="Group">
<g id="Group">
<g id="Vector">
<use xlink:href="#path5_fill" transform="translate(262.633 1032.7)" fill="#2F80ED"/>
</g>
</g>
</g>
<g id="Group">
<g id="Group">
<g id="Vector">
<use xlink:href="#path6_fill" transform="translate(278.367 1042.59)" fill="#2F80ED"/>
</g>
</g>
</g>
<g id="Group">
<g id="Group">
<g id="Vector">
<use xlink:href="#path7_fill" transform="translate(270.5 1052.48)" fill="#2F80ED"/>
</g>
</g>
</g>
<g id="Group">
<g id="Group">
<g id="Vector">
<use xlink:href="#path8_fill" transform="translate(264.6 1066.33)" fill="#2F80ED"/>
</g>
</g>
</g>
<g id="Group">
<g id="Group">
<g id="Vector">
<use xlink:href="#path9_fill" transform="translate(317.7 1066.33)" fill="#2F80ED"/>
</g>
</g>
</g>
</g>
</g>
<defs>
<path id="path0_fill" d="M 116.033 3.96189e-07L 1.96659 3.96189e-07C 0.881082 3.96189e-07 0 0.886274 0 1.97841L 0 83.087C 0 84.181 0.881082 85.0652 1.96659 85.0652L 53.1 85.0652L 53.1 81.1086L 3.93341 81.1086L 3.93341 3.95659L 114.067 3.95659L 114.067 81.1086L 64.9 81.1086L 64.9 85.0652L 116.033 85.0652C 117.121 85.0652 118 84.181 118 83.087L 118 1.97841C 118 0.886274 117.121 3.96189e-07 116.033 3.96189e-07Z"/>
<path id="path1_fill" d="M 100.3 7.91295C 97.0469 7.91295 94.3998 5.25019 94.3998 1.97818C 94.3998 0.886275 93.5208 -7.49929e-07 92.4332 -7.49929e-07L 9.83318 -7.49929e-07C 8.74767 -7.49929e-07 7.86659 0.886275 7.86659 1.97818C 7.86659 5.25019 5.21943 7.91295 1.96659 7.91295C 0.881082 7.91295 -2.60234e-07 8.79923 -2.60234e-07 9.89113L -2.60234e-07 59.3475C -2.60234e-07 60.4415 0.881082 61.3257 1.96659 61.3257C 5.21943 61.3257 7.86659 63.9884 7.86659 67.2604C 7.86659 68.3544 8.74767 69.2386 9.83318 69.2386L 45.2332 69.2386L 45.2332 65.282L 11.6011 65.282C 10.8184 61.4126 7.77993 58.3562 3.93318 57.5668L 3.93318 11.6697C 7.77993 10.8824 10.8184 7.82602 11.6011 3.95659L 90.665 3.95659C 91.4477 7.82602 94.4862 10.8824 98.333 11.6697L 98.333 57.5691C 94.4862 58.3564 91.4477 61.4128 90.665 65.2823L 57.0332 65.2823L 57.0332 69.2389L 92.4332 69.2389C 93.5208 69.2389 94.3998 68.3547 94.3998 67.2607C 94.3998 63.9887 97.0469 61.3259 100.3 61.3259C 101.387 61.3259 102.266 60.4417 102.266 59.3477L 102.266 9.89113C 102.267 8.79923 101.387 7.91295 100.3 7.91295Z"/>
<path id="path2_fill" d="M 11.8 -1.81115e-06C 5.29225 -1.81115e-06 7.03335e-07 5.32345 7.03335e-07 11.8695C 7.03335e-07 18.4156 5.29225 23.7391 11.8 23.7391C 18.3077 23.7391 23.6 18.4156 23.6 11.8695C 23.6 5.32345 18.3077 -1.81115e-06 11.8 -1.81115e-06ZM 11.8 19.7825C 7.46143 19.7825 3.93341 16.2335 3.93341 11.8695C 3.93341 7.5054 7.46166 3.95659 11.8 3.95659C 16.1386 3.95659 19.6666 7.50563 19.6666 11.8695C 19.6666 16.2335 16.1386 19.7825 11.8 19.7825Z"/>
<path id="path3_fill" d="M 11.8 0L 11.8 10.1524L 8.95625 8.24539C 8.29549 7.80028 7.43607 7.80028 6.77532 8.24539L 3.93341 10.1524L 3.93341 0L 1.0128e-06 0L 1.0128e-06 13.8477C 1.0128e-06 14.5778 0.399171 15.2484 1.04034 15.5925C 1.67551 15.9367 2.45426 15.8952 3.05809 15.4935L 7.86659 12.2692L 12.6751 15.4937C 13.0035 15.7132 13.3852 15.8261 13.7666 15.8261C 14.0851 15.8261 14.4038 15.7489 14.6949 15.5927C 15.334 15.2484 15.7334 14.5778 15.7334 13.848L 15.7334 0L 11.8 0Z"/>
<path id="path4_fill" d="M 27.5334 0L 0 0L 0 3.95659L 27.5334 3.95659L 27.5334 0Z"/>
<path id="path5_fill" d="M 76.7 0L 0 0L 0 3.95659L 76.7 3.95659L 76.7 0Z"/>
<path id="path6_fill" d="M 43.2666 0L 0 0L 0 3.95659L 43.2666 3.95659L 43.2666 0Z"/>
<path id="path7_fill" d="M 57.0334 -2.43373e-06L 0 -2.43373e-06L 0 3.95659L 57.0334 3.95659L 57.0334 -2.43373e-06Z"/>
<path id="path8_fill" d="M 17.7 0L 0 0L 0 3.9566L 17.7 3.9566L 17.7 0Z"/>
<path id="path9_fill" d="M 17.7 0L -2.81334e-06 0L -2.81334e-06 3.9566L 17.7 3.9566L 17.7 0Z"/>
</defs>
</svg>
