<svg width="87" height="67" viewBox="0 0 87 67" version="1.1" xmlns="http://www.w3.org/2000/svg" xmlns:xlink="http://www.w3.org/1999/xlink">
<title>diploma</title>
<desc>Created using Figma</desc>
<g id="Canvas" transform="translate(-2552 -2484)">
<g id="diploma">
<g id="Group">
<g id="Group">
<g id="Vector">
<use xlink:href="#path0_fill" transform="translate(2552.58 2484.53)" fill="#6E48AA"/>
</g>
</g>
</g>
<g id="Group">
<g id="Group">
<g id="Vector">
<use xlink:href="#path1_fill" transform="translate(2558.29 2490.27)" fill="#FFC61C"/>
</g>
</g>
</g>
<g id="Group">
<g id="Group">
<g id="Vector">
<use xlink:href="#path2_fill" transform="translate(2586.85 2524.68)" fill="#FFC61C"/>
</g>
</g>
</g>
<g id="Group">
<g id="Group">
<g id="Vector">
<use xlink:href="#path3_fill" transform="translate(2589.71 2539.02)" fill="#FFC61C"/>
</g>
</g>
</g>
<g id="Group">
<g id="Group">
<g id="Vector">
<use xlink:href="#path4_fill" transform="translate(2585.42 2497.44)" fill="#6E48AA"/>
</g>
</g>
</g>
<g id="Group">
<g id="Group">
<g id="Vector">
<use xlink:href="#path5_fill" transform="translate(2568.29 2504.61)" fill="#6E48AA"/>
</g>
</g>
</g>
<g id="Group">
<g id="Group">
<g id="Vector">
<use xlink:href="#path6_fill" transform="translate(2579.71 2511.77)" fill="#6E48AA"/>
</g>
</g>
</g>
<g id="Group">
<g id="Group">
<g id="Vector">
<use xlink:href="#path7_fill" transform="translate(2574 2518.94)" fill="#6E48AA"/>
</g>
</g>
</g>
<g id="Group">
<g id="Group">
<g id="Vector">
<use xlink:href="#path8_fill" transform="translate(2569.72 2528.98)" fill="#6E48AA"/>
</g>
</g>
</g>
<g id="Group">
<g id="Group">
<g id="Vector">
<use xlink:href="#path9_fill" transform="translate(2608.27 2528.98)" fill="#6E48AA"/>
</g>
</g>
</g>
</g>
</g>
<defs>
<path id="path0_fill" d="M 84.2491 2.87146e-07L 1.42789 2.87146e-07C 0.639733 2.87146e-07 0 0.642346 0 1.43389L 0 60.2191C 0 61.0119 0.639733 61.6528 1.42789 61.6528L 38.5547 61.6528L 38.5547 58.7852L 2.85596 58.7852L 2.85596 2.86762L 82.8212 2.86762L 82.8212 58.7852L 47.1224 58.7852L 47.1224 61.6528L 84.2491 61.6528C 85.0388 61.6528 85.677 61.0119 85.677 60.2191L 85.677 1.43389C 85.677 0.642346 85.0388 2.87146e-07 84.2491 2.87146e-07Z"/>
<path id="path1_fill" d="M 72.8253 5.73508C 70.4635 5.73508 68.5415 3.80518 68.5415 1.43373C 68.5415 0.642346 67.9032 -5.43526e-07 67.1136 -5.43526e-07L 7.13964 -5.43526e-07C 6.35148 -5.43526e-07 5.71175 0.642346 5.71175 1.43373C 5.71175 3.80518 3.7897 5.73508 1.42789 5.73508C 0.639733 5.73508 -1.8895e-07 6.37742 -1.8895e-07 7.1688L -1.8895e-07 43.0133C -1.8895e-07 43.8062 0.639733 44.447 1.42789 44.447C 3.7897 44.447 5.71175 46.3769 5.71175 48.7484C 5.71175 49.5413 6.35148 50.1821 7.13964 50.1821L 32.8428 50.1821L 32.8428 47.3145L 8.42329 47.3145C 7.85501 44.5101 5.64883 42.2949 2.85579 41.7227L 2.85579 8.45786C 5.64883 7.88726 7.85501 5.67207 8.42329 2.86762L 65.8298 2.86762C 66.398 5.67207 68.6042 7.88726 71.3973 8.45786L 71.3973 41.7244C 68.6042 42.295 66.398 44.5102 65.8298 47.3147L 41.4105 47.3147L 41.4105 50.1823L 67.1136 50.1823C 67.9032 50.1823 68.5415 49.5415 68.5415 48.7486C 68.5415 46.3771 70.4635 44.4472 72.8253 44.4472C 73.615 44.4472 74.2532 43.8064 74.2532 43.0135L 74.2532 7.1688C 74.2534 6.37742 73.615 5.73508 72.8253 5.73508Z"/>
<path id="path2_fill" d="M 8.5677 -1.31267e-06C 3.84258 -1.31267e-06 5.10675e-07 3.85828 5.10675e-07 8.6027C 5.10675e-07 13.3471 3.84258 17.2054 8.5677 17.2054C 13.2928 17.2054 17.1354 13.3471 17.1354 8.6027C 17.1354 3.85828 13.2928 -1.31267e-06 8.5677 -1.31267e-06ZM 8.5677 14.3378C 5.41757 14.3378 2.85596 11.7655 2.85596 8.6027C 2.85596 5.4397 5.41773 2.86762 8.5677 2.86762C 11.7178 2.86762 14.2794 5.43986 14.2794 8.6027C 14.2794 11.7655 11.7178 14.3378 8.5677 14.3378Z"/>
<path id="path3_fill" d="M 8.5677 0L 8.5677 7.35816L 6.50292 5.97602C 6.02316 5.65342 5.39916 5.65342 4.9194 5.97602L 2.85596 7.35816L 2.85596 0L 7.35372e-07 0L 7.35372e-07 10.0364C 7.35372e-07 10.5655 0.289829 11.0516 0.755363 11.301C 1.21655 11.5505 1.78198 11.5204 2.22041 11.2292L 5.71175 8.89237L 9.20309 11.2294C 9.44154 11.3885 9.71865 11.4703 9.9956 11.4703C 10.2269 11.4703 10.4583 11.4144 10.6696 11.3011C 11.1337 11.0516 11.4237 10.5655 11.4237 10.0366L 11.4237 0L 8.5677 0Z"/>
<path id="path4_fill" d="M 19.9914 0L 0 0L 0 2.86762L 19.9914 2.86762L 19.9914 0Z"/>
<path id="path5_fill" d="M 55.6901 0L 0 0L 0 2.86762L 55.6901 2.86762L 55.6901 0Z"/>
<path id="path6_fill" d="M 31.4149 0L 0 0L 0 2.86762L 31.4149 2.86762L 31.4149 0Z"/>
<path id="path7_fill" d="M 41.4106 0L 0 0L 0 2.86762L 41.4106 2.86762L 41.4106 0Z"/>
<path id="path8_fill" d="M 12.8516 0L 0 0L 0 2.86762L 12.8516 2.86762L 12.8516 0Z"/>
<path id="path9_fill" d="M 12.8516 0L -2.0427e-06 0L -2.0427e-06 2.86762L 12.8516 2.86762L 12.8516 0Z"/>
</defs>
</svg>
