<svg width="30" height="30" viewBox="0 0 30 30" version="1.1" xmlns="http://www.w3.org/2000/svg" xmlns:xlink="http://www.w3.org/1999/xlink">
<title>exclamation-mark</title>
<desc>Created using Figma</desc>
<g id="Canvas" transform="translate(-10 94)">
<g id="exclamation-mark">
<g id="Group">
<g id="Vector">
<use xlink:href="#path0_fill" transform="translate(10 -94)" fill="#E2574C"/>
</g>
</g>
</g>
</g>
<defs>
<path id="path0_fill" d="M 15 0C 6.71621 0 0 6.71621 0 15C 0 23.2847 6.71621 30 15 30C 23.2847 30 30 23.2857 30 15C 30 6.71621 23.2846 0 15 0ZM 15 27.1875C 8.26879 27.1875 2.81255 21.7312 2.81255 15C 2.81255 8.26879 8.26879 2.81255 15 2.81255C 21.7312 2.81255 27.1875 8.26879 27.1875 15C 27.1875 21.7312 21.7312 27.1875 15 27.1875ZM 15.0009 6.57841C 13.9266 6.57841 13.1137 7.13907 13.1137 8.04467L 13.1137 16.3509C 13.1137 17.2574 13.9265 17.8162 15.0009 17.8162C 16.0491 17.8162 16.8882 17.2341 16.8882 16.3509L 16.8882 8.04467C 16.8881 7.16057 16.0491 6.57841 15.0009 6.57841ZM 15.0009 19.6875C 13.9688 19.6875 13.1287 20.5276 13.1287 21.5606C 13.1287 22.5918 13.9688 23.4319 15.0009 23.4319C 16.0331 23.4319 16.8722 22.5918 16.8722 21.5606C 16.8721 20.5275 16.0331 19.6875 15.0009 19.6875Z"/>
</defs>
</svg>
