<svg width="156" height="154" viewBox="0 0 156 154" version="1.1" xmlns="http://www.w3.org/2000/svg" xmlns:xlink="http://www.w3.org/1999/xlink">
<title>Group 5</title>
<desc>Created using Figma</desc>
<g id="Canvas" transform="translate(-327 -3088)">
<g id="Group 5">
<g id="Ellipse 3.2">
<use xlink:href="#path0_fill" transform="translate(327 3088)" fill="#27AE60"/>
</g>
<g id="Ellipse 3.3">
<use xlink:href="#path1_fill" transform="translate(343 3128)" fill="#1E1E1E"/>
</g>
</g>
</g>
<defs>
<path id="path0_fill" d="M 96 48C 96 74.5097 74.5097 96 48 96C 21.4903 96 0 74.5097 0 48C 0 21.4903 21.4903 0 48 0C 74.5097 0 96 21.4903 96 48Z"/>
<path id="path1_fill" d="M 160 80C 160 124.183 124.183 160 80 160C 35.8172 160 0 124.183 0 80C 0 35.8172 35.8172 0 80 0C 124.183 0 160 35.8172 160 80Z"/>
</defs>
</svg>
