<svg width="204" height="136" viewBox="0 0 204 136" version="1.1" xmlns="http://www.w3.org/2000/svg" xmlns:xlink="http://www.w3.org/1999/xlink">
<title>Group 2.1</title>
<desc>Created using Figma</desc>
<g id="Canvas" transform="translate(-2740 -1387)">
<g id="Group 2.1">
<g id="Ellipse">
<mask id="mask0_outline_ins">
<use xlink:href="#path0_fill" fill="white" transform="translate(2807.78 1387)"/>
</mask>
<g mask="url(#mask0_outline_ins)">
<use xlink:href="#path1_stroke_2x" transform="translate(2807.78 1387)" fill="#F96F6F"/>
</g>
</g>
<g id="Group">
<g id="Rectangle 2">
<use xlink:href="#path2_fill" transform="translate(2740 1387)" fill="#1E1E1E"/>
</g>
<g id="logo-04">
<g id="Vector">
<use xlink:href="#path3_fill" transform="translate(2740 1387)" fill="#2EA2F8"/>
</g>
</g>
</g>
<g id="esummit">
<use xlink:href="#path4_fill" transform="translate(2760.78 1433.24)" fill="#FFFFFF"/>
</g>
<g id="IIT ROORKEE">
<use xlink:href="#path5_fill" transform="translate(2761.24 1474.04)" fill="#FFFFFF"/>
</g>
</g>
</g>
<defs>
<path id="path0_fill" d="M 135.552 68C 135.552 105.555 105.207 136 67.7758 136C 30.3443 136 0 105.555 0 68C 0 30.4446 30.3443 0 67.7758 0C 105.207 0 135.552 30.4446 135.552 68Z"/>
<path id="path1_stroke_2x" d="M 133.741 68C 133.741 104.561 104.202 134.19 67.7758 134.19L 67.7758 137.81C 106.213 137.81 137.362 106.55 137.362 68L 133.741 68ZM 67.7758 134.19C 31.3497 134.19 1.81034 104.561 1.81034 68L -1.81034 68C -1.81034 106.55 29.3388 137.81 67.7758 137.81L 67.7758 134.19ZM 1.81034 68C 1.81034 31.4388 31.3497 1.81034 67.7758 1.81034L 67.7758 -1.81034C 29.3388 -1.81034 -1.81034 29.4505 -1.81034 68L 1.81034 68ZM 67.7758 1.81034C 104.202 1.81034 133.741 31.4388 133.741 68L 137.362 68C 137.362 29.4505 106.213 -1.81034 67.7758 -1.81034L 67.7758 1.81034Z"/>
<path id="path2_fill" d="M 0 67.7758C 0 30.3443 30.3443 0 67.7758 0C 105.207 0 135.552 30.3443 135.552 67.7758L 135.552 68.2242C 135.552 105.656 105.207 136 67.7758 136C 30.3443 136 0 105.656 0 68.2242L 0 67.7758Z"/>
<path id="path3_fill" d="M 0.0146558 65.4675C -0.675174 36.2349 23.0441 4.9988 59.1004 0.572929C 80.6667 -2.07531 99.6298 4.47061 115.267 19.9302C 117.976 22.6076 117.899 23.1176 114.309 24.5455C 97.9246 31.0659 81.5308 37.5669 65.1274 44.0485C 61.4749 45.5056 57.8188 46.9371 54.1881 48.4452C 52.1767 49.2758 50.9423 50.6308 52.0569 52.944C 53.0771 55.0604 54.6492 55.4137 56.8313 54.5467C 77.2285 46.4211 97.6317 38.3307 118.041 30.2755C 122.064 28.6872 123.258 29.1426 125.542 32.9273C 133.243 45.6768 136.859 59.6137 134.942 74.3339C 132.128 95.9314 122.46 113.759 103.478 125.557C 78.3903 141.148 47.4641 139.141 24.529 120.476C 23.6831 119.787 22.2453 119.197 22.4813 117.962C 22.681 116.899 24.1623 116.891 25.1136 116.505C 47.1059 107.763 69.1005 99.0204 91.0977 90.2779C 93.8461 89.1851 94.7828 87.5313 93.8171 85.4842C 92.677 83.0727 90.6947 83.2548 88.6615 84.0562C 71.0139 91.0453 53.37 98.0344 35.7297 105.024C 30.2087 107.209 24.7009 109.439 19.2065 111.712C 17.3911 112.462 16.0877 112.225 14.7516 110.52C 4.91971 97.9677 -0.163248 83.8158 0.0146558 65.4675Z"/>
<path id="path4_fill" d="M 11.1517 29.4345C 14.7 29.4345 16.9086 27.9862 18.7913 25.9586L 17.5603 24.8724C 16.0396 26.5017 14.0845 27.769 11.2241 27.769C 7.60344 27.769 4.30861 25.0897 3.98275 20.4914L 19.2982 20.4914C 19.3345 20.2017 19.3345 20.0931 19.3345 19.7673C 19.3345 14.3 16.0396 10.1 10.8621 10.1C 5.86551 10.1 2.1 14.3724 2.1 19.731L 2.1 19.8035C 2.1 25.5604 6.29999 29.4345 11.1517 29.4345ZM 3.98275 18.8983C 4.30861 14.8069 7.13275 11.7293 10.7896 11.7293C 15.0258 11.7293 17.162 15.169 17.4155 18.8983L 3.98275 18.8983ZM 31.1011 29.3621C 34.6494 29.3621 37.4735 27.2621 37.4735 23.9672L 37.4735 23.8948C 37.4735 20.6362 34.3597 19.55 31.3908 18.7173C 28.7477 17.9569 26.2494 17.1966 26.2494 15.1328L 26.2494 15.0604C 26.2494 13.2138 27.9149 11.838 30.4494 11.838C 32.4046 11.838 34.4321 12.5621 36.1339 13.6845L 37.0752 12.2C 35.2287 10.969 32.7304 10.1724 30.5218 10.1724C 26.9373 10.1724 24.439 12.3086 24.439 15.2776L 24.439 15.35C 24.439 18.6448 27.7701 19.55 30.7752 20.419C 33.3459 21.1431 35.6632 21.9397 35.6632 24.1121L 35.6632 24.1845C 35.6632 26.3207 33.708 27.6966 31.2097 27.6966C 28.8563 27.6966 26.6115 26.8276 24.5839 25.2707L 23.5339 26.6828C 25.489 28.2759 28.4218 29.3621 31.1011 29.3621ZM 50.764 29.4345C 54.1312 29.4345 56.195 27.7328 57.426 25.5604L 57.426 29L 59.2002 29L 59.2002 10.5345L 57.426 10.5345L 57.426 21.2155C 57.426 25.0535 54.6381 27.8052 51.0174 27.8052C 47.2881 27.8052 45.1519 25.3069 45.1519 21.5052L 45.1519 10.5345L 43.3778 10.5345L 43.3778 21.831C 43.3778 26.2483 46.0933 29.4345 50.764 29.4345ZM 66.5603 29L 68.3345 29L 68.3345 18.3552C 68.3345 14.6259 70.9414 11.7293 74.2362 11.7293C 77.531 11.7293 79.631 14.0828 79.631 17.9207L 79.631 29L 81.4051 29L 81.4051 18.2466C 81.4051 14.119 84.1206 11.7293 87.2344 11.7293C 90.6379 11.7293 92.7017 14.0466 92.7017 18.0293L 92.7017 29L 94.4758 29L 94.4758 17.8121C 94.4758 13.1776 91.7603 10.1 87.3793 10.1C 83.9034 10.1 81.912 12.019 80.7172 14.0828C 79.7034 11.9466 77.712 10.1 74.4896 10.1C 71.1948 10.1 69.5293 11.9104 68.3345 13.8293L 68.3345 10.5345L 66.5603 10.5345L 66.5603 29ZM 101.615 29L 103.389 29L 103.389 18.3552C 103.389 14.6259 105.996 11.7293 109.291 11.7293C 112.585 11.7293 114.685 14.0828 114.685 17.9207L 114.685 29L 116.46 29L 116.46 18.2466C 116.46 14.119 119.175 11.7293 122.289 11.7293C 125.692 11.7293 127.756 14.0466 127.756 18.0293L 127.756 29L 129.53 29L 129.53 17.8121C 129.53 13.1776 126.815 10.1 122.434 10.1C 118.958 10.1 116.966 12.019 115.772 14.0828C 114.758 11.9466 112.766 10.1 109.544 10.1C 106.249 10.1 104.584 11.9104 103.389 13.8293L 103.389 10.5345L 101.615 10.5345L 101.615 29ZM 136.705 5.719L 138.914 5.719L 138.914 3.29315L 136.705 3.29315L 136.705 5.719ZM 136.923 29L 138.697 29L 138.697 10.5345L 136.923 10.5345L 136.923 29ZM 152.456 29.3259C 153.615 29.3259 154.52 29.1086 155.461 28.6741L 155.461 27.0086C 154.411 27.4793 153.651 27.6603 152.746 27.6603C 150.61 27.6603 149.053 26.719 149.053 24.0759L 149.053 12.1638L 155.534 12.1638L 155.534 10.5345L 149.053 10.5345L 149.053 4.6328L 147.279 4.6328L 147.279 10.5345L 144.599 10.5345L 144.599 12.1638L 147.279 12.1638L 147.279 24.2569C 147.279 27.769 149.596 29.3259 152.456 29.3259Z"/>
<path id="path5_fill" d="M 1.15138 9L 2.00948 9L 2.00948 1.39656L 1.15138 1.39656L 1.15138 9ZM 4.36671 9L 5.22482 9L 5.22482 1.39656L 4.36671 1.39656L 4.36671 9ZM 9.5155 9L 10.3845 9L 10.3845 2.18949L 12.937 2.18949L 12.937 1.39656L 6.96291 1.39656L 6.96291 2.18949L 9.5155 2.18949L 9.5155 9ZM 17.9145 9L 18.7726 9L 18.7726 6.04552L 20.945 6.04552L 23.15 9L 24.2036 9L 21.8683 5.89345C 23.0631 5.67621 23.9321 4.93759 23.9321 3.67759L 23.9321 3.65587C 23.9321 3.05846 23.7148 2.52622 23.3455 2.15691C 22.8676 1.67898 22.1181 1.39656 21.184 1.39656L 17.9145 1.39656L 17.9145 9ZM 18.7726 5.27432L 18.7726 2.18949L 21.1188 2.18949C 22.3462 2.18949 23.0631 2.75432 23.0631 3.68846L 23.0631 3.71018C 23.0631 4.68777 22.2485 5.27432 21.1079 5.27432L 18.7726 5.27432ZM 29.3485 9.13034C 31.6621 9.13034 33.2371 7.29466 33.2371 5.19828L 33.2371 5.17656C 33.2371 3.08018 31.6838 1.26622 29.3702 1.26622C 27.0566 1.26622 25.4816 3.10191 25.4816 5.19828L 25.4816 5.22001C 25.4816 7.31638 27.0349 9.13034 29.3485 9.13034ZM 29.3702 8.33741C 27.6323 8.33741 26.3723 6.92535 26.3723 5.19828L 26.3723 5.17656C 26.3723 3.44949 27.6106 2.05915 29.3485 2.05915C 31.0864 2.05915 32.3464 3.47122 32.3464 5.19828L 32.3464 5.22001C 32.3464 6.94707 31.1082 8.33741 29.3702 8.33741ZM 38.6313 9.13034C 40.9449 9.13034 42.5199 7.29466 42.5199 5.19828L 42.5199 5.17656C 42.5199 3.08018 40.9667 1.26622 38.653 1.26622C 36.3394 1.26622 34.7644 3.10191 34.7644 5.19828L 34.7644 5.22001C 34.7644 7.31638 36.3177 9.13034 38.6313 9.13034ZM 38.653 8.33741C 36.9151 8.33741 35.6551 6.92535 35.6551 5.19828L 35.6551 5.17656C 35.6551 3.44949 36.8934 2.05915 38.6313 2.05915C 40.3692 2.05915 41.6292 3.47122 41.6292 5.19828L 41.6292 5.22001C 41.6292 6.94707 40.391 8.33741 38.653 8.33741ZM 44.384 9L 45.2421 9L 45.2421 6.04552L 47.4145 6.04552L 49.6195 9L 50.6731 9L 48.3377 5.89345C 49.5326 5.67621 50.4015 4.93759 50.4015 3.67759L 50.4015 3.65587C 50.4015 3.05846 50.1843 2.52622 49.815 2.15691C 49.3371 1.67898 48.5876 1.39656 47.6534 1.39656L 44.384 1.39656L 44.384 9ZM 45.2421 5.27432L 45.2421 2.18949L 47.5883 2.18949C 48.8157 2.18949 49.5326 2.75432 49.5326 3.68846L 49.5326 3.71018C 49.5326 4.68777 48.7179 5.27432 47.5774 5.27432L 45.2421 5.27432ZM 52.2878 9L 53.1459 9L 53.1459 6.95793L 54.7643 5.31776L 57.6862 9L 58.7616 9L 55.3618 4.72035L 58.6204 1.39656L 57.5124 1.39656L 53.1459 5.9369L 53.1459 1.39656L 52.2878 1.39656L 52.2878 9ZM 60.1492 9L 65.6997 9L 65.6997 8.21793L 61.0073 8.21793L 61.0073 5.55673L 65.1566 5.55673L 65.1566 4.77466L 61.0073 4.77466L 61.0073 2.17863L 65.6454 2.17863L 65.6454 1.39656L 60.1492 1.39656L 60.1492 9ZM 67.4802 9L 73.0308 9L 73.0308 8.21793L 68.3383 8.21793L 68.3383 5.55673L 72.4876 5.55673L 72.4876 4.77466L 68.3383 4.77466L 68.3383 2.17863L 72.9764 2.17863L 72.9764 1.39656L 67.4802 1.39656L 67.4802 9Z"/>
</defs>
</svg>
