<svg width="116" height="98" viewBox="0 0 116 98" version="1.1" xmlns="http://www.w3.org/2000/svg" xmlns:xlink="http://www.w3.org/1999/xlink">
<title>idea-casestudy</title>
<desc>Created using Figma</desc>
<g id="Canvas" transform="translate(54 -997)">
<g id="idea-casestudy">
<g id="award-star-with-olive-branches">
<g id="Group">
<g id="Group">
<g id="Vector">
<use xlink:href="#path0_fill" transform="translate(-54 1045.55)"/>
</g>
<g id="Vector">
<use xlink:href="#path1_fill" transform="translate(-37.0004 1040.51)"/>
</g>
<g id="Vector">
<use xlink:href="#path2_fill" transform="translate(-31.2765 1053.76)"/>
</g>
<g id="Vector">
<use xlink:href="#path3_fill" transform="translate(-22.035 1061.57)"/>
</g>
<g id="Vector">
<use xlink:href="#path4_fill" transform="translate(-12.2985 1069.45)"/>
</g>
<g id="Vector">
<use xlink:href="#path5_fill" transform="translate(-46.2867 1029.66)"/>
</g>
<g id="Vector">
<use xlink:href="#path6_fill" transform="translate(-52.4216 1059.46)"/>
</g>
<g id="Vector">
<use xlink:href="#path7_fill" transform="translate(-45.8835 1071.05)"/>
</g>
<g id="Vector">
<use xlink:href="#path8_fill" transform="translate(-37.6568 1080.37)"/>
</g>
<g id="Vector">
<use xlink:href="#path9_fill" transform="translate(-25.1796 1086.71)"/>
</g>
<g id="Vector">
<use xlink:href="#path10_fill" transform="translate(-41.5332 1048.95)"/>
</g>
<g id="Vector">
<use xlink:href="#path11_fill" transform="translate(50.3975 1045.62)"/>
</g>
<g id="Vector">
<use xlink:href="#path12_fill" transform="translate(36.7772 1040.59)"/>
</g>
<g id="Vector">
<use xlink:href="#path13_fill" transform="translate(31.2402 1053.83)"/>
</g>
<g id="Vector">
<use xlink:href="#path14_fill" transform="translate(22.0032 1061.64)"/>
</g>
<g id="Vector">
<use xlink:href="#path15_fill" transform="translate(11.4037 1069.52)"/>
</g>
<g id="Vector">
<use xlink:href="#path16_fill" transform="translate(46.0141 1029.73)"/>
</g>
<g id="Vector">
<use xlink:href="#path17_fill" transform="translate(45.9599 1059.53)"/>
</g>
<g id="Vector">
<use xlink:href="#path18_fill" transform="translate(37.8595 1071.13)"/>
</g>
<g id="Vector">
<use xlink:href="#path19_fill" transform="translate(28.8028 1080.45)"/>
</g>
<g id="Vector">
<use xlink:href="#path20_fill" transform="translate(16.4411 1086.78)"/>
</g>
<g id="Vector">
<use xlink:href="#path21_fill" transform="translate(6.55823 1049.02)"/>
</g>
</g>
</g>
</g>
<g id="idea">
<g id="Group">
<g id="Vector">
<use xlink:href="#path22_fill" transform="translate(-17.08 1006.78)" fill="#FFC61C"/>
</g>
<g id="Vector">
<use xlink:href="#path23_fill" transform="translate(2.76 997)" fill="#FFC61C"/>
</g>
<g id="Vector">
<use xlink:href="#path24_fill" transform="translate(27.56 1026.33)" fill="#FFC61C"/>
</g>
<g id="Vector">
<use xlink:href="#path24_fill" transform="translate(-27 1026.33)" fill="#FFC61C"/>
</g>
<g id="Vector">
<use xlink:href="#path25_fill" transform="translate(20.297 1005.59)" fill="#FFC61C"/>
</g>
<g id="Vector">
<use xlink:href="#path26_fill" transform="translate(-18.2843 1043.62)" fill="#FFC61C"/>
</g>
<g id="Vector">
<use xlink:href="#path27_fill" transform="translate(20.297 1043.62)" fill="#FFC61C"/>
</g>
<g id="Vector">
<use xlink:href="#path28_fill" transform="translate(-18.2843 1005.59)" fill="#FFC61C"/>
</g>
<g id="Vector">
<use xlink:href="#path29_fill" transform="translate(-10.88 1012.89)" fill="#FFC61C"/>
</g>
</g>
</g>
</g>
</g>
<defs>
<path id="path0_fill" d="M 11.4433 12.5468C 11.4433 12.5468 12.5726 7.96464 8.77679 3.99316C 4.96652 0.0144577 0.182032 -2.37106e-06 0.182032 -2.37106e-06C 0.182032 -2.37106e-06 -1.00868 5.38083 2.70056 9.25835C 6.4062 13.125 11.4433 12.5468 11.4433 12.5468Z"/>
<path id="path1_fill" d="M 2.84722 16.7568C 2.84722 16.7568 7.29614 14.3392 8.1116 9.02708C 8.93066 3.72936 4.86421 -5.78981e-07 4.86421 -5.78981e-07C 4.86421 -5.78981e-07 0.967338 2.77533 0.126625 8.2176C -0.706872 13.6635 2.84722 16.7568 2.84722 16.7568Z"/>
<path id="path2_fill" d="M 3.81292 16.8761C 3.81292 16.8761 7.91185 13.8875 8.03092 8.52115C 8.13917 3.162 3.6253 -2.70191e-06 3.6253 -2.70191e-06C 3.6253 -2.70191e-06 0.121723 3.25235 0.002652 8.76328C -0.116419 14.2706 3.81292 16.8761 3.81292 16.8761Z"/>
<path id="path3_fill" d="M 8.00119 8.06944C 7.61151 2.72475 2.8198 -3.30846e-07 2.8198 -3.30846e-07C 2.8198 -3.30846e-07 -0.362641 3.56674 0.0342625 9.06321C 0.431166 14.5597 4.58782 16.7821 4.58782 16.7821C 4.58782 16.7821 8.38727 13.4177 8.00119 8.06944Z"/>
<path id="path4_fill" d="M 7.43313 15.5679C 7.43313 15.5679 10.114 11.264 8.20529 6.24451C 6.29654 1.22867 0.92031 7.71974e-07 0.92031 7.71974e-07C 0.92031 7.71974e-07 -1.1039 4.34369 0.851754 9.49324C 2.81462 14.6356 7.43313 15.5679 7.43313 15.5679Z"/>
<path id="path5_fill" d="M 5.58456 16.699C 5.58456 16.699 9.07009 13.5225 8.1067 8.10196C 7.1433 2.68499 3.17788 -5.5141e-08 3.17788 -5.5141e-08C 3.17788 -5.5141e-08 -0.794758 3.82332 0.143377 9.11019C 1.08151 14.3862 5.58456 16.699 5.58456 16.699Z"/>
<path id="path6_fill" d="M 14.4545 9.03195C 14.4545 9.03195 14.1875 4.31604 9.38856 1.64189C 4.57882 -1.02504 2.32271e-08 0.35902 2.32271e-08 0.35902C 2.32271e-08 0.35902 0.447418 5.85548 5.13088 8.46098C 9.82155 11.0665 14.4545 9.03195 14.4545 9.03195Z"/>
<path id="path7_fill" d="M 16.0168 6.59442C 16.0168 6.59442 14.7107 2.0592 9.43908 0.519755C 4.15666 -1.01969 2.6152e-07 1.35091 2.6152e-07 1.35091C 2.6152e-07 1.35091 1.66339 6.60887 6.80509 8.11218C 11.954 9.6191 16.0168 6.59442 16.0168 6.59442Z"/>
<path id="path8_fill" d="M 16.8503 3.79414C 16.8503 3.79414 14.238 -0.130364 8.7463 0.00334395C 3.24739 0.137052 -7.01976e-07 3.6532 -7.01976e-07 3.6532C -7.01976e-07 3.6532 3.17523 8.17035 8.5262 8.03664C 13.8844 7.91378 16.8503 3.79414 16.8503 3.79414Z"/>
<path id="path9_fill" d="M 8.24115 0.112162C 2.79997 0.910794 -4.12927e-08 4.78831 -4.12927e-08 4.78831C -4.12927e-08 4.78831 3.68398 8.8935 8.98805 8.12378C 14.2957 7.35044 16.7385 2.91279 16.7385 2.91279C 16.7385 2.91279 13.6787 -0.672016 8.24115 0.112162Z"/>
<path id="path10_fill" d="M 2.62441 0.1048L 0.00123941 -2.4262e-06C -0.00597701 0.289095 -0.659066 28.7472 42.2173 41.5759L 42.9678 39.0607C 2.14091 26.8427 2.5775 1.1853 2.62441 0.1048Z"/>
<path id="path11_fill" d="M 0.159261 12.5541C 0.159261 12.5541 5.19632 13.1323 8.90196 9.25836C 12.6112 5.38445 11.4205 1.26824e-06 11.4205 1.26824e-06C 11.4205 1.26824e-06 6.636 0.0216799 2.82212 3.99677C -0.977323 7.97548 0.159261 12.5541 0.159261 12.5541Z"/>
<path id="path12_fill" d="M 0.108081 9.01985C 0.923536 14.3284 5.37246 16.7496 5.37246 16.7496C 5.37246 16.7496 8.92294 13.6599 8.09666 8.2176C 7.25595 2.77172 3.35908 -1.43367e-06 3.35908 -1.43367e-06C 3.35908 -1.43367e-06 -0.707375 3.72213 0.108081 9.01985Z"/>
<path id="path13_fill" d="M 4.41103 -1.04768e-06C 4.41103 -1.04768e-06 -0.102845 3.162 0.00179352 8.52115C 0.120864 13.8803 4.21979 16.8761 4.21979 16.8761C 4.21979 16.8761 8.14913 14.267 8.03367 8.76328C 7.91099 3.26319 4.41103 -1.04768e-06 4.41103 -1.04768e-06Z"/>
<path id="path14_fill" d="M 0.0270741 8.08028C -0.355396 13.425 3.44044 16.7821 3.44044 16.7821C 3.44044 16.7821 7.58988 14.5669 7.994 9.06683C 8.3873 3.57036 5.20847 -1.59909e-06 5.20847 -1.59909e-06C 5.20847 -1.59909e-06 0.423977 2.72836 0.0270741 8.08028Z"/>
<path id="path15_fill" d="M 0.685879 6.24813C -1.22286 11.264 1.45804 15.5679 1.45804 15.5679C 1.45804 15.5679 6.07294 14.6356 8.03581 9.49686C 9.99146 4.34731 7.96364 2.4262e-06 7.96364 2.4262e-06C 7.96364 2.4262e-06 2.60184 1.23228 0.685879 6.24813Z"/>
<path id="path16_fill" d="M 2.68805 16.7026C 2.68805 16.7026 7.1911 14.3898 8.13284 9.11019C 9.07098 3.82332 5.09473 1.59909e-06 5.09473 1.59909e-06C 5.09473 1.59909e-06 1.1257 2.685 0.16952 8.10196C -0.79748 13.5262 2.68805 16.7026 2.68805 16.7026Z"/>
<path id="path17_fill" d="M 5.06593 1.6464C 0.267009 4.31695 -3.1933e-06 9.03285 -3.1933e-06 9.03285C -3.1933e-06 9.03285 4.63655 11.071 9.32362 8.46549C 14.0071 5.86 14.4545 0.359917 14.4545 0.359917C 14.4545 0.359917 9.87567 -1.02775 5.06593 1.6464Z"/>
<path id="path18_fill" d="M 6.57777 0.520722C 1.30617 2.06017 6.60683e-07 6.59539 6.60683e-07 6.59539C 6.60683e-07 6.59539 4.07006 9.61646 9.21898 8.11677C 14.3607 6.61707 16.0241 1.3555 16.0241 1.3555C 16.0241 1.3555 11.8602 -1.02234 6.57777 0.520722Z"/>
<path id="path19_fill" d="M 8.10404 0.00334061C 2.61235 -0.130367 -1.65171e-07 3.79775 -1.65171e-07 3.79775C -1.65171e-07 3.79775 2.96234 7.91377 8.32414 8.04025C 13.6751 8.17035 16.8503 3.65681 16.8503 3.65681C 16.8503 3.65681 13.6102 0.140662 8.10404 0.00334061Z"/>
<path id="path20_fill" d="M 8.49373 0.112354C 3.05254 -0.671824 -2.31239e-06 2.90576 -2.31239e-06 2.90576C -2.31239e-06 2.90576 2.44637 7.34703 7.74683 8.12037C 13.0545 8.89009 16.7349 4.78128 16.7349 4.78128C 16.7349 4.78128 13.9349 0.910986 8.49373 0.112354Z"/>
<path id="path21_fill" d="M 42.9702 1.2131e-06L 40.3434 0.104797C 40.3903 1.19253 40.8269 26.8391 3.41353e-06 39.0571L 0.750505 41.5686C 43.6305 28.7472 42.9774 0.289099 42.9702 1.2131e-06Z"/>
<path id="path22_fill" d="M 21.08 0C 9.45624 0 0 9.32067 0 20.7778C 0 29.4702 5.44484 37.1702 13.64 40.2111L 13.64 51.3333C 13.64 52.0092 14.1943 52.5556 14.88 52.5556L 16.12 52.5556L 16.12 55C 16.12 55.6759 16.6743 56.2222 17.36 56.2222L 24.8 56.2222C 25.4857 56.2222 26.04 55.6759 26.04 55L 26.04 52.5556L 27.28 52.5556C 27.9657 52.5556 28.52 52.0092 28.52 51.3333L 28.52 40.2111C 36.7152 37.1702 42.16 29.4702 42.16 20.7778C 42.16 9.32067 32.7038 0 21.08 0ZM 24.8 50.1111C 24.1143 50.1111 23.56 50.6574 23.56 51.3333L 23.56 53.7778L 18.6 53.7778L 18.6 51.3333C 18.6 50.6574 18.0457 50.1111 17.36 50.1111L 16.12 50.1111L 16.12 44L 26.04 44L 26.04 50.1111L 24.8 50.1111ZM 26.8931 38.1847C 26.3835 38.3497 26.04 38.819 26.04 39.3458L 26.04 41.5556L 16.12 41.5556L 16.12 39.3458C 16.12 38.8178 15.7765 38.3497 15.2669 38.1847C 7.6198 35.706 2.48 28.71 2.48 20.7778C 2.48 10.6688 10.824 2.44444 21.08 2.44444C 31.336 2.44444 39.68 10.6688 39.68 20.7778C 39.68 28.71 34.5402 35.706 26.8931 38.1847Z"/>
<path id="path23_fill" d="M 1.24 7.33333C 1.92572 7.33333 2.48 6.787 2.48 6.11111L 2.48 1.22222C 2.48 0.546333 1.92572 0 1.24 0C 0.55428 0 0 0.546333 0 1.22222L 0 6.11111C 0 6.787 0.55428 7.33333 1.24 7.33333Z"/>
<path id="path24_fill" d="M 6.2 0L 1.24 0C 0.55428 0 0 0.546333 0 1.22222C 0 1.89811 0.55428 2.44444 1.24 2.44444L 6.2 2.44444C 6.88572 2.44444 7.44 1.89811 7.44 1.22222C 7.44 0.546333 6.88572 0 6.2 0Z"/>
<path id="path25_fill" d="M 3.87035 0.357958L 0.363631 3.8144C -0.121209 4.29229 -0.121209 5.06474 0.363631 5.54263C 0.605431 5.78096 0.922872 5.90074 1.24031 5.90074C 1.55775 5.90074 1.87519 5.78096 2.11699 5.54263L 5.62371 2.08618C 6.10855 1.60829 6.10855 0.835847 5.62371 0.357958C 5.13887 -0.11993 4.35395 -0.118708 3.87035 0.357958Z"/>
<path id="path26_fill" d="M 3.87035 0.358418L 0.363629 3.81486C -0.121211 4.29275 -0.121211 5.0652 0.363629 5.54309C 0.605429 5.78142 0.92287 5.9012 1.24031 5.9012C 1.55775 5.9012 1.87519 5.78142 2.11699 5.54309L 5.62371 2.08664C 6.10855 1.60875 6.10855 0.836307 5.62371 0.358418C 5.13887 -0.119471 4.35519 -0.119471 3.87035 0.358418Z"/>
<path id="path27_fill" d="M 2.11699 0.358418C 1.63215 -0.119471 0.848471 -0.119471 0.363631 0.358418C -0.121209 0.836307 -0.121209 1.60875 0.363631 2.08664L 3.87035 5.54309C 4.11215 5.78142 4.42959 5.9012 4.74703 5.9012C 5.06447 5.9012 5.38191 5.78142 5.62371 5.54309C 6.10855 5.0652 6.10855 4.29275 5.62371 3.81486L 2.11699 0.358418Z"/>
<path id="path28_fill" d="M 3.87035 5.54308C 4.11215 5.78142 4.42959 5.9012 4.74703 5.9012C 5.06447 5.9012 5.38191 5.78142 5.62371 5.54308C 6.10855 5.06519 6.10855 4.29275 5.62371 3.81486L 2.11699 0.358417C 1.63215 -0.119472 0.848469 -0.119472 0.363629 0.358417C -0.121211 0.836306 -0.121211 1.60875 0.363629 2.08664L 3.87035 5.54308Z"/>
<path id="path29_fill" d="M 14.88 0C 6.67492 0 0 6.57922 0 14.6667C 0 15.3426 0.55428 15.8889 1.24 15.8889C 1.92572 15.8889 2.48 15.3426 2.48 14.6667C 2.48 7.92733 8.04264 2.44444 14.88 2.44444C 15.5657 2.44444 16.12 1.89811 16.12 1.22222C 16.12 0.546333 15.5657 0 14.88 0Z"/>
</defs>
</svg>
