<svg xmlns="http://www.w3.org/2000/svg" width="197" height="124" viewBox="0 0 197 124">
    <path fill="#000" fill-rule="nonzero" d="M42.762.165a1.586 1.586 0 0 0-1.567 1.604v1.586h-1.586a1.586 1.586 0 1 0 0 3.17h1.586v1.586a1.586 1.586 0 1 0 3.17 0V6.525h1.586a1.586 1.586 0 1 0 0-3.17h-1.586V1.769A1.586 1.586 0 0 0 42.762.165zM17.439 9.696a1.586 1.586 0 0 0-1.56 1.61v3.146a1.586 1.586 0 1 0 3.17 0v-3.146a1.586 1.586 0 0 0-1.61-1.61zm-7.94 3.164a1.586 1.586 0 0 0-1.102 2.719l3.171 3.17a1.586 1.586 0 1 0 2.242-2.24l-3.17-3.172c-.3-.306-.712-.478-1.14-.477zm14.281 6.33c-4.364 0-7.926 3.562-7.926 7.926v74.513H4.756c-.875 0-1.585.71-1.585 1.585 0 7.695 5.912 14.033 13.308 14.033h119.243c7.396 0 13.302-6.338 13.302-14.033 0-.876-.71-1.585-1.585-1.585h-11.098V27.122c.02-4.372-3.562-7.939-7.926-7.939H23.78v.007zm0 3.177h104.635c2.662 0 4.768 2.096 4.756 4.75v74.518H87.177c-.876 0-1.586.71-1.586 1.585 0 1.53-1.086 2.626-2.378 2.626H68.957c-1.292 0-2.378-1.096-2.378-2.626 0-.875-.71-1.585-1.585-1.585h-45.97V27.123a4.711 4.711 0 0 1 4.756-4.756zm-15.99 0a1.587 1.587 0 1 0 .162 3.17h3.146a1.586 1.586 0 1 0 0-3.17H7.952a1.586 1.586 0 0 0-.161 0zm155.503 1.826a1.586 1.586 0 0 0-1.103 2.725l1.121 1.121-1.12 1.12a1.586 1.586 0 1 0 2.241 2.243l1.121-1.121 1.121 1.12a1.586 1.586 0 1 0 2.242-2.241l-1.121-1.12 1.12-1.122a1.586 1.586 0 1 0-2.241-2.242l-1.12 1.121-1.122-1.12a1.586 1.586 0 0 0-1.14-.484zM26.95 28.708c-.875 0-1.585.71-1.585 1.585v63.415c0 .876.71 1.585 1.585 1.585h98.293c.875 0 1.585-.71 1.585-1.585V30.293c0-.875-.71-1.585-1.585-1.585H26.95zm1.586 3.17h95.122v60.245H28.537V31.879zm-23.78 6.355C2.147 38.233 0 40.38 0 42.989s2.148 4.756 4.756 4.756 4.756-2.148 4.756-4.756-2.148-4.756-4.756-4.756zm0 3.17c.893 0 1.584.692 1.584 1.586 0 .894-.69 1.585-1.585 1.585-.894 0-1.585-.69-1.585-1.585 0-.894.69-1.586 1.585-1.586zm145.81 6.323A1.586 1.586 0 0 0 149 49.33v1.586h-1.586a1.586 1.586 0 1 0 0 3.17H149v1.586a1.586 1.586 0 1 0 3.17 0v-1.586h1.586a1.586 1.586 0 1 0 0-3.17h-1.586V49.33a1.586 1.586 0 0 0-1.604-1.604zm34.81 9.531a1.585 1.585 0 0 0-1.475 1.585 1.585 1.585 0 1 0 1.586-1.585 1.585 1.585 0 0 0-.112 0zm-18.845 9.506a1.586 1.586 0 1 0 0 3.17h22.145a1.586 1.586 0 1 0 0-3.17h-22.145zm-9.513 0c-2.144-.032-2.144 3.201 0 3.17h3.171c2.144.032 2.144-3.2 0-3.17h-3.17zm11.116 3.17a1.586 1.586 0 0 1 .081 3.165h-4.88c-2.144-.032-2.144 3.201 0 3.17h22.177c2.143.032 2.143-3.2 0-3.17h-1.722a1.586 1.586 0 0 1-.019-3.164h-6.106a1.586 1.586 0 0 1 .08 3.164h-3.486a1.586 1.586 0 0 1-.019-3.164h-6.106zm1.63 6.342a1.586 1.586 0 0 1 .08 3.164h-3.332c-2.144-.031-2.144 3.202 0 3.171H176c2.128.032 2.138-3.145.044-3.164h-.155a1.586 1.586 0 0 1-.019-3.165h-6.106v-.006zm12.577 3.17c-2.144-.03-2.144 3.202 0 3.172 2.144.031 2.144-3.202 0-3.171zM4.998 84.469a1.586 1.586 0 0 0-1.109 2.719l1.121 1.12-1.12 1.122a1.586 1.586 0 1 0 2.24 2.241l1.122-1.12 1.12 1.12a1.586 1.586 0 1 0 2.243-2.241l-1.121-1.121 1.12-1.121a1.586 1.586 0 1 0-2.241-2.242l-1.121 1.121-1.121-1.121a1.586 1.586 0 0 0-1.133-.47v-.007zM156.95 85.78c-.875 0-1.585.71-1.585 1.586v10.986a1.586 1.586 0 0 0 0 .11v19.025c0 3.486 2.856 6.341 6.341 6.341h19.025c3.485 0 6.341-2.855 6.341-6.341v-3.17h3.17c3.487 0 6.342-2.856 6.342-6.342v-9.512c0-3.486-2.855-6.342-6.341-6.342h-3.17v-4.756c0-.876-.71-1.585-1.586-1.585h-28.536zm1.586 3.171H183.902v28.537c0 1.784-1.386 3.17-3.17 3.17h-19.025c-1.784 0-3.17-1.386-3.17-3.17v-9.507-19.03zm28.536 6.341h3.17c1.785 0 3.172 1.387 3.172 3.171v9.512c0 1.785-1.387 3.171-3.171 3.171h-3.17v-3.165-12.689zM6.64 104.806h57.395c.713 2.309 2.427 4.21 4.923 4.21h14.256c2.497 0 4.21-1.901 4.923-4.21h57.42c-.738 5.276-4.765 9.276-9.834 9.276H16.48c-5.069 0-9.101-4-9.84-9.276z"/>
</svg>
