<svg width="554" height="300" viewBox="0 0 554 300" version="1.1" xmlns="http://www.w3.org/2000/svg" xmlns:xlink="http://www.w3.org/1999/xlink">
<title>Group 2</title>
<desc>Created using Figma</desc>
<g id="Canvas" transform="translate(-282 -89)">
<g id="Group 2">
<g id="Ellipse">
<mask id="mask0_outline_ins">
<use xlink:href="#path0_fill" fill="white" transform="translate(432 89)"/>
</mask>
<g mask="url(#mask0_outline_ins)">
<use xlink:href="#path1_stroke_2x" transform="translate(432 89)" fill="#F96F6F"/>
</g>
</g>
<g id="Group">
<g id="Rectangle 2">
<use xlink:href="#path2_fill" transform="translate(282 89)" fill="#1E1E1E"/>
</g>
<g id="logo-04">
<g id="Vector">
<use xlink:href="#path3_fill" transform="translate(282 89)" fill="#2EA2F8"/>
</g>
</g>
</g>
<g id="10-11 MARCH">
<use xlink:href="#path4_fill" transform="translate(328 191)" fill="#FFFFFF"/>
</g>
<g id="IIT ROORKEE">
<use xlink:href="#path5_fill" transform="translate(329 281)" fill="#FFFFFF"/>
</g>
</g>
</g>
<defs>
<path id="path0_fill" d="M 300 150C 300 232.843 232.843 300 150 300C 67.1573 300 0 232.843 0 150C 0 67.1573 67.1573 0 150 0C 232.843 0 300 67.1573 300 150Z"/>
<path id="path1_stroke_2x" d="M 296 150C 296 230.634 230.634 296 150 296L 150 304C 235.052 304 304 235.052 304 150L 296 150ZM 150 296C 69.3664 296 4 230.634 4 150L -4 150C -4 235.052 64.9482 304 150 304L 150 296ZM 4 150C 4 69.3664 69.3664 4 150 4L 150 -4C 64.9482 -4 -4 64.9482 -4 150L 4 150ZM 150 4C 230.634 4 296 69.3664 296 150L 304 150C 304 64.9482 235.052 -4 150 -4L 150 4Z"/>
<path id="path2_fill" d="M 0 150C 0 67.1573 67.1573 0 150 0C 232.843 0 300 67.1573 300 150C 300 232.843 232.843 300 150 300C 67.1573 300 0 232.843 0 150Z"/>
<path id="path3_fill" d="M 0.0324342 144.414C -1.49428 79.93 51.0007 11.0268 130.8 1.26381C 178.53 -4.57789 220.498 9.86164 255.107 43.9637C 261.101 49.8697 260.932 50.9946 252.985 54.1445C 216.725 68.5278 180.442 82.8682 144.139 97.1658C 136.055 100.38 127.963 103.538 119.928 106.864C 115.476 108.697 112.744 111.686 115.211 116.788C 117.469 121.457 120.948 122.236 125.778 120.324C 170.92 102.399 216.076 84.553 261.246 66.7841C 270.149 63.2807 272.793 64.2851 277.847 72.6338C 294.89 100.758 302.893 131.501 298.65 163.972C 292.423 211.613 271.025 250.938 229.016 276.965C 173.492 311.356 105.047 306.929 54.2872 265.756C 52.4149 264.237 49.2329 262.935 49.7552 260.211C 50.1972 257.865 53.4756 257.849 55.5808 256.997C 104.254 237.712 152.932 218.427 201.615 199.142C 207.698 196.732 209.771 193.084 207.634 188.568C 205.111 183.249 200.723 183.65 196.224 185.418C 157.166 200.835 118.117 216.252 79.0762 231.67C 66.8571 236.491 54.6675 241.408 42.5073 246.423C 38.4897 248.078 35.605 247.555 32.6479 243.795C 10.8882 216.105 -0.361298 184.888 0.0324342 144.414Z"/>
<path id="path4_fill" d="M 14.32 64L 18.4 64L 18.4 7.6L 15.2 7.6L 2.4 12.32L 3.52 15.6L 14.32 11.92L 14.32 64ZM 56.4769 64.96C 70.7169 64.96 79.7569 51.44 79.7569 36L 79.7569 35.84C 79.7569 20.4 70.8769 7.04 56.6369 7.04C 42.3969 7.04 33.3569 20.56 33.3569 36L 33.3569 36.16C 33.3569 51.6 42.2369 64.96 56.4769 64.96ZM 56.6369 61.2C 45.0369 61.2 37.6769 48.96 37.6769 36L 37.6769 35.84C 37.6769 22.8 44.8769 10.8 56.4769 10.8C 68.0769 10.8 75.4369 22.96 75.4369 36L 75.4369 36.16C 75.4369 49.12 68.2369 61.2 56.6369 61.2ZM 91.9138 42.48L 113.354 42.48L 113.354 38L 91.9138 38L 91.9138 42.48ZM 132.228 64L 136.308 64L 136.308 7.6L 133.108 7.6L 120.308 12.32L 121.428 15.6L 132.228 11.92L 132.228 64ZM 160.385 64L 164.465 64L 164.465 7.6L 161.265 7.6L 148.465 12.32L 149.585 15.6L 160.385 11.92L 160.385 64ZM 207.886 64L 211.886 64L 211.886 15.36L 234.046 47.6L 234.366 47.6L 256.526 15.36L 256.526 64L 260.686 64L 260.686 8L 256.766 8L 234.286 41.12L 211.806 8L 207.886 8L 207.886 64ZM 273.899 64L 278.219 64L 285.339 48.32L 318.379 48.32L 325.499 64L 330.059 64L 303.979 7.6L 299.979 7.6L 273.899 64ZM 287.099 44.56L 301.899 12.16L 316.619 44.56L 287.099 44.56ZM 343.263 64L 347.423 64L 347.423 40.8L 365.743 40.8L 383.583 64L 388.863 64L 370.383 40.08C 379.823 38.8 386.783 33.44 386.783 24.08L 386.783 23.92C 386.783 19.92 385.183 16.16 382.543 13.52C 379.183 10.16 373.663 8 366.783 8L 343.263 8L 343.263 64ZM 347.423 37.04L 347.423 11.84L 366.543 11.84C 376.703 11.84 382.623 16.56 382.623 24.08L 382.623 24.24C 382.623 32.32 375.663 37.04 366.303 37.04L 347.423 37.04ZM 427.795 64.96C 437.715 64.96 444.115 61.04 450.035 55.2L 447.235 52.48C 441.555 58.08 436.035 61.2 427.955 61.2C 414.595 61.2 404.275 50.16 404.275 36L 404.275 35.84C 404.275 21.76 414.435 10.8 427.875 10.8C 436.275 10.8 441.875 14.32 446.755 19.04L 449.715 16C 443.955 10.72 437.955 7.04 427.955 7.04C 411.795 7.04 399.955 20.16 399.955 36L 399.955 36.16C 399.955 52.24 411.795 64.96 427.795 64.96ZM 462.858 64L 467.018 64L 467.018 37.76L 502.858 37.76L 502.858 64L 507.018 64L 507.018 8L 502.858 8L 502.858 33.92L 467.018 33.92L 467.018 8L 462.858 8L 462.858 64Z"/>
<path id="path5_fill" d="M 2.544 19L 4.44 19L 4.44 2.2L 2.544 2.2L 2.544 19ZM 9.64837 19L 11.5444 19L 11.5444 2.2L 9.64837 2.2L 9.64837 19ZM 21.0247 19L 22.9447 19L 22.9447 3.952L 28.5847 3.952L 28.5847 2.2L 15.3847 2.2L 15.3847 3.952L 21.0247 3.952L 21.0247 19ZM 39.5826 19L 41.4786 19L 41.4786 12.472L 46.2786 12.472L 51.1506 19L 53.4786 19L 48.3186 12.136C 50.9586 11.656 52.8786 10.024 52.8786 7.24L 52.8786 7.192C 52.8786 5.872 52.3986 4.696 51.5826 3.88C 50.5266 2.824 48.8706 2.2 46.8066 2.2L 39.5826 2.2L 39.5826 19ZM 41.4786 10.768L 41.4786 3.952L 46.6626 3.952C 49.3746 3.952 50.9586 5.2 50.9586 7.264L 50.9586 7.312C 50.9586 9.472 49.1586 10.768 46.6386 10.768L 41.4786 10.768ZM 64.8463 19.288C 69.9583 19.288 73.4383 15.232 73.4383 10.6L 73.4383 10.552C 73.4383 5.92 70.0063 1.912 64.8943 1.912C 59.7823 1.912 56.3023 5.968 56.3023 10.6L 56.3023 10.648C 56.3023 15.28 59.7343 19.288 64.8463 19.288ZM 64.8943 17.536C 61.0543 17.536 58.2703 14.416 58.2703 10.6L 58.2703 10.552C 58.2703 6.736 61.0063 3.664 64.8463 3.664C 68.6863 3.664 71.4703 6.784 71.4703 10.6L 71.4703 10.648C 71.4703 14.464 68.7343 17.536 64.8943 17.536ZM 85.3569 19.288C 90.4689 19.288 93.9489 15.232 93.9489 10.6L 93.9489 10.552C 93.9489 5.92 90.5169 1.912 85.4049 1.912C 80.2929 1.912 76.8129 5.968 76.8129 10.6L 76.8129 10.648C 76.8129 15.28 80.2449 19.288 85.3569 19.288ZM 85.4049 17.536C 81.5649 17.536 78.7809 14.416 78.7809 10.6L 78.7809 10.552C 78.7809 6.736 81.5169 3.664 85.3569 3.664C 89.1969 3.664 91.9809 6.784 91.9809 10.6L 91.9809 10.648C 91.9809 14.464 89.2449 17.536 85.4049 17.536ZM 98.0676 19L 99.9636 19L 99.9636 12.472L 104.764 12.472L 109.636 19L 111.964 19L 106.804 12.136C 109.444 11.656 111.364 10.024 111.364 7.24L 111.364 7.192C 111.364 5.872 110.884 4.696 110.068 3.88C 109.012 2.824 107.356 2.2 105.292 2.2L 98.0676 2.2L 98.0676 19ZM 99.9636 10.768L 99.9636 3.952L 105.148 3.952C 107.86 3.952 109.444 5.2 109.444 7.264L 109.444 7.312C 109.444 9.472 107.644 10.768 105.124 10.768L 99.9636 10.768ZM 115.531 19L 117.427 19L 117.427 14.488L 121.003 10.864L 127.459 19L 129.835 19L 122.323 9.544L 129.523 2.2L 127.075 2.2L 117.427 12.232L 117.427 2.2L 115.531 2.2L 115.531 19ZM 132.901 19L 145.165 19L 145.165 17.272L 134.797 17.272L 134.797 11.392L 143.965 11.392L 143.965 9.664L 134.797 9.664L 134.797 3.928L 145.045 3.928L 145.045 2.2L 132.901 2.2L 132.901 19ZM 149.099 19L 161.363 19L 161.363 17.272L 150.995 17.272L 150.995 11.392L 160.163 11.392L 160.163 9.664L 150.995 9.664L 150.995 3.928L 161.243 3.928L 161.243 2.2L 149.099 2.2L 149.099 19Z"/>
</defs>
</svg>
