<svg xmlns="http://www.w3.org/2000/svg" width="119" height="136" viewBox="0 0 119 136">
    <path fill="#000" fill-rule="evenodd" d="M59.403.121a4.259 4.259 0 0 0-4.243 4.243c0 1.962 1.362 3.612 3.182 4.089v1.214h2.121V8.453a4.243 4.243 0 0 0 1.865-1.04l.899.55 1.114-1.805-.903-.556c.123-.395.207-.805.207-1.238A4.259 4.259 0 0 0 59.403.12zm0 2.121c1.184 0 2.121.938 2.121 2.122a2.105 2.105 0 0 1-2.121 2.12 2.105 2.105 0 0 1-2.121-2.12c0-1.184.937-2.122 2.12-2.122zm-4.197 3.46L53.4 6.812l1.114 1.806 1.806-1.11-1.114-1.806zm10.942 1.566l-1.115 1.806 1.806 1.115 1.115-1.807-1.806-1.114zm-14.555.659l-1.806 1.11 1.114 1.806 1.807-1.11-1.115-1.806zM69.76 9.493l-1.114 1.806 1.806 1.11 1.115-1.806-1.807-1.11zm-21.78.654l-1.806 1.115 1.11 1.806 1.807-1.114-1.11-1.807zm25.393 1.57l-1.115 1.807 1.807 1.11 1.114-1.806-1.806-1.11zm-15.03.07v2.122h2.12v-2.121h-2.12zm-13.975.585l-1.806 1.11 1.11 1.807 1.806-1.11-1.11-1.807zm32.618 1.566l-1.11 1.806 1.806 1.115 1.11-1.806-1.806-1.115zm-36.23.659l-1.807 1.11 1.11 1.806 1.806-1.11-1.11-1.806zm17.586 1.433v2.122h2.121V16.03h-2.12zm22.256.133l-1.11 1.806 1.806 1.11 1.11-1.806-1.806-1.11zm-43.456.654l-1.806 1.115 1.11 1.806 1.807-1.114-1.11-1.807zm47.069 1.57l-1.11 1.807 1.806 1.11 1.11-1.806-1.806-1.11zm-50.681.655l-1.807 1.11 1.11 1.807 1.807-1.11-1.11-1.807zm24.812 1.23v2.122h2.121v-2.121h-2.12zm29.482.336l-1.11 1.807 1.806 1.114 1.11-1.806-1.806-1.115zm-57.907.659l-1.806 1.11 1.11 1.807 1.806-1.11-1.11-1.807zm61.52 1.566l-1.11 1.806 1.805 1.11 1.11-1.806-1.806-1.11zm-65.133.655l-1.81 1.114 1.114 1.807 1.807-1.115-1.11-1.806zm32.038 1.027v2.121h2.121v-2.12h-2.12zm36.707.543l-1.11 1.806 1.806 1.11 1.11-1.806-1.806-1.11zm-72.361.65l-1.807 1.11 1.115 1.811 1.806-1.114-1.114-1.807zm75.974 1.566l-1.11 1.807 1.806 1.114 1.114-1.806-1.81-1.115zm-79.587.66l-1.806 1.11 1.114 1.806 1.806-1.11-1.114-1.807zm39.267.824v1.114c-7.107.545-12.727 6.49-12.727 13.734 0 7.602 6.185 13.788 13.788 13.788 7.602 0 13.788-6.186 13.788-13.788 0-7.244-5.62-13.19-12.728-13.734v-1.114h-2.12zm1.06 28.636h-11.57c-4.363 0-8.1 2.62-9.766 6.364H21.511c-4.843 0-8.775 3.932-8.775 8.774v19.02l-1.52.908 1.085 1.823.435-.26v1.553H37.13v4.242h21.212v2.121h2.121v-2.12h21.212v-4.243h24.394V94.37l.846.448.998-1.873-1.844-.978V72.532c0-4.842-3.932-8.774-8.774-8.774H80.739c-1.666-3.745-5.403-6.364-9.765-6.364H59.403zm28.637 6.364c5.26 0 9.546-4.287 9.546-9.546 0-5.259-4.287-9.545-9.546-9.545-5.26 0-9.545 4.286-9.545 9.545 0 5.26 4.286 9.546 9.545 9.546zm-57.273 0c5.26 0 9.546-4.287 9.546-9.546 0-5.259-4.286-9.545-9.546-9.545-5.259 0-9.545 4.286-9.545 9.545 0 5.26 4.286 9.546 9.545 9.546zm71.513-34.259l-1.115 1.807 1.806 1.11 1.115-1.807-1.806-1.11zm-86.817.655l-1.806 1.114 1.114 1.807 1.807-1.11-1.115-1.811zm90.43 1.57l-1.115 1.806 1.806 1.11 1.115-1.806-1.807-1.11zm-46.49.215A11.65 11.65 0 0 1 71.07 43.606a11.65 11.65 0 0 1-11.666 11.667 11.65 11.65 0 0 1-11.667-11.667A11.65 11.65 0 0 1 59.403 31.94zm-47.553.44l-1.806 1.11 1.11 1.81 1.807-1.114-1.11-1.807zm97.655 1.566l-1.114 1.806 1.806 1.114 1.114-1.806-1.806-1.114zM4.251 34.06A4.259 4.259 0 0 0 .01 38.304c0 1.962 1.361 3.612 3.182 4.089v1.21h2.12v-1.21a4.245 4.245 0 0 0 2.035-1.218l.994.538 1.007-1.868-.99-.535a4.15 4.15 0 0 0 .137-1.006c0-.434-.085-.848-.207-1.243l1.06-.65-1.11-1.807-1.057.65a4.219 4.219 0 0 0-2.929-1.193zm110.303 0a4.259 4.259 0 0 0-4.242 4.243c0 .349.056.681.137 1.006l-1.007.543 1.007 1.869 1.01-.547a4.24 4.24 0 0 0 2.035 1.218v1.148h2.12v-1.148c1.821-.477 3.183-2.127 3.183-4.09a4.259 4.259 0 0 0-4.243-4.242zM4.251 36.182c1.184 0 2.121.938 2.121 2.122a2.105 2.105 0 0 1-2.12 2.12 2.105 2.105 0 0 1-2.122-2.12c0-1.184.937-2.122 2.121-2.122zm110.303 0c1.184 0 2.121.938 2.121 2.122a2.105 2.105 0 0 1-2.12 2.12 2.105 2.105 0 0 1-2.122-2.12c0-1.184.937-2.122 2.121-2.122zm-103.338 4.67l-1.007 1.868 1.868 1.003 1.007-1.865-1.868-1.006zm96.357 0l-1.864 1.006 1.003 1.865 1.868-1.003-1.007-1.868zm-92.625 2l-1.002 1.87 1.868 1.006 1.003-1.869-1.869-1.006zm88.893 0l-1.869 1.008 1.007 1.868 1.864-1.007-1.002-1.868zm-85.156 2.006l-1.006 1.868 1.317.705L20 45.566l-1.314-.708zm81.419 0l-1.223.659 1.003 1.868 1.226-.659-1.006-1.868zm13.39.775v2.12h2.12v-2.12h-2.12zM3.19 45.698v2.122h2.12v-2.122h-2.12zm27.575 1.065a7.408 7.408 0 0 1 7.425 7.425 7.408 7.408 0 0 1-7.425 7.424 7.408 7.408 0 0 1-7.424-7.424 7.408 7.408 0 0 1 7.424-7.425zm57.273 0a7.408 7.408 0 0 1 7.424 7.425 7.408 7.408 0 0 1-7.424 7.424 7.408 7.408 0 0 1-7.424-7.424 7.408 7.408 0 0 1 7.424-7.425zm25.455 3.112v2.12h2.12v-2.12h-2.12zM3.19 49.94v2.122h2.12V49.94h-2.12zm110.303 4.177v2.12h2.12v-2.12h-2.12zM3.19 54.182v2.122h2.12v-2.122h-2.12zm110.303 4.177v2.12h2.12v-2.12h-2.12zM3.19 58.424v2.122h2.12v-2.122h-2.12zm44.64 1.065h23.143a8.52 8.52 0 0 1 7.822 5.067l.216.597c.165.46.296.924.389 1.4.087.493.153 1 .153 1.52v29.598H72.13V72.217h-2.121V97.67H48.797V72.217h-2.121V97.67H39.25V68.074a8.723 8.723 0 0 1 .543-2.917l.215-.597a8.52 8.52 0 0 1 7.822-5.066v-.005zm65.663 3.112v2.12h2.12v-2.12h-2.12zM3.19 62.666v2.122h2.12v-2.122h-2.12zm18.32 3.186h15.855c-.15.715-.235 1.454-.236 2.213V93.42H21.22V76.45H19.1v16.97h-4.243V72.498a6.617 6.617 0 0 1 6.654-6.654v.008zm59.928 0h15.856a6.617 6.617 0 0 1 6.653 6.654v20.922h-4.242v-16.97h-2.121v16.97h-15.91v-25.36c0-.758-.085-1.497-.236-2.211v-.005zm32.055.99v2.122h2.12v-2.121h-2.12zM3.19 66.909v2.122h2.12v-2.122h-2.12zm110.303 4.177v2.12h2.12v-2.12h-2.12zM3.19 71.15v2.122h2.12V71.15h-2.12zm110.303 4.177v2.12h2.12v-2.12h-2.12zM3.19 75.392v2.122h2.12v-2.122h-2.12zm110.303 4.177v2.12h2.12v-2.12h-2.12zM3.19 79.634v2.122h2.12v-2.122h-2.12zm110.303 4.177v2.12h2.12v-2.12h-2.12zM3.19 83.872v2.121h2.12v-2.12h-2.12zm110.303 4.176v2.121h2.12v-2.12h-2.12zM3.19 88.114v2.121h2.12v-2.121h-2.12zm110.303 4.176v1.284a4.238 4.238 0 0 0-2.039 1.227l-1.67-.887-.998 1.873 1.657.878a4.19 4.19 0 0 0-.132 1.003c0 .43.086.837.207 1.23l-1.114.688 1.11 1.806 1.106-.68a4.226 4.226 0 0 0 2.933 1.198 4.259 4.259 0 0 0 4.243-4.242c0-1.963-1.362-3.617-3.182-4.094V92.29h-2.121zM3.19 92.356v1.218c-1.82.477-3.182 2.13-3.182 4.093a4.259 4.259 0 0 0 4.242 4.242 4.25 4.25 0 0 0 3.514-1.872l-.465.75 1.807 1.114 1.11-1.806-1.806-1.115-.642 1.044a4.204 4.204 0 0 0 .725-2.357c0-1.963-1.362-3.616-3.182-4.093v-1.218H3.19zm6.202 1.16L7.57 94.6l1.085 1.823 1.823-1.085-1.085-1.823zm-5.142 2.03c1.184 0 2.121.937 2.121 2.121a2.105 2.105 0 0 1-2.12 2.121 2.105 2.105 0 0 1-2.122-2.12c0-1.185.937-2.122 2.121-2.122zm110.303 0c1.184 0 2.121.937 2.121 2.121a2.105 2.105 0 0 1-2.12 2.121 2.105 2.105 0 0 1-2.122-2.12c0-1.185.937-2.122 2.121-2.122zm-6.956 5.15l-1.806 1.11 1.11 1.81 1.807-1.114-1.11-1.806zm-95.574.51l-1.11 1.805 1.806 1.11 1.11-1.806-1.806-1.11zm91.962 1.714l-1.811 1.11 1.114 1.807 1.807-1.11-1.11-1.807zm-88.35.51l-1.11 1.806 1.806 1.11 1.11-1.806-1.806-1.11zm42.706.6v2.122h2.121v-2.121h-2.12zm42.027 1.115l-1.807 1.11 1.115 1.807 1.806-1.11-1.114-1.807zm-81.116.506l-1.114 1.806 1.806 1.114 1.114-1.806-1.806-1.114zm77.503 1.715l-1.806 1.114 1.114 1.807 1.806-1.115-1.114-1.806zm-73.89.51l-1.115 1.806 1.807 1.11 1.114-1.806-1.806-1.11zm35.476.397v2.121h2.121v-2.12h-2.12zm34.801 1.318l-1.806 1.11 1.114 1.806 1.807-1.11-1.115-1.806zm-66.665.51l-1.114 1.806 1.806 1.11 1.115-1.806-1.807-1.11zm63.053 1.714l-1.807 1.11 1.11 1.807 1.807-1.11-1.11-1.807zm-59.44.506l-1.114 1.806 1.81 1.115 1.11-1.807-1.806-1.114zm28.251.195v2.121h2.121v-2.121h-2.12zm27.576 1.529l-1.806 1.106 1.11 1.806 1.806-1.114-1.11-1.798zm-52.214.501l-1.11 1.806 1.806 1.11 1.11-1.806-1.806-1.11zm48.601 1.715l-1.806 1.11 1.11 1.807 1.807-1.11-1.11-1.807zm-23.963.497v2.122h2.121v-2.122h-2.12zm-21.026.022l-1.11 1.806 1.806 1.11 1.11-1.806-1.806-1.11zm41.377 1.715l-1.807 1.11 1.11 1.806 1.807-1.11-1.11-1.806zM40.929 119l-1.11 1.807 1.806 1.114 1.11-1.806L40.93 119zm34.15 1.715l-1.805 1.115 1.11 1.806 1.806-1.114-1.11-1.807zm-16.737.295v2.12h2.121v-2.12h-2.12zm-13.8.215l-1.11 1.806 1.806 1.11 1.11-1.806-1.806-1.11zm26.925 1.715l-1.806 1.11 1.11 1.807 1.806-1.11-1.11-1.807zm-23.312.51l-1.11 1.806 1.806 1.11 1.11-1.806-1.806-1.11zm19.7 1.715l-1.807 1.11 1.11 1.807 1.807-1.11-1.11-1.807zm-9.513.087v2.121h2.121v-2.121h-2.12zm1.06 2.121a4.22 4.22 0 0 0-2.928 1.193l-1.094-.67-1.11 1.806 1.097.675a4.173 4.173 0 0 0-.207 1.239 4.259 4.259 0 0 0 4.243 4.242 4.259 4.259 0 0 0 4.242-4.242c0-.734-.206-1.418-.538-2.022l.439.712 1.806-1.114-1.114-1.806-1.807 1.114.39.63a4.233 4.233 0 0 0-3.418-1.757zm-7.635-1.703l-1.11 1.807 1.806 1.114 1.11-1.806-1.806-1.115zm7.636 3.824c1.184 0 2.121.938 2.121 2.122a2.105 2.105 0 0 1-2.121 2.12 2.105 2.105 0 0 1-2.121-2.12c0-1.184.937-2.122 2.12-2.122z"/>
</svg>
