<svg width="89" height="65" viewBox="0 0 89 65" version="1.1" xmlns="http://www.w3.org/2000/svg" xmlns:xlink="http://www.w3.org/1999/xlink">
<title>notes</title>
<desc>Created using Figma</desc>
<g id="Canvas" transform="translate(-2121 -2479)">
<g id="notes">
<g id="Group">
<g id="Vector">
<use xlink:href="#path0_fill" transform="translate(2121.29 2479.46)" fill="#6E48AA"/>
</g>
<g id="Vector">
<use xlink:href="#path1_fill" transform="translate(2125.87 2496.35)" fill="#FFC61C"/>
</g>
<g id="Vector">
<use xlink:href="#path2_fill" transform="translate(2194.6 2496.35)" fill="#FFC61C"/>
</g>
<g id="Vector">
<use xlink:href="#path3_fill" transform="translate(2125.87 2528.11)" fill="#FFC61C"/>
</g>
<g id="Vector">
<use xlink:href="#path3_fill" transform="translate(2194.6 2528.11)" fill="#FFC61C"/>
</g>
<g id="Vector">
<use xlink:href="#path4_fill" transform="translate(2128.93 2496.35)" fill="#6E48AA"/>
</g>
</g>
</g>
</g>
<defs>
<path id="path0_fill" d="M 85.6475 12.3588L 7.63632 5.1922e-08L 7.63632 6.54842L 3.05453 6.18546L 3.05453 12.3603L 0 12.3603L 0 63.7798L 88.5813 63.7798L 88.5813 12.3603L 85.6475 12.3603L 85.6475 12.3588ZM 10.6909 3.54643L 51.6246 10.0313L 10.6909 6.78888L 10.6909 3.54643ZM 6.10906 9.45967L 7.63632 9.58066L 7.63632 9.58217L 17.956 10.3988L 42.7023 12.3588L 6.10906 12.3588L 6.10906 9.45967ZM 85.5268 60.7536L 3.05453 60.7536L 3.05453 15.3835L 80.945 15.3835L 85.5268 15.3835L 85.5268 60.7536Z"/>
<path id="path1_fill" d="M 5.34543 10.5864C 8.29305 10.5864 10.6909 8.21199 10.6909 5.29318C 10.6909 2.37437 8.29305 6.69217e-07 5.34543 6.69217e-07C 2.39781 6.69217e-07 0 2.37437 0 5.29318C 0 8.21199 2.39781 10.5864 5.34543 10.5864ZM 5.34543 3.02468C 6.60847 3.02468 7.63632 4.04248 7.63632 5.29318C 7.63632 6.54389 6.60847 7.56169 5.34543 7.56169C 4.08238 7.56169 3.05453 6.5454 3.05453 5.29318C 3.05453 4.04097 4.08238 3.02468 5.34543 3.02468Z"/>
<path id="path2_fill" d="M 0 5.29318C 0 8.21199 2.39781 10.5864 5.34543 10.5864C 8.29305 10.5864 10.6909 8.21199 10.6909 5.29318C 10.6909 2.37437 8.29305 6.69217e-07 5.34543 6.69217e-07C 2.39781 6.69217e-07 0 2.37588 0 5.29318ZM 7.63632 5.29318C 7.63632 6.54389 6.60847 7.56169 5.34543 7.56169C 4.08238 7.56169 3.05453 6.54389 3.05453 5.29318C 3.05453 4.04248 4.08238 3.02468 5.34543 3.02468C 6.60847 3.02468 7.63632 4.04248 7.63632 5.29318Z"/>
<path id="path3_fill" d="M 5.34543 -2.21534e-06C 2.39781 -2.21534e-06 0 2.37437 0 5.29318C 0 8.21199 2.39781 10.5864 5.34543 10.5864C 8.29305 10.5864 10.6909 8.21199 10.6909 5.29318C 10.6909 2.37437 8.29305 -2.21534e-06 5.34543 -2.21534e-06ZM 5.34543 7.56169C 4.08238 7.56169 3.05453 6.54388 3.05453 5.29318C 3.05453 4.04248 4.08238 3.02467 5.34543 3.02467C 6.60847 3.02467 7.63632 4.04248 7.63632 5.29318C 7.63632 6.54388 6.60847 7.56169 5.34543 7.56169Z"/>
<path id="path4_fill" d="M 40.5458 41.978C 40.7337 41.9432 40.923 41.9159 41.1094 41.8766C 41.6714 41.7572 42.2289 41.615 42.7787 41.4501C 43.0322 41.3745 43.2796 41.2868 43.5286 41.2021C 43.8523 41.0917 44.1746 40.9768 44.4938 40.8513C 44.7687 40.7439 45.0421 40.6335 45.3109 40.5155C 45.6133 40.3809 45.9111 40.2342 46.2089 40.086C 46.6243 39.8788 47.0306 39.6611 47.4307 39.4282C 47.4918 39.3934 47.5529 39.3571 47.614 39.3208L 64.3238 39.3208L 64.1757 37.6754C 64.1604 37.4697 64.1451 37.264 64.1451 37.0523C 64.1451 33.3002 67.2287 30.2467 71.0178 30.2467C 71.2286 30.2467 71.4347 30.2604 71.6409 30.2785L 73.3087 30.4297L 73.3087 11.9157L 71.6409 12.0669C 71.4347 12.0851 71.227 12.0987 71.0178 12.0987C 67.2287 12.0987 64.1451 9.04529 64.1451 5.29318C 64.1451 5.08297 64.1604 4.87578 64.1772 4.6701L 64.3253 3.02468L 47.6109 3.02468C 44.4022 1.11762 40.6619 6.69217e-07 36.6543 6.69217e-07C 32.6468 6.69217e-07 28.9065 1.11762 25.6978 3.02468L 8.97879 3.02468L 9.13151 4.67464C 9.14984 4.88031 9.16359 5.08448 9.16359 5.29318C 9.16359 9.04529 6.08004 12.0987 2.2909 12.0987C 2.08013 12.0987 1.87243 12.0851 1.66625 12.0669L 0 11.9157L 0 30.4297L 1.66625 30.2785C 1.87243 30.2604 2.08013 30.2467 2.2909 30.2467C 6.08004 30.2467 9.16359 33.3002 9.16359 37.0523C 9.16359 37.261 9.14984 37.4666 9.13151 37.6708L 8.97879 39.3208L 25.6611 39.3208C 25.9039 39.466 26.1483 39.6066 26.3957 39.7412C 26.4721 39.7836 26.5515 39.8214 26.6294 39.8622C 27.1257 40.1238 27.6297 40.3643 28.1429 40.5851C 28.2605 40.635 28.3766 40.6864 28.4942 40.7348C 29.0761 40.9738 29.6656 41.1915 30.2673 41.3791C 30.2826 41.3836 30.2979 41.3897 30.3131 41.3942C 30.9347 41.5847 31.567 41.7435 32.2054 41.8766C 32.3551 41.9084 32.5078 41.9326 32.659 41.9598C 33.1523 42.0521 33.6487 42.1277 34.1496 42.1851C 34.3314 42.2063 34.5116 42.229 34.6949 42.2456C 35.344 42.3046 35.9961 42.3439 36.6543 42.3439C 37.2989 42.3439 37.9388 42.3046 38.5772 42.2472C 38.7757 42.229 38.9727 42.2063 39.1698 42.1836C 39.631 42.1322 40.0892 42.0611 40.5458 41.978ZM 32.4254 38.8141C 32.3291 38.7915 32.2329 38.7642 32.1367 38.74C 31.6388 38.6175 31.1486 38.4693 30.6629 38.3045C 30.4384 38.2274 30.2154 38.1472 29.9939 38.0625C 29.6442 37.9294 29.3036 37.7782 28.963 37.6239C 28.7966 37.5468 28.6316 37.4682 28.4667 37.3865L 32.517 35.4114C 33.3936 34.9834 33.9389 34.1153 33.9389 33.1474L 33.9389 30.6445L 33.0164 30.2513C 31.0585 29.4165 29.7847 27.8164 29.1219 25.3589L 28.9035 24.5528L 28.0986 24.3048C 27.616 24.1566 27.2922 23.7301 27.2922 23.2446L 27.2922 21.9274C 27.2922 21.4434 27.6099 21.1032 27.9062 20.9474L 28.624 20.5693L 28.708 19.7693C 28.8348 18.5534 29.1097 17.4327 29.5205 16.4391C 29.6961 16.0141 29.8458 15.6966 29.9665 15.4395C 30.3727 14.5744 30.5545 14.0617 30.5132 13.2314C 32.0451 14.0118 33.8488 14.343 35.7884 14.1903C 35.9885 14.1736 36.1946 14.1661 36.4023 14.1661C 41.259 14.1661 43.6294 15.8992 44.0906 19.7844L 44.1838 20.5738L 44.8939 20.9459C 45.1933 21.1032 45.5125 21.4434 45.5125 21.9289L 45.5125 23.2461C 45.5125 23.7316 45.1887 24.1581 44.7061 24.3063L 43.9012 24.5543L 43.6828 25.3604C 43.02 27.8179 41.7462 29.4195 39.7883 30.2528L 38.8658 30.646L 38.8658 33.1595C 38.8658 34.1108 39.3973 34.9713 40.2556 35.4084L 44.4968 37.5544C 44.4403 37.5816 44.3854 37.6088 44.3273 37.6345C 43.7989 37.8765 43.2613 38.0943 42.713 38.2833C 42.6473 38.306 42.5832 38.3317 42.5175 38.3544C 39.2736 39.4282 35.7395 39.5733 32.4254 38.8141ZM 51.6017 6.04935L 61.1196 6.04935C 61.4923 10.8692 65.3868 14.7256 70.2542 15.0946L 70.2542 27.2508C 65.3868 27.6198 61.4923 31.4763 61.1196 36.2961L 51.6017 36.2961C 51.6246 36.2734 51.6445 36.2492 51.6674 36.2265C 51.9285 35.971 52.1698 35.6972 52.4172 35.428C 52.6555 35.1709 52.9029 34.9229 53.1259 34.6552C 53.2114 34.5524 53.2863 34.4405 53.3703 34.3361C 55.875 31.2358 57.4618 27.4958 57.9016 23.479C 57.9078 23.4291 57.9184 23.3807 57.9246 23.3308C 57.9979 22.62 58.036 21.9002 58.036 21.1727C 58.036 20.4453 57.9979 19.7254 57.9261 19.0131C 57.9215 18.9632 57.9093 18.9148 57.9032 18.8649C 57.4633 14.8496 55.875 11.1081 53.3718 8.00783C 53.2878 7.90348 53.2129 7.79156 53.1274 7.68872C 52.9029 7.42255 52.657 7.17302 52.4188 6.91592C 52.1714 6.64824 51.93 6.37299 51.6689 6.11741C 51.6445 6.09775 51.6246 6.07204 51.6017 6.04935ZM 46.4472 5.86031C 47.7087 6.65277 48.8434 7.58135 49.8514 8.61276C 49.9889 8.75341 50.1172 8.90162 50.2501 9.0468C 50.5784 9.40523 50.8885 9.77726 51.1863 10.1584C 51.3405 10.358 51.4963 10.5576 51.6429 10.7633C 51.9209 11.1535 52.1759 11.5588 52.4218 11.9686C 52.5303 12.1486 52.6494 12.321 52.7517 12.5055C 53.0648 13.0742 53.3443 13.6625 53.5932 14.2629C 53.6879 14.4897 53.7643 14.7241 53.8498 14.954C 54.0056 15.3774 54.1507 15.8039 54.2759 16.2395C 54.3477 16.489 54.4119 16.7401 54.4714 16.9926C 54.5814 17.4524 54.67 17.9182 54.7433 18.387C 54.7784 18.6093 54.8196 18.8301 54.8471 19.0555C 54.9281 19.7542 54.9815 20.4589 54.9815 21.1727C 54.9815 21.8865 54.9281 22.5913 54.8456 23.2885C 54.8196 23.5138 54.7769 23.7331 54.7417 23.9569C 54.6684 24.4273 54.5799 24.8931 54.4699 25.3513C 54.4088 25.6039 54.3447 25.8564 54.2744 26.1045C 54.1507 26.54 54.0056 26.9665 53.8483 27.3899C 53.7628 27.6213 53.6864 27.8557 53.5917 28.0811C 53.3412 28.6815 53.0633 29.2698 52.7502 29.8384C 52.6479 30.0229 52.5287 30.1953 52.4203 30.3753C 52.1744 30.7851 51.9194 31.1904 51.6414 31.5806C 51.4948 31.7863 51.339 31.9859 51.1847 32.1856C 50.8885 32.5667 50.5769 32.9387 50.2485 33.2971C 50.1157 33.4423 49.9874 33.5905 49.8499 33.7312C 49.1275 34.4707 48.3196 35.1376 47.4643 35.7577C 47.2047 35.5702 46.9405 35.3872 46.6518 35.2435L 41.9173 32.8495L 41.9173 32.5742C 44.0539 31.3855 45.5644 29.4649 46.4212 26.847C 47.7316 26.1256 48.5655 24.7645 48.5655 23.2416L 48.5655 21.9244C 48.5655 20.6691 47.9882 19.5031 47.0184 18.7242C 46.38 15.1082 43.9562 11.1353 36.4008 11.1353C 36.1061 11.1353 35.8174 11.1459 35.5394 11.1686C 34.4215 11.2563 32.7873 11.1641 31.3792 10.2249C 30.8523 9.87405 30.4567 9.53529 30.2062 9.21921C 29.7022 8.58554 28.8622 8.36625 28.1093 8.67325C 27.3609 8.97875 26.9211 9.72131 27.0143 10.5168C 27.0723 11.0144 27.1563 11.5936 27.2831 12.2272C 27.5289 13.4492 27.5289 13.4492 27.1945 14.1585C 27.0585 14.4489 26.889 14.8088 26.6905 15.2882C 26.2521 16.3484 25.9375 17.5083 25.7558 18.7439C 24.8012 19.5228 24.2346 20.6812 24.2346 21.9244L 24.2346 23.2416C 24.2346 24.7645 25.0685 26.1271 26.3789 26.847C 27.2357 29.4649 28.7462 31.3855 30.8828 32.5742L 30.8828 32.8329L 25.9742 35.2284C 25.8184 35.3131 25.6718 35.428 25.5221 35.5309C 24.786 34.9728 24.0865 34.3785 23.4527 33.7297C 23.3152 33.589 23.1869 33.4408 23.0541 33.2956C 22.7257 32.9372 22.4157 32.5652 22.1178 32.1841C 21.9636 31.9844 21.8078 31.7848 21.6612 31.5791C 21.3832 31.1889 21.1282 30.7836 20.8823 30.3738C 20.7739 30.1938 20.6547 30.0214 20.5524 29.8369C 20.2393 29.2683 19.9598 28.68 19.7109 28.0796C 19.6162 27.8527 19.5398 27.6183 19.4543 27.3884C 19.2985 26.965 19.1534 26.5385 19.0282 26.1029C 18.9564 25.8534 18.8923 25.6024 18.8327 25.3498C 18.7227 24.8901 18.6342 24.4242 18.5608 23.9554C 18.5257 23.7331 18.4845 23.5123 18.457 23.287C 18.3806 22.5913 18.3272 21.8881 18.3272 21.1727C 18.3272 20.4574 18.3806 19.7542 18.4631 19.057C 18.4891 18.8316 18.5318 18.6123 18.567 18.3885C 18.6403 17.9182 18.7288 17.4524 18.8388 16.9941C 18.8999 16.7416 18.964 16.489 19.0343 16.241C 19.158 15.8054 19.3031 15.379 19.4604 14.9555C 19.5459 14.7241 19.6223 14.4897 19.717 14.2644C 19.9675 13.664 20.2454 13.0757 20.5585 12.507C 20.6608 12.3225 20.78 12.1501 20.8884 11.9702C 21.1343 11.5603 21.3893 11.155 21.6673 10.7648C 21.8139 10.5591 21.9697 10.3595 22.124 10.1599C 22.4202 9.77878 22.7318 9.40674 23.0602 9.04832C 23.193 8.90313 23.3213 8.75492 23.4588 8.61427C 24.4668 7.58286 25.6015 6.65428 26.8631 5.86182C 29.6992 4.07575 33.0531 3.02619 36.6559 3.02619C 40.2587 3.02619 43.611 4.07424 46.4472 5.86031ZM 12.1891 36.2961C 11.8164 31.4778 7.92192 27.6198 3.05453 27.2508L 3.05453 15.0946C 7.92192 14.7256 11.8164 10.8692 12.1891 6.04935L 21.707 6.04935C 21.6841 6.07204 21.6642 6.09623 21.6413 6.11892C 21.3802 6.3745 21.1389 6.64824 20.8915 6.91743C 20.6532 7.17453 20.4058 7.42255 20.1828 7.69024C 20.0973 7.79307 20.0224 7.90499 19.9384 8.00934C 17.4337 11.1096 15.8469 14.8496 15.407 18.8664C 15.4009 18.9163 15.3902 18.9647 15.3841 19.0146C 15.3108 19.7254 15.2726 20.4468 15.2726 21.1727C 15.2726 21.8986 15.3108 22.62 15.3826 23.3323C 15.3872 23.3822 15.3994 23.4306 15.4055 23.4806C 15.8454 27.4958 17.4337 31.2373 19.9369 34.3376C 20.0209 34.442 20.0957 34.5539 20.1813 34.6567C 20.4058 34.9229 20.6517 35.1724 20.8899 35.4295C 21.1373 35.6972 21.3786 35.9725 21.6398 36.228C 21.6627 36.2507 21.6826 36.2749 21.7055 36.2976L 12.1891 36.2976L 12.1891 36.2961Z"/>
</defs>
</svg>
