<svg width="122" height="88" viewBox="0 0 122 88" version="1.1" xmlns="http://www.w3.org/2000/svg" xmlns:xlink="http://www.w3.org/1999/xlink">
<title>notes-casestudy</title>
<desc>Created using Figma</desc>
<g id="Canvas" transform="translate(353 -998)">
<g id="notes-casestudy">
<g id="Group">
<g id="Vector">
<use xlink:href="#path0_fill" transform="translate(-353 998)"/>
</g>
<g id="Vector">
<use xlink:href="#path1_fill" transform="translate(-346.69 1021.31)" fill="#FFC61C"/>
</g>
<g id="Vector">
<use xlink:href="#path2_fill" transform="translate(-252.034 1021.31)" fill="#FFC61C"/>
</g>
<g id="Vector">
<use xlink:href="#path3_fill" transform="translate(-346.69 1065.13)" fill="#FFC61C"/>
</g>
<g id="Vector">
<use xlink:href="#path3_fill" transform="translate(-252.034 1065.13)" fill="#FFC61C"/>
</g>
<g id="Vector">
<use xlink:href="#path4_fill" transform="translate(-342.483 1021.31)"/>
</g>
</g>
</g>
</g>
<defs>
<path id="path0_fill" d="M 117.959 17.052L 10.5172 7.16392e-08L 10.5172 9.03516L 4.2069 8.53437L 4.2069 17.0541L 0 17.0541L 0 88L 122 88L 122 17.0541L 117.959 17.0541L 117.959 17.052ZM 14.7241 4.89318L 71.1008 13.8407L 14.7241 9.36694L 14.7241 4.89318ZM 8.41379 13.052L 10.5172 13.2189L 10.5172 13.221L 24.7302 14.3478L 58.8124 17.052L 8.41379 17.052L 8.41379 13.052ZM 117.793 83.8246L 4.2069 83.8246L 4.2069 21.2253L 111.483 21.2253L 117.793 21.2253L 117.793 83.8246Z"/>
<path id="path1_fill" d="M 7.36207 14.6065C 11.4217 14.6065 14.7241 11.3305 14.7241 7.30325C 14.7241 3.27603 11.4217 9.2335e-07 7.36207 9.2335e-07C 3.30241 9.2335e-07 0 3.27603 0 7.30325C 0 11.3305 3.30241 14.6065 7.36207 14.6065ZM 7.36207 4.17329C 9.10162 4.17329 10.5172 5.5776 10.5172 7.30325C 10.5172 9.0289 9.10162 10.4332 7.36207 10.4332C 5.62252 10.4332 4.2069 9.03099 4.2069 7.30325C 4.2069 5.57551 5.62252 4.17329 7.36207 4.17329Z"/>
<path id="path2_fill" d="M 0 7.30325C 0 11.3305 3.30241 14.6065 7.36207 14.6065C 11.4217 14.6065 14.7241 11.3305 14.7241 7.30325C 14.7241 3.27603 11.4217 9.2335e-07 7.36207 9.2335e-07C 3.30241 9.2335e-07 0 3.27812 0 7.30325ZM 10.5172 7.30325C 10.5172 9.0289 9.10162 10.4332 7.36207 10.4332C 5.62252 10.4332 4.2069 9.0289 4.2069 7.30325C 4.2069 5.5776 5.62252 4.17329 7.36207 4.17329C 9.10162 4.17329 10.5172 5.5776 10.5172 7.30325Z"/>
<path id="path3_fill" d="M 7.36207 -3.05661e-06C 3.30241 -3.05661e-06 0 3.27603 0 7.30325C 0 11.3305 3.30241 14.6065 7.36207 14.6065C 11.4217 14.6065 14.7241 11.3305 14.7241 7.30325C 14.7241 3.27603 11.4217 -3.05661e-06 7.36207 -3.05661e-06ZM 7.36207 10.4332C 5.62252 10.4332 4.2069 9.0289 4.2069 7.30325C 4.2069 5.57759 5.62252 4.17328 7.36207 4.17328C 9.10162 4.17328 10.5172 5.57759 10.5172 7.30325C 10.5172 9.0289 9.10162 10.4332 7.36207 10.4332Z"/>
<path id="path4_fill" d="M 55.8423 57.9189C 56.1011 57.871 56.3619 57.8334 56.6185 57.7791C 57.3926 57.6143 58.1603 57.4182 58.9176 57.1907C 59.2668 57.0864 59.6075 56.9654 59.9504 56.8485C 60.3963 56.6962 60.8401 56.5376 61.2798 56.3644C 61.6584 56.2162 62.0349 56.0639 62.4051 55.9012C 62.8216 55.7155 63.2318 55.513 63.6419 55.3086C 64.2141 55.0227 64.7736 54.7222 65.3247 54.4009C 65.4088 54.3529 65.493 54.3028 65.5771 54.2527L 88.5909 54.2527L 88.3869 51.9825C 88.3659 51.6987 88.3448 51.4149 88.3448 51.1227C 88.3448 45.9458 92.5917 41.7329 97.8103 41.7329C 98.1006 41.7329 98.3846 41.7516 98.6685 41.7767L 100.966 41.9853L 100.966 16.4407L 98.6685 16.6493C 98.3846 16.6744 98.0985 16.6931 97.8103 16.6931C 92.5917 16.6931 88.3448 12.4802 88.3448 7.30325C 88.3448 7.01321 88.3659 6.72734 88.389 6.44355L 88.593 4.17329L 65.5729 4.17329C 61.1535 1.54203 56.0022 9.2335e-07 50.4828 9.2335e-07C 44.9633 9.2335e-07 39.812 1.54203 35.3926 4.17329L 12.3662 4.17329L 12.5765 6.44981C 12.6018 6.7336 12.6207 7.01529 12.6207 7.30325C 12.6207 12.4802 8.37383 16.6931 3.15517 16.6931C 2.8649 16.6931 2.57883 16.6744 2.29486 16.6493L 0 16.4407L 0 41.9853L 2.29486 41.7767C 2.57883 41.7516 2.8649 41.7329 3.15517 41.7329C 8.37383 41.7329 12.6207 45.9458 12.6207 51.1227C 12.6207 51.4107 12.6018 51.6945 12.5765 51.9762L 12.3662 54.2527L 35.3421 54.2527C 35.6766 54.453 36.0131 54.6471 36.3539 54.8328C 36.4591 54.8912 36.5684 54.9434 36.6757 54.9997C 37.3593 55.3607 38.0535 55.6925 38.7602 55.9972C 38.9222 56.066 39.0821 56.137 39.244 56.2037C 40.0454 56.5334 40.8574 56.8339 41.6861 57.0926C 41.7072 57.0989 41.7282 57.1072 41.7492 57.1135C 42.6053 57.3764 43.4762 57.5955 44.3554 57.7791C 44.5616 57.823 44.7719 57.8563 44.9801 57.8939C 45.6595 58.0212 46.3432 58.1255 47.0331 58.2048C 47.2834 58.234 47.5316 58.2653 47.784 58.2883C 48.678 58.3697 49.5762 58.4239 50.4828 58.4239C 51.3704 58.4239 52.2518 58.3697 53.131 58.2904C 53.4044 58.2653 53.6758 58.234 53.9471 58.2027C 54.5824 58.1318 55.2134 58.0337 55.8423 57.9189ZM 44.6583 53.5537C 44.5258 53.5224 44.3933 53.4848 44.2608 53.4514C 43.575 53.2824 42.8998 53.0779 42.2309 52.8505C 41.9217 52.7441 41.6146 52.6335 41.3096 52.5166C 40.8279 52.333 40.3589 52.1243 39.8898 51.9115C 39.6605 51.8051 39.4333 51.6966 39.2062 51.5839L 44.7845 48.8587C 45.9919 48.2682 46.7428 47.0705 46.7428 45.735L 46.7428 42.2816L 45.4723 41.7391C 42.7757 40.5873 41.0214 38.3796 40.1086 34.9888L 39.8078 33.8766L 38.6992 33.5344C 38.0345 33.33 37.5886 32.7415 37.5886 32.0717L 37.5886 30.2542C 37.5886 29.5865 38.0261 29.117 38.4342 28.9021L 39.4228 28.3804L 39.5385 27.2766C 39.7131 25.5989 40.0917 24.0527 40.6576 22.6818C 40.8994 22.0955 41.1056 21.6573 41.2718 21.3025C 41.8313 20.109 42.0816 19.4016 42.0248 18.256C 44.1345 19.3327 46.6187 19.7897 49.2901 19.579C 49.5657 19.556 49.8496 19.5456 50.1357 19.5456C 56.8246 19.5456 60.0892 21.9369 60.7244 27.2975L 60.8528 28.3867L 61.8309 28.9C 62.2431 29.117 62.6828 29.5865 62.6828 30.2563L 62.6828 32.0738C 62.6828 32.7436 62.2368 33.332 61.5721 33.5365L 60.4636 33.8787L 60.1628 34.9909C 59.2499 38.3817 57.4957 40.5915 54.799 41.7412L 53.5285 42.2837L 53.5285 45.7517C 53.5285 47.0642 54.2605 48.2515 55.4427 48.8546L 61.284 51.8155C 61.2061 51.8531 61.1304 51.8906 61.0505 51.9261C 60.3227 52.26 59.5823 52.5605 58.8271 52.8213C 58.7367 52.8526 58.6483 52.8881 58.5579 52.9193C 54.0902 54.4009 49.2228 54.6012 44.6583 53.5537ZM 71.0692 8.34657L 84.1779 8.34657C 84.6911 14.9967 90.0549 20.3176 96.7586 20.8268L 96.7586 37.5992C 90.0549 38.1084 84.6911 43.4293 84.1779 50.0794L 71.0692 50.0794C 71.1008 50.0481 71.1281 50.0147 71.1597 49.9834C 71.5193 49.6308 71.8517 49.2531 72.1924 48.8817C 72.5206 48.527 72.8613 48.1848 73.1684 47.8154C 73.2862 47.6735 73.3893 47.5191 73.505 47.3751C 76.9547 43.0975 79.1401 37.9373 79.7459 32.3951C 79.7543 32.3263 79.7691 32.2595 79.7775 32.1906C 79.8784 31.2099 79.931 30.2167 79.931 29.213C 79.931 28.2093 79.8784 27.2161 79.7796 26.2333C 79.7733 26.1644 79.7564 26.0976 79.748 26.0288C 79.1422 20.4887 76.9547 15.3264 73.5071 11.0488C 73.3914 10.9048 73.2883 10.7504 73.1705 10.6085C 72.8613 10.2412 72.5227 9.89695 72.1945 9.54222C 71.8538 9.17288 71.5214 8.79311 71.1618 8.44047C 71.1281 8.41335 71.1008 8.37787 71.0692 8.34657ZM 63.9701 8.08574C 65.7075 9.17914 67.2704 10.4603 68.6586 11.8834C 68.848 12.0775 69.0247 12.282 69.2076 12.4823C 69.6599 12.9768 70.0869 13.4901 70.4971 14.016C 70.7095 14.2914 70.9241 14.5669 71.126 14.8506C 71.5088 15.389 71.8601 15.9482 72.1988 16.5137C 72.3481 16.762 72.5122 16.9999 72.6531 17.2544C 73.0843 18.039 73.4692 18.8507 73.8121 19.6791C 73.9425 19.9921 74.0477 20.3156 74.1655 20.6327C 74.38 21.217 74.5799 21.8054 74.7523 22.4064C 74.8512 22.7507 74.9395 23.0971 75.0216 23.4455C 75.173 24.0799 75.295 24.7225 75.396 25.3694C 75.4444 25.6761 75.5012 25.9808 75.539 26.2917C 75.6505 27.2557 75.7241 28.2281 75.7241 29.213C 75.7241 30.1979 75.6505 31.1703 75.5369 32.1322C 75.5012 32.4431 75.4423 32.7457 75.3939 33.0545C 75.2929 33.7035 75.1709 34.3461 75.0195 34.9784C 74.9353 35.3269 74.847 35.6753 74.7502 36.0175C 74.5799 36.6185 74.38 37.2069 74.1634 37.7912C 74.0456 38.1104 73.9404 38.4339 73.81 38.7448C 73.465 39.5732 73.0822 40.3849 72.651 41.1695C 72.5101 41.424 72.346 41.6619 72.1967 41.9102C 71.858 42.4757 71.5067 43.0349 71.1239 43.5733C 70.922 43.8571 70.7074 44.1325 70.495 44.4079C 70.0869 44.9338 69.6578 45.4471 69.2056 45.9416C 69.0226 46.1419 68.8459 46.3464 68.6565 46.5405C 67.6616 47.5609 66.5489 48.4811 65.371 49.3366C 65.0134 49.0778 64.6495 48.8254 64.2519 48.6271L 57.7312 45.324L 57.7312 44.9442C 60.674 43.3041 62.7543 40.6541 63.9343 37.0421C 65.7391 36.0468 66.8876 34.1688 66.8876 32.0675L 66.8876 30.2501C 66.8876 28.5181 66.0924 26.9093 64.7568 25.8347C 63.8775 20.8456 60.5393 15.364 50.1336 15.364C 49.7276 15.364 49.3301 15.3786 48.9472 15.4099C 47.4075 15.5309 45.1568 15.4036 43.2174 14.1078C 42.4918 13.6237 41.947 13.1563 41.602 12.7202C 40.9079 11.8459 39.751 11.5433 38.714 11.9669C 37.6833 12.3884 37.0775 13.4129 37.2058 14.5105C 37.2857 15.197 37.4014 15.9962 37.576 16.8705C 37.9147 18.5565 37.9147 18.5565 37.454 19.5352C 37.2668 19.9358 37.0333 20.4324 36.7599 21.0939C 36.1562 22.5566 35.7229 24.1571 35.4725 25.8619C 34.1579 26.9365 33.3775 28.5348 33.3775 30.2501L 33.3775 32.0675C 33.3775 34.1688 34.526 36.0488 36.3308 37.0421C 37.5108 40.6541 39.5911 43.3041 42.5338 44.9442L 42.5338 45.301L 35.7733 48.6063C 35.5588 48.7231 35.3569 48.8817 35.1507 49.0236C 34.1369 48.2536 33.1735 47.4336 32.3006 46.5384C 32.1112 46.3443 31.9345 46.1399 31.7515 45.9395C 31.2993 45.445 30.8723 44.9317 30.4621 44.4058C 30.2497 44.1304 30.0351 43.855 29.8332 43.5712C 29.4504 43.0328 29.0991 42.4736 28.7604 41.9081C 28.6111 41.6598 28.447 41.4219 28.3061 41.1674C 27.8749 40.3828 27.49 39.5711 27.1471 38.7427C 27.0167 38.4297 26.9115 38.1063 26.7937 37.7891C 26.5792 37.2048 26.3793 36.6164 26.2069 36.0155C 26.108 35.6712 26.0197 35.3248 25.9376 34.9763C 25.7862 34.342 25.6642 33.6993 25.5632 33.0524C 25.5148 32.7457 25.458 32.441 25.4202 32.1301C 25.315 31.1703 25.2414 30.2 25.2414 29.213C 25.2414 28.226 25.315 27.2557 25.4286 26.2938C 25.4643 25.9829 25.5232 25.6803 25.5716 25.3715C 25.6726 24.7225 25.7946 24.0799 25.946 23.4476C 26.0302 23.0991 26.1185 22.7507 26.2153 22.4085C 26.3857 21.8075 26.5855 21.2191 26.8021 20.6348C 26.9199 20.3156 27.0251 19.9921 27.1555 19.6812C 27.5005 18.8528 27.8833 18.0411 28.3145 17.2565C 28.4554 17.002 28.6195 16.7641 28.7689 16.5158C 29.1075 15.9503 29.4588 15.3911 29.8416 14.8527C 30.0436 14.5689 30.2581 14.2935 30.4706 14.0181C 30.8786 13.4922 31.3077 12.9789 31.76 12.4844C 31.943 12.2841 32.1197 12.0796 32.309 11.8855C 33.6972 10.4624 35.2601 9.18123 36.9976 8.08783C 40.9037 5.6235 45.5228 4.17537 50.4849 4.17537C 55.4469 4.17537 60.064 5.62142 63.9701 8.08574ZM 16.7876 50.0794C 16.2744 43.4314 10.9106 38.1084 4.2069 37.5992L 4.2069 20.8268C 10.9106 20.3176 16.2744 14.9967 16.7876 8.34657L 29.8963 8.34657C 29.8648 8.37787 29.8374 8.41126 29.8059 8.44256C 29.4462 8.7952 29.1138 9.17288 28.7731 9.5443C 28.4449 9.89903 28.1042 10.2412 27.7971 10.6106C 27.6793 10.7525 27.5762 10.9069 27.4605 11.0509C 24.0109 15.3285 21.8254 20.4887 21.2196 26.0309C 21.2112 26.0997 21.1964 26.1665 21.188 26.2354C 21.0871 27.2161 21.0345 28.2114 21.0345 29.213C 21.0345 30.2146 21.0871 31.2099 21.1859 32.1927C 21.1922 32.2616 21.2091 32.3284 21.2175 32.3972C 21.8233 37.9373 24.0109 43.0996 27.4584 47.3772C 27.5741 47.5212 27.6772 47.6756 27.795 47.8175C 28.1042 48.1848 28.4428 48.5291 28.771 48.8838C 29.1117 49.2531 29.4441 49.6329 29.8038 49.9855C 29.8353 50.0168 29.8627 50.0502 29.8942 50.0815L 16.7876 50.0815L 16.7876 50.0794Z"/>
</defs>
</svg>
