<svg xmlns="http://www.w3.org/2000/svg" width="166" height="126" viewBox="0 0 166 126">
    <path fill="#000" fill-rule="nonzero" d="M65.238.137a1.354 1.354 0 0 0-.942 2.322l.957.958-.957.957a1.356 1.356 0 0 0 1.915 1.92l.957-.957.958.957a1.356 1.356 0 0 0 1.915-1.92l-.958-.957.958-.958A1.354 1.354 0 1 0 68.126.544l-.958.958-.957-.958a1.354 1.354 0 0 0-.973-.407zm28.236 3.856c-2.228 0-4.062 1.835-4.062 4.063 0 2.227 1.834 4.062 4.062 4.062s4.063-1.835 4.063-4.062c0-2.228-1.835-4.063-4.063-4.063zm0 2.709c.764 0 1.354.59 1.354 1.354 0 .764-.59 1.354-1.354 1.354-.764 0-1.354-.59-1.354-1.354 0-.764.59-1.354 1.354-1.354zm20.514 5.416a1.354 1.354 0 0 0-.942 2.328l.957.957-.957.958a1.354 1.354 0 1 0 1.915 1.914l.957-.957.958.957a1.354 1.354 0 1 0 1.915-1.914l-.958-.958.958-.957a1.354 1.354 0 1 0-1.915-1.915l-.958.957-.957-.957a1.354 1.354 0 0 0-.973-.413zM69.77 19.667c-2.227 0-4.063 1.835-4.063 4.062 0 2.227 1.836 4.063 4.063 4.063h1.354v25.496C56.69 57.991 46.76 71.333 46.75 86.598c0 19.428 15.78 35.208 35.208 35.208 6.773 0 13.079-1.953 18.45-5.274.461 1.415 1.41 2.763 2.614 3.882 1.287 1.197 2.865 2.17 4.665 2.17h6.771v2.708h2.709v-2.709h35.208v2.709h2.708v-2.709h4.063c3.727 0 6.77-3.043 6.77-6.77V80.603c0-3.727-3.043-6.77-6.77-6.77h-4.063v-2.709h1.127c.875 0 1.582-.604 1.582-1.354 0-.75-.707-1.354-1.582-1.354h-15.795c-.875 0-1.582.604-1.582 1.354 0 .75.707 1.354 1.582 1.354h1.127v2.708h-8.125v-2.708h1.126c.876 0 1.582-.604 1.582-1.354 0-.75-.706-1.354-1.582-1.354h-15.795c-.875 0-1.581.604-1.581 1.354 0 .75.706 1.354 1.581 1.354h1.127v2.708h-5.163c-3.79-9.58-11.72-17.221-21.92-20.545V27.792h1.354c2.227 0 4.062-1.836 4.062-4.063 0-2.227-1.835-4.062-4.062-4.062H69.77zm0 2.708h24.375c.773 0 1.354.58 1.354 1.354 0 .774-.58 1.354-1.354 1.354H69.77c-.774 0-1.354-.58-1.354-1.354 0-.773.58-1.354 1.354-1.354zm4.062 5.417h16.25v26.327c0 .601.396 1.132.974 1.3C102.506 58.76 110.985 68 113.6 79.25h-63.28c2.618-11.248 11.092-20.486 22.539-23.825.58-.17.976-.703.973-1.306V27.792zm-12.88 5.38a1.354 1.354 0 0 0-1.333 1.375V35.9h-1.354a1.354 1.354 0 1 0 0 2.708h1.349v1.354a1.354 1.354 0 1 0 2.708 0V38.61h1.354a1.354 1.354 0 1 0 0-2.708h-1.349v-1.354a1.354 1.354 0 0 0-1.375-1.376zm43.35.613a1.354 1.354 0 0 0-.942 2.327l2.681 2.682a1.356 1.356 0 1 0 1.915-1.92l-2.682-2.677a1.354 1.354 0 0 0-.973-.412zm10.795 0c-.352.011-.686.16-.93.412l-2.682 2.677a1.356 1.356 0 1 0 1.914 1.92l2.682-2.682a1.354 1.354 0 0 0-.984-2.327zm-83.244 5.417c-2.227 0-4.062 1.835-4.062 4.062 0 2.228 1.835 4.063 4.062 4.063 2.228 0 4.063-1.835 4.063-4.063 0-2.227-1.835-4.062-4.063-4.062zm53.395 0a1.354 1.354 0 0 0-1.254 1.354 1.354 1.354 0 1 0 1.354-1.354 1.354 1.354 0 0 0-.1 0zM31.854 41.91c.764 0 1.354.59 1.354 1.354 0 .764-.59 1.354-1.354 1.354-.764 0-1.354-.59-1.354-1.354 0-.764.59-1.354 1.354-1.354zm75.12 0c-.353.011-.687.16-.932.412L103.361 45a1.356 1.356 0 1 0 1.914 1.92l2.682-2.682a1.354 1.354 0 0 0-.984-2.327zm5.453 0a1.354 1.354 0 0 0-.941 2.327l2.681 2.682a1.356 1.356 0 1 0 1.915-1.92l-2.682-2.677a1.354 1.354 0 0 0-.973-.412zm-32.595 5.417a1.354 1.354 0 0 0-1.254 1.354 1.354 1.354 0 1 0 1.354-1.354 1.354 1.354 0 0 0-.1 0zm-58.811 4.84c-2.227 0-4.063 1.835-4.063 4.062 0 1.752 1.14 3.244 2.709 3.809v20.217L2.004 111.75l-.391.677a6.776 6.776 0 0 0 0 6.77 6.78 6.78 0 0 0 5.866 3.386h37.917a6.772 6.772 0 0 0 5.86-3.385 6.775 6.775 0 0 0 .006-6.755h-.005l-.042-.073c-.064-.115-10.796-19.468-18.007-32.099V60.038c1.568-.565 2.709-2.057 2.709-3.809 0-2.227-1.836-4.062-4.063-4.062H21.021zm25.258 2.137a1.354 1.354 0 0 0-.941 2.322l.957.957-.957.958a1.356 1.356 0 1 0 1.915 1.92l.957-.957.957.957a1.356 1.356 0 1 0 1.915-1.92l-.957-.958.957-.957a1.354 1.354 0 1 0-1.915-1.915l-.957.958-.957-.958a1.354 1.354 0 0 0-.974-.407zm-25.258.571h10.833c.774 0 1.354.58 1.354 1.354 0 .774-.58 1.354-1.354 1.354H21.021c-.774 0-1.354-.58-1.354-1.354 0-.773.58-1.354 1.354-1.354zm1.354 5.417H30.5v20.672l.18.312c1.968 3.445 4.216 7.474 6.448 11.447-1.613.7-5.636 1.97-10.05-.413a13.698 13.698 0 0 0-5.047-1.576c-2.117-.23-3.946.078-5.406.47l5.75-10.245V60.292zM88.729 63c-2.227 0-4.062 1.835-4.062 4.063 0 2.227 1.835 4.062 4.062 4.062 2.228 0 4.063-1.835 4.063-4.063 0-2.227-1.835-4.062-4.063-4.062zm0 2.708c.764 0 1.354.59 1.354 1.355 0 .764-.59 1.354-1.354 1.354-.764 0-1.354-.59-1.354-1.355 0-.763.59-1.354 1.354-1.354zm-18.958 5.417a1.354 1.354 0 1 0 0 2.708 1.354 1.354 0 0 0 0-2.708zm52.812 0h8.125v38.493a4.024 4.024 0 0 1-4.062 4.063 4.024 4.024 0 0 1-4.063-4.063v-.576h2.037v-2.709h-2.037v-2.708h4.063v-2.708h-4.063v-2.709h2.037V95.5h-2.037v-2.708h4.063v-2.709h-4.063v-2.708h2.037v-2.708h-2.037v-2.709h4.063V79.25h-4.063v-8.125zm21.667 0h8.125v38.493a4.024 4.024 0 0 1-4.063 4.063 4.024 4.024 0 0 1-4.062-4.063v-.576h2.037v-2.709h-2.037v-2.708h4.063v-2.708h-4.063v-2.709h2.037V95.5h-2.037v-2.708h4.063v-2.709h-4.063v-2.708h2.037v-2.708h-2.037v-2.709h4.063V79.25h-4.063v-8.125zm-28.596 5.417h4.221v33.076c0 3.728 3.043 6.771 6.77 6.771 3.728 0 6.772-3.043 6.772-6.77V76.541h8.125v33.076c0 3.728 3.043 6.771 6.77 6.771 3.728 0 6.771-3.043 6.771-6.77V76.541h4.063a4.024 4.024 0 0 1 4.062 4.062v35.209a4.024 4.024 0 0 1-4.062 4.062h-51.458c-.702 0-1.85-.542-2.82-1.444-.97-.902-1.74-2.123-1.952-2.899a1.354 1.354 0 0 0-.248-.518c8.77-6.407 14.499-16.736 14.499-28.417a34.72 34.72 0 0 0-1.513-10.055zm-65.841 5.416h64.29c.22 1.521.354 3.068.355 4.64 0 17.965-14.534 32.5-32.5 32.5-17.963 0-32.497-14.533-32.5-32.495.002-1.573.134-3.122.355-4.645zm76.833 2.709a1.354 1.354 0 1 0 0 2.708 1.354 1.354 0 0 0 0-2.708zm21.666 0a1.354 1.354 0 1 0 0 2.708 1.354 1.354 0 0 0 0-2.708zm-68.48.576a1.354 1.354 0 0 0-1.254 1.354 1.354 1.354 0 1 0 1.354-1.354 1.354 1.354 0 0 0-.1 0zm25.83 4.063c-2.228 0-4.063 1.835-4.063 4.062 0 2.228 1.835 4.063 4.063 4.063 2.227 0 4.062-1.835 4.062-4.063 0-2.227-1.835-4.062-4.062-4.062zm-43.334 2.708c-2.227 0-4.062 1.835-4.062 4.063 0 2.227 1.835 4.062 4.062 4.062 2.228 0 4.063-1.835 4.063-4.062 0-2.228-1.835-4.063-4.063-4.063zm43.334 0c.763 0 1.354.59 1.354 1.354 0 .764-.59 1.354-1.354 1.354-.764 0-1.355-.59-1.355-1.354 0-.763.59-1.354 1.355-1.354zm-85.8 1.338c1.74-.084 3.798.209 5.93 1.36 5.671 3.054 10.854 1.19 12.658.365 5.44 9.7 10.448 18.688 10.448 18.688l.016.027a4.056 4.056 0 0 1-3.518 6.084H7.479a4.056 4.056 0 0 1-3.517-6.078l10.637-18.975c.12-.03.236-.076.344-.138 0 0 2.019-1.19 4.92-1.333zm65.387.027a1.354 1.354 0 0 0-1.254 1.355 1.354 1.354 0 1 0 1.354-1.355 1.354 1.354 0 0 0-.1 0zm-22.92 1.355c.763 0 1.353.59 1.353 1.354 0 .764-.59 1.354-1.354 1.354-.764 0-1.354-.59-1.354-1.354 0-.764.59-1.354 1.354-1.354zM128 95.5a1.354 1.354 0 1 0 0 2.708 1.354 1.354 0 0 0 0-2.708zm21.667 0a1.354 1.354 0 1 0 0 2.708 1.354 1.354 0 0 0 0-2.708zM29.146 98.208a1.354 1.354 0 1 0 0 2.709 1.354 1.354 0 0 0 0-2.709zm42.56.577a1.354 1.354 0 0 0-1.253 1.354 1.354 1.354 0 1 0 1.354-1.354 1.354 1.354 0 0 0-.1 0zm27.084 0a1.354 1.354 0 0 0-1.253 1.354 1.354 1.354 0 1 0 1.354-1.354 1.354 1.354 0 0 0-.1 0zm-79.806 2.132c-2.227 0-4.062 1.835-4.062 4.062 0 2.228 1.835 4.063 4.062 4.063 2.228 0 4.063-1.835 4.063-4.063 0-2.227-1.835-4.062-4.063-4.062zm0 2.708c.764 0 1.354.59 1.354 1.354 0 .764-.59 1.354-1.354 1.354-.764 0-1.354-.59-1.354-1.354 0-.764.59-1.354 1.354-1.354zm12.198 0a1.354 1.354 0 1 0 0 2.708 1.354 1.354 0 0 0 0-2.708zm6.089 2.708c-2.228 0-4.063 1.835-4.063 4.063 0 2.227 1.835 4.062 4.063 4.062 2.227 0 4.062-1.835 4.062-4.062 0-2.228-1.835-4.063-4.062-4.063zm48.75 0c-2.228 0-4.063 1.835-4.063 4.063 0 2.227 1.835 4.062 4.063 4.062 2.227 0 4.062-1.835 4.062-4.062 0-2.228-1.835-4.063-4.062-4.063zm-48.75 2.709c.764 0 1.354.59 1.354 1.354 0 .764-.59 1.354-1.354 1.354-.764 0-1.354-.59-1.354-1.354 0-.764.59-1.354 1.354-1.354zm48.75 0c.764 0 1.354.59 1.354 1.354 0 .764-.59 1.354-1.354 1.354-.764 0-1.354-.59-1.354-1.354 0-.764.59-1.354 1.354-1.354zm40.625 0a1.354 1.354 0 1 0 0 2.708 1.354 1.354 0 0 0 0-2.708zm21.666 0a1.354 1.354 0 1 0 0 2.708 1.354 1.354 0 0 0 0-2.708zm-71.188.576a1.354 1.354 0 0 0-1.254 1.354 1.354 1.354 0 1 0 1.354-1.354 1.354 1.354 0 0 0-.1 0zm-61.52 2.132a1.354 1.354 0 1 0 0 2.708 1.354 1.354 0 0 0 0-2.708zm12.87 2.708a1.354 1.354 0 1 0 0 2.709 1.354 1.354 0 0 0 0-2.709z"/>
</svg>
